%FSDAX24Y24*%
%MOMM*%
%SFA1B1*%

%IPPOS*%
%AMD15*
4,1,8,1.600200,-0.474980,1.600200,0.474980,1.125220,0.949960,-1.125220,0.949960,-1.600200,0.474980,-1.600200,-0.474980,-1.125220,-0.949960,1.125220,-0.949960,1.600200,-0.474980,0.0*
%
%ADD10R,1.100074X1.400048*%
%ADD11R,1.500124X2.500122*%
%ADD12R,1.500124X2.500122*%
%ADD13R,1.150112X0.599948*%
%ADD14R,1.400048X1.100074*%
G04~CAMADD=15~4~0.0~0.0~748.0~1259.8~0.0~187.0~0~0.0~0.0~0.0~0.0~0~0.0~0.0~0.0~0.0~0~0.0~0.0~0.0~270.0~1260.0~748.0*
%ADD15D15*%
%ADD16R,1.400048X0.599948*%
%ADD17R,1.800098X0.599948*%
%ADD18C,1.270000*%
%ADD19C,0.635000*%
%ADD20C,0.508000*%
%ADD21R,2.540000X1.143000*%
%ADD22R,1.397000X2.540000*%
%ADD23C,1.350010*%
%ADD24R,1.350010X1.350010*%
%ADD25R,1.350010X1.350010*%
%ADD26C,1.500124*%
%ADD27R,1.500124X1.500124*%
%ADD28O,1.400048X3.599942*%
%ADD29O,3.599942X1.400048*%
%ADD30C,0.635000*%
%LNesp8266_amp_smd-1*%
%LPD*%
G36*
X351790Y002540D02*
X306806D01*
X306207Y003660*
X307256Y005229*
X296903*
X297952Y003660*
X297355Y002540*
X206375*
Y029464*
X188849*
Y002540*
X186563*
Y029464*
X169037*
Y002540*
X166751*
Y029464*
X149225*
Y002540*
X146431*
Y029464*
X128905*
Y002540*
X126619*
Y029464*
X109093*
Y002540*
X106299*
Y029464*
X088773*
Y002540*
X001270*
Y190500*
X015158*
Y189339*
X015544Y187406*
X016639Y185767*
X018018Y184388*
X019657Y183294*
X021590Y182910*
X023522Y183294*
X025161Y184388*
X026255Y186027*
X026639Y187960*
X026329Y189517*
X027134Y190500*
X089578*
Y156763*
X085247Y152433*
X084074Y152918*
Y163195*
X055118*
Y160103*
X040132*
X038447Y159768*
X037017Y158816*
X028232Y150027*
X027058Y150512*
Y161800*
X036367Y171112*
X055118*
Y168021*
X084074*
Y183007*
X055118*
Y179915*
X034544*
X032859Y179580*
X031429Y178628*
X020833Y168028*
X008501*
Y149471*
X026017*
X026502Y148297*
X020477Y142275*
X020203Y142389*
X017780Y142707*
X015356Y142389*
X013101Y141455*
X011163Y139966*
X009674Y138028*
X008740Y135773*
X008422Y133350*
X008740Y130926*
X009674Y128671*
X011163Y126733*
X013101Y125244*
X015356Y124310*
X017780Y123992*
X020203Y124310*
X022458Y125244*
X024396Y126733*
X025885Y128671*
X026819Y130926*
X027137Y133350*
X026819Y135773*
X026705Y136047*
X041955Y151300*
X055118*
Y150022*
X053677Y149735*
X052247Y148783*
X020380Y116913*
X020203Y116989*
X017780Y117307*
X015356Y116989*
X013101Y116055*
X011163Y114566*
X009674Y112628*
X008740Y110373*
X008422Y107950*
X008740Y105526*
X009674Y103271*
X011163Y101333*
X013101Y099844*
X015356Y098910*
X017780Y098592*
X020203Y098910*
X020477Y099024*
X027111Y092389*
X028541Y091437*
X030226Y091102*
X055118*
Y088011*
X075295*
X075420Y086746*
X074769Y086616*
X073339Y085664*
X070609Y082931*
X054864*
Y067945*
X073776*
X074261Y066771*
X070609Y063119*
X054864*
Y048133*
X083820*
Y060368*
X086822*
Y055991*
X101058*
Y055229*
X106560*
Y064770*
X109100*
Y067310*
X117139*
Y074310*
X116377*
Y076842*
X117360Y077650*
X118110Y077500*
X120042Y077884*
X121681Y078978*
X122775Y080617*
X123159Y082550*
X122775Y084482*
X121681Y086121*
X120042Y087215*
X118110Y087599*
X117360Y087449*
X116377Y088257*
Y091328*
Y091551*
Y109108*
X101820*
X101500*
X101379*
X086822*
Y099905*
X084074*
Y102997*
X055118*
Y099905*
X032049*
X026705Y105252*
X026819Y105526*
X027137Y107950*
X026819Y110373*
X026664Y110746*
X053944Y138026*
X055118Y137541*
Y127889*
X084074*
Y141267*
X084709*
X086393Y141602*
X087823Y142554*
X097094Y151825*
X098046Y153255*
X098381Y154940*
Y190500*
X124460*
Y207010*
X129540*
Y190500*
X166370*
Y207010*
X171450*
Y190500*
X220502*
Y183007*
X211074*
Y168021*
X240030*
Y183007*
X230601*
Y190500*
X246199*
Y202801*
X255668*
Y209550*
X246380*
Y214630*
X255668*
Y221378*
X246199*
Y227248*
X247154Y228086*
X247650Y228020*
X265356*
Y225219*
X265658Y222928*
X266542Y220792*
X267949Y218958*
X269783Y217553*
X271917Y216667*
X274210Y216367*
X276501Y216667*
X278635Y217553*
X280471Y218958*
X281876Y220792*
X282762Y222928*
X283062Y225219*
Y247220*
X282762Y249511*
X281876Y251647*
X280471Y253481*
X278635Y254886*
X276501Y255772*
X274210Y256072*
X273636Y255998*
X262427Y267205*
Y271668*
X247870*
X247550*
X247429*
X246199*
Y293370*
X287487*
X287896Y292166*
X286405Y291023*
X284876Y289031*
X283936Y286760*
X324485*
X323542Y289031*
X322013Y291023*
X320522Y292166*
X320931Y293370*
X351790*
Y002540*
G37*
%LNesp8266_amp_smd-2*%
%LPC*%
G36*
X117139Y062230D02*
X111640D01*
Y055229*
X117139*
Y062230*
G37*
G36*
X291500Y058420D02*
X285750D01*
Y055420*
X291500*
Y058420*
G37*
G36*
X240030Y083185D02*
X211074D01*
Y068199*
X240030*
Y069583*
X241203Y070070*
X243248Y068026*
Y062230*
X243583Y060545*
X242570Y060281*
X240030*
Y063373*
X211074*
Y048387*
X240030*
Y050533*
X241203Y051020*
X243248Y048976*
Y024130*
X243583Y022445*
X244535Y021015*
X246380Y019174*
Y017769*
X247373Y018181*
X249346Y016207*
X250774Y015252*
X252460Y014917*
X256471*
Y012042*
X274022*
X274027*
X274919Y011780*
X274927*
X280670*
Y017320*
Y022860*
X274927*
X274919*
X274027Y023751*
Y026144*
Y026598*
Y026819*
Y027040*
Y027495*
Y031269*
X283210*
X284576Y031541*
X290738*
Y041097*
X284576*
X283210Y041368*
X274027*
Y041597*
X256471*
Y027495*
Y027040*
Y026819*
Y026598*
Y026144*
Y023723*
X254284*
X252051Y025953*
Y049392*
X253116Y050457*
X253171Y050485*
X254584Y049542*
X256270Y049207*
X256471*
Y046332*
X274027*
Y046448*
X274919Y047340*
X274927*
X280670*
Y052880*
Y058420*
X274927*
X274919*
X274027Y059311*
Y060434*
Y060888*
Y061109*
Y061330*
Y061785*
Y066829*
X283210*
X284576Y067101*
X290738*
Y076657*
X284576*
X283210Y076928*
X268521*
X266588Y076545*
X265602Y075887*
X256471*
Y061785*
Y061330*
Y061292*
X256029Y061109*
X254995*
X252051Y064053*
Y069850*
X251716Y071534*
X250764Y072964*
X246199Y077525*
Y078930*
X245206Y078519*
X244922Y078806*
X243492Y079758*
X241808Y080093*
X240030*
Y083185*
G37*
G36*
X139819Y057800D02*
X134320D01*
Y050800*
X139819*
Y057800*
G37*
G36*
X017780Y066507D02*
X015356Y066189D01*
X013101Y065255*
X011163Y063766*
X009674Y061828*
X008740Y059573*
X008422Y057150*
X008740Y054726*
X009674Y052471*
X011163Y050533*
X013101Y049044*
X015356Y048110*
X017780Y047792*
X020203Y048110*
X022458Y049044*
X024396Y050533*
X025885Y052471*
X026819Y054726*
X027137Y057150*
X026819Y059573*
X025885Y061828*
X024396Y063766*
X022458Y065255*
X020203Y066189*
X017780Y066507*
G37*
G36*
X299539Y051046D02*
X297959Y049989D01*
X296903Y048409*
X299539*
Y051046*
G37*
G36*
X304619D02*
Y048409D01*
X307256*
X306199Y049989*
X304619Y051046*
G37*
G36*
X305709Y106138D02*
X303588Y105859D01*
X301612Y105039*
X299913Y103736*
X299130Y102717*
X298180*
Y101005*
X297792Y100060*
X297512Y097939*
X297792Y095818*
X298180Y094874*
Y093162*
X299130*
X299913Y092143*
X321503Y070553*
X323199Y069250*
X325178Y068430*
X327299Y068150*
X330647*
X332679Y067310*
X335099Y066992*
X337522Y067310*
X339778Y068244*
X341716Y069733*
X343204Y071671*
X343415Y072179*
X343468Y072250*
X344289Y074228*
X344568Y076349*
X344289Y078470*
X343468Y080449*
X343415Y080520*
X343204Y081028*
X341716Y082966*
X339778Y084455*
X337522Y085389*
X335099Y085707*
X332679Y085389*
X330682Y084561*
X313237Y102006*
Y102717*
X312526*
X311508Y103736*
X309808Y105039*
X307832Y105859*
X305709Y106138*
G37*
G36*
X298269Y084066D02*
X296689Y083009D01*
X295633Y081429*
X298269*
Y084066*
G37*
G36*
X303349D02*
Y081429D01*
X305986*
X304929Y083009*
X303349Y084066*
G37*
G36*
X291500Y085900D02*
X285750D01*
Y082900*
X291500*
Y085900*
G37*
G36*
X305986Y076349D02*
X303349D01*
Y073713*
X304929Y074769*
X305986Y076349*
G37*
G36*
X015240Y080010D02*
X007988D01*
X007998Y079928*
X009009Y077487*
X010619Y075389*
X012717Y073779*
X015158Y072768*
X015240Y072758*
Y080010*
G37*
G36*
X027571D02*
X020320D01*
Y072758*
X020401Y072768*
X022842Y073779*
X024940Y075389*
X026550Y077487*
X027561Y079928*
X027571Y080010*
G37*
G36*
X298269Y076349D02*
X295633D01*
X296689Y074769*
X298269Y073713*
Y076349*
G37*
G36*
X291500Y050340D02*
X285750D01*
Y047340*
X291500*
Y050340*
G37*
G36*
Y022860D02*
X285750D01*
Y019860*
X291500*
Y022860*
G37*
G36*
X066802Y033020D02*
X054102D01*
Y027305*
X066802*
Y033020*
G37*
G36*
X084582D02*
X071882D01*
Y027305*
X084582*
Y033020*
G37*
G36*
X335099Y035018D02*
X305709D01*
X303588Y034739*
X301612Y033919*
X299913Y032616*
X299130Y031597*
X298180*
Y029885*
X297792Y028940*
X297512Y026819*
X297792Y024698*
X298180Y023754*
Y022042*
X299130*
X299913Y021023*
X301612Y019720*
X303588Y018900*
X305709Y018620*
X328886*
X330420Y017444*
X332679Y016510*
X335099Y016192*
X337522Y016510*
X339778Y017444*
X341716Y018933*
X343204Y020871*
X343415Y021379*
X343468Y021450*
X344289Y023428*
X344568Y025549*
X344289Y027670*
X343468Y029649*
X343415Y029720*
X343204Y030228*
X341716Y032166*
X339778Y033655*
X339270Y033865*
X339199Y033919*
X337220Y034739*
X335099Y035018*
G37*
G36*
X299539Y012946D02*
X297959Y011889D01*
X296903Y010309*
X299539*
Y012946*
G37*
G36*
X304619D02*
Y010309D01*
X307256*
X306199Y011889*
X304619Y012946*
G37*
G36*
X291500Y014780D02*
X285750D01*
Y011780*
X291500*
Y014780*
G37*
G36*
X240030Y043307D02*
X211074D01*
Y028321*
X240030*
Y043307*
G37*
G36*
X307256Y043329D02*
X304619D01*
Y040693*
X306199Y041749*
X307256Y043329*
G37*
G36*
X313509Y070578D02*
X305709D01*
X303588Y070299*
X301612Y069479*
X299913Y068176*
X299130Y067157*
X298180*
Y065445*
X297792Y064500*
X297512Y062379*
X297792Y060258*
X298180Y059314*
Y057602*
X299130*
X299913Y056583*
X301612Y055280*
X303588Y054460*
X305709Y054180*
X310113*
X319143Y045153*
X319991Y044500*
X320840Y043850*
X322818Y043030*
X324939Y042750*
X330647*
X332679Y041910*
X335099Y041592*
X337522Y041910*
X339778Y042844*
X341716Y044333*
X343204Y046271*
X343415Y046779*
X343468Y046850*
X344289Y048828*
X344568Y050949*
X344289Y053070*
X343468Y055049*
X343415Y055120*
X343204Y055628*
X341716Y057566*
X339778Y059055*
X337522Y059989*
X335099Y060307*
X332679Y059989*
X330647Y059148*
X328335*
X319305Y068176*
X317609Y069479*
X315633Y070299*
X313509Y070578*
G37*
G36*
X150401Y057800D02*
X144899D01*
Y048260*
Y038719*
X150401*
Y039481*
X164637*
Y041993*
X165707Y043594*
X167640Y043210*
X169572Y043594*
X171211Y044688*
X172305Y046327*
X172689Y048260*
X172305Y050192*
X171211Y051831*
X169572Y052925*
X167640Y053309*
X165707Y052925*
X164637Y054526*
Y057038*
X150401*
Y057800*
G37*
G36*
X299539Y043329D02*
X296903D01*
X297959Y041749*
X299539Y040693*
Y043329*
G37*
G36*
X066802Y043815D02*
X054102D01*
Y038100*
X066802*
Y043815*
G37*
G36*
X084582D02*
X071882D01*
Y038100*
X084582*
Y043815*
G37*
G36*
X139819Y045720D02*
X134320D01*
Y038719*
X139819*
Y045720*
G37*
G36*
X015240Y092341D02*
X015158Y092331D01*
X012717Y091320*
X010619Y089710*
X009009Y087612*
X007998Y085171*
X007988Y085090*
X015240*
Y092341*
G37*
G36*
X194985Y181498D02*
D01*
X194530*
X194310*
X194089*
X193634*
X179532*
Y163941*
X193634*
X194089*
X194310*
X194530*
X194985*
X209087*
Y181498*
X194985*
G37*
G36*
X044450Y185420D02*
X041813D01*
X042870Y183840*
X044450Y182783*
Y185420*
G37*
G36*
X052166D02*
X049530D01*
Y182783*
X051109Y183840*
X052166Y185420*
G37*
G36*
X305986Y181759D02*
X303349D01*
Y179123*
X304929Y180179*
X305986Y181759*
G37*
G36*
X274027Y183837D02*
X256471D01*
Y169735*
Y169280*
Y169059*
Y168838*
Y168384*
Y165963*
X255930*
X254246Y165628*
X252818Y164673*
X247373Y159227*
X246380Y159639*
Y158234*
X241203Y153057*
X240030Y153543*
Y163195*
X211074*
Y150070*
X146405*
X145442Y150715*
X143510Y151099*
X141577Y150715*
X139938Y149621*
X138844Y147982*
X138460Y146050*
X138844Y144117*
X139938Y142478*
X141577Y141384*
X143510Y141000*
X144848Y141267*
X179532*
Y124571*
X194089*
X194530*
X209087*
Y128948*
X211074*
Y128143*
X240030*
Y141267*
X240040*
X241724Y141602*
X243154Y142554*
X245206Y144609*
X246199Y144198*
Y145602*
X255346Y154749*
X256471Y154282*
X274022*
X274027*
X274919Y154020*
X274927*
X280670*
Y159560*
Y165100*
X274927*
X274919*
X274027Y165991*
Y168384*
Y168838*
Y169059*
Y169280*
Y169735*
Y173509*
X283210*
X284576Y173781*
X290738*
Y183337*
X284576*
X283210Y183608*
X274027*
Y183837*
G37*
G36*
X291500Y165100D02*
X285750D01*
Y162100*
X291500*
Y165100*
G37*
G36*
X298269Y181759D02*
X295633D01*
X296689Y180179*
X298269Y179123*
Y181759*
G37*
G36*
Y189476D02*
X296689Y188419D01*
X295633Y186839*
X298269*
Y189476*
G37*
G36*
X334749Y256494D02*
Y238760D01*
X341833*
Y247220*
X341505Y249709*
X340542Y252031*
X339013Y254025*
X337019Y255551*
X334749Y256494*
G37*
G36*
X301670Y281680D02*
X283936D01*
X284876Y279407*
X286405Y277416*
X288399Y275887*
X290718Y274924*
X293209Y274596*
X301670*
Y281680*
G37*
G36*
X324485D02*
X306750D01*
Y274596*
X315208*
X317700Y274924*
X320022Y275887*
X322013Y277416*
X323542Y279407*
X324485Y281680*
G37*
G36*
X329669Y256494D02*
X327398Y255551D01*
X325407Y254025*
X323877Y252031*
X322915Y249709*
X322587Y247220*
Y238760*
X329669*
Y256494*
G37*
G36*
X303349Y189476D02*
Y186839D01*
X305986*
X304929Y188419*
X303349Y189476*
G37*
G36*
X329669Y233680D02*
X322587D01*
Y225219*
X322915Y222730*
X323877Y220408*
X325407Y218417*
X327398Y216885*
X329669Y215945*
Y233680*
G37*
G36*
X341833D02*
X334749D01*
Y215945*
X337019Y216885*
X339013Y218417*
X340542Y220408*
X341505Y222730*
X341833Y225219*
Y233680*
G37*
G36*
X291500Y157020D02*
X285750D01*
Y154020*
X291500*
Y157020*
G37*
G36*
X298450Y115570D02*
X295813D01*
X296870Y113990*
X298450Y112933*
Y115570*
G37*
G36*
X306166D02*
X303530D01*
Y112933*
X305109Y113990*
X306166Y115570*
G37*
G36*
X291500Y120190D02*
X285750D01*
Y117190*
X291500*
Y120190*
G37*
G36*
X084074Y123063D02*
X055118D01*
Y108077*
X084074*
Y123063*
G37*
G36*
X020320Y092341D02*
Y085090D01*
X027571*
X027561Y085171*
X026550Y087612*
X024940Y089710*
X022842Y091320*
X020401Y092331*
X020320Y092341*
G37*
G36*
X291500Y093980D02*
X285750D01*
Y090980*
X291500*
Y093980*
G37*
G36*
X344378Y111028D02*
X325821D01*
Y092471*
X344378*
Y111028*
G37*
G36*
Y145318D02*
X325821D01*
Y140428*
X305709*
X303588Y140149*
X301612Y139329*
X299913Y138026*
X299130Y137007*
X298180*
Y135295*
X297792Y134350*
X297512Y132229*
X297792Y130108*
X298180Y129164*
Y127452*
X299130*
X299913Y126433*
X301612Y125130*
X301741Y125077*
X301373Y123860*
X300990Y123936*
X298759Y123492*
X296870Y122229*
X295813Y120650*
X306166*
X305109Y122229*
X303931Y123017*
X304378Y124206*
X305709Y124030*
X331289*
X333410Y124310*
X335389Y125130*
X337085Y126433*
X337416Y126761*
X344378*
Y145318*
G37*
G36*
X305709Y177258D02*
X303588Y176979D01*
X301612Y176159*
X299913Y174856*
X299130Y173837*
X298180*
Y172125*
X297792Y171180*
X297512Y169059*
X297792Y166938*
X298180Y165994*
Y164282*
X299130*
X299913Y163263*
X307533Y155643*
X308381Y154990*
X309232Y154340*
X311208Y153520*
X313329Y153240*
X330647*
X332679Y152400*
X335099Y152082*
X337522Y152400*
X339778Y153334*
X341716Y154823*
X343204Y156761*
X344139Y159019*
X344457Y161439*
X344139Y163863*
X343204Y166118*
X341716Y168056*
X339778Y169545*
X337522Y170479*
X335099Y170797*
X332679Y170479*
X330647Y169638*
X316725*
X313237Y173126*
Y173837*
X312526*
X311508Y174856*
X309808Y176159*
X307832Y176979*
X305709Y177258*
G37*
G36*
X298269Y156456D02*
X296689Y155399D01*
X295633Y153819*
X298269*
Y156456*
G37*
G36*
X303349D02*
Y153819D01*
X305986*
X304929Y155399*
X303349Y156456*
G37*
G36*
X305986Y148739D02*
X303349D01*
Y146103*
X304929Y147159*
X305986Y148739*
G37*
G36*
X291500Y128270D02*
X285750D01*
Y125270*
X291500*
Y128270*
G37*
G36*
X274027Y152087D02*
X256471D01*
Y137985*
Y137530*
Y137309*
Y137088*
Y136634*
Y127259*
X247373Y118160*
X246380Y118569*
Y117165*
X241203Y111988*
X240030Y112476*
Y123317*
X211074*
Y110192*
X198501*
X196816Y109857*
X196748Y109811*
X167426*
X167032Y110075*
X165100Y110459*
X163167Y110075*
X161528Y108981*
X160434Y107342*
X160050Y105410*
X160434Y103477*
X161528Y101838*
X163167Y100744*
X165100Y100360*
X167032Y100744*
X167426Y101008*
X198120*
X199804Y101343*
X199872Y101389*
X211074*
Y088011*
X240030*
Y091102*
X245572*
X246380Y090294*
Y088889*
X247373Y089301*
X249346Y087327*
X250774Y086372*
X252460Y086037*
X256471*
Y083162*
X274022*
X274027*
X274919Y082900*
X274927*
X280670*
Y088440*
Y093980*
X274927*
X274919*
X274027Y094871*
Y097264*
Y097718*
Y097939*
Y098160*
Y098615*
Y102389*
X283210*
X284576Y102661*
X290738*
Y112217*
X284576*
X283210Y112488*
X274027*
Y112717*
X256471*
Y098615*
Y098160*
Y097939*
Y097718*
Y097264*
Y094843*
X254284*
X250510Y098618*
X249080Y099570*
X247396Y099905*
X246199*
Y104533*
X264198Y122532*
X274022*
X274027*
X274919Y121640*
Y117190*
X280670*
Y122730*
Y128270*
X274927*
X274919*
X274027Y129161*
Y136634*
Y137088*
Y137309*
Y137530*
Y137985*
Y139760*
X275681*
Y136951*
X281843*
X283210Y136679*
X284576Y136951*
X290738*
Y146507*
X285574*
X283700Y148381*
X282061Y149476*
X280128Y149860*
X274027*
Y152087*
G37*
G36*
X298269Y148739D02*
X295633D01*
X296689Y147159*
X298269Y146103*
Y148739*
G37*
%LNesp8266_amp_smd-3*%
%LPD*%
G54D10*
X240149Y262890D03*
X255150D03*
X186809Y133350D03*
X201810D03*
X186809Y172720D03*
X201810D03*
X094099Y100330D03*
X109100D03*
X157360Y048260D03*
X142359D03*
X094099Y082550D03*
X109100D03*
X094099Y064770D03*
X109100D03*
G54D11*
X168910Y207010D03*
Y269240D03*
X081280Y207010D03*
Y269240D03*
G54D12*
X214630Y207010D03*
Y269240D03*
X127000Y207010D03*
Y269240D03*
G54D13*
X305709Y132229D03*
X283210Y122730D03*
Y141729D03*
X305709Y169059D03*
X283210Y159560D03*
Y178559D03*
X305709Y097939D03*
X283210Y088440D03*
Y107439D03*
X305709Y026819D03*
X283210Y017320D03*
Y036319D03*
X305709Y062379D03*
X283210Y052880D03*
Y071879D03*
G54D14*
X265249Y161559D03*
Y176560D03*
Y019319D03*
Y034320D03*
Y129809D03*
Y144810D03*
Y090439D03*
Y105440D03*
Y053609D03*
Y068610D03*
G54D15*
X020210Y212090D03*
G54D16*
X047210Y227091D03*
Y197091D03*
G54D17*
X045209Y212090D03*
G54D18*
X012700Y257810D02*
X017780Y252730D01*
X047757Y227637D02*
X131117D01*
X142359Y048260D02*
Y087510D01*
X127000Y102870D02*
X142359Y087510D01*
X127000Y102870D02*
Y207010D01*
X228600Y229870D02*
X246380Y212090D01*
X194310Y229870D02*
X228600D01*
X171450Y207010D02*
X194310Y229870D01*
X168910Y207010D02*
X171450D01*
X232410Y247650D02*
X240149Y255389D01*
X151130Y247650D02*
X232410D01*
X131117Y227637D02*
X151130Y247650D01*
X017780Y214520D02*
X020210Y212090D01*
X017780Y214520D02*
Y252730D01*
X240149Y255389D02*
Y262890D01*
X274210Y236220D02*
Y243829D01*
X255150Y262890D02*
X274210Y243829D01*
X247650Y236220D02*
X274210D01*
X246380Y237490D02*
X247650Y236220D01*
X331289Y132229D02*
X335099Y136039D01*
X305709Y132229D02*
X331289D01*
X313329Y161439D02*
X335099D01*
X305709Y169059D02*
X313329Y161439D01*
X335099Y026819D02*
X336369Y025549D01*
X305709Y026819D02*
X335099D01*
X324939Y050949D02*
X336369D01*
X313509Y062379D02*
X324939Y050949D01*
X305709Y062379D02*
X313509D01*
X327299Y076349D02*
X336369D01*
X305709Y097939D02*
X327299Y076349D01*
G54D19*
X047757Y227637D02*
X049530Y229410D01*
X047210Y227091D02*
X047757Y227637D01*
X049530Y229410D02*
Y236220D01*
X225552Y175514D02*
Y196088D01*
X214630Y207010D02*
X225552Y196088D01*
X020210Y189339D02*
X021590Y187960D01*
X020210Y189339D02*
Y212090D01*
X265249Y176560D02*
X267251Y178559D01*
X283210*
X265249Y144810D02*
X280128D01*
X283210Y141729*
X265249Y105440D02*
X267251Y107439D01*
X283210*
X265249Y068610D02*
X268521Y071879D01*
X283210*
X265249Y034320D02*
X267251Y036319D01*
X283210*
G54D20*
X143510Y145669D02*
X240040D01*
X223266Y133350D02*
X225552Y135636D01*
X201810Y133350D02*
X223266D01*
X118110Y082550D02*
D01*
X109100D02*
X118110D01*
X157360Y048260D02*
X167640D01*
X165100Y105410D02*
X198120D01*
X198501Y105791*
X046990Y187960D02*
Y196870D01*
X047210Y197091*
X081280Y207010D02*
X093980Y194310D01*
Y154940D02*
Y194310D01*
X084709Y145669D02*
X093980Y154940D01*
X055361Y145669D02*
X084709D01*
X017780Y108087D02*
X055361Y145669D01*
X017780Y107950D02*
Y108087D01*
X030226Y095504D02*
X069596D01*
X017780Y107950D02*
X030226Y095504D01*
X020210Y212090D02*
X045209D01*
X040132Y155702D02*
X069596D01*
X017780Y133350D02*
X040132Y155702D01*
X034544Y175514D02*
X069596D01*
X017780Y158750D02*
X034544Y175514D01*
X099060Y048260D02*
X107950D01*
X086360Y035560D02*
X099060Y048260D01*
X069342Y035560D02*
X086360D01*
X017780Y082550D02*
X040640Y059690D01*
Y044450D02*
Y059690D01*
Y044450D02*
X049530Y035560D01*
X069342*
X107950Y048260D02*
X109100Y049410D01*
Y064770*
Y082550D02*
Y100330D01*
X069342Y055626D02*
X078486Y064770D01*
X094099*
X069342Y075438D02*
X076454Y082550D01*
X094099*
X089273Y095504D02*
X094099Y100330D01*
X069596Y095504D02*
X089273D01*
X081280Y243840D02*
Y269240D01*
X241231Y105791D02*
X265249Y129809D01*
X198501Y105791D02*
X241231D01*
X240040Y145669D02*
X255930Y161559D01*
X265249*
X225552Y055880D02*
X242570D01*
X247650Y050800*
Y024130D02*
Y050800D01*
Y024130D02*
X252460Y019319D01*
X265249*
X225552Y075692D02*
X241808D01*
X247650Y069850*
Y062230D02*
Y069850D01*
Y062230D02*
X256270Y053609D01*
X265249*
X225552Y095504D02*
X247396D01*
X252460Y090439*
X265249*
X157360Y048260D02*
D01*
X107950D02*
X142359D01*
G54D21*
X069596Y175514D03*
Y155702D03*
Y135382D03*
Y115570D03*
Y095504D03*
X069342Y075438D03*
Y055626D03*
X225552Y035814D03*
Y075692D03*
Y095504D03*
Y115824D03*
Y135636D03*
Y155702D03*
Y175514D03*
X069342Y035560D03*
X225552Y055880D03*
G54D22*
X097536Y014986D03*
X117856D03*
X137668D03*
X157988D03*
X177800D03*
X197612D03*
G54D23*
X012700Y257810D03*
X246380Y237490D03*
G54D24*
X038100Y257810D03*
G54D25*
X246380Y212090D03*
G54D26*
X017780Y057150D03*
Y082550D03*
Y107950D03*
Y133350D03*
X335099Y161439D03*
Y025549D03*
Y050949D03*
Y076349D03*
G54D27*
X017780Y158750D03*
X335099Y136039D03*
Y101749D03*
G54D28*
X332209Y236220D03*
X274210D03*
G54D29*
X304210Y284220D03*
G54D30*
X049530Y236220D03*
X143510Y146050D03*
X118110Y082550D03*
X167640Y048260D03*
X165100Y105410D03*
X186809Y133350D03*
Y172720D03*
X214630Y270510D03*
Y207010D03*
X021590Y187960D03*
X046990D03*
X081280Y207010D03*
Y243840D03*
X127000Y207010D03*
X168910D03*
X167640Y269240D03*
X127000D03*
X300809Y184299D03*
X300990Y118110D03*
X300809Y151279D03*
X302079Y007769D03*
Y045869D03*
X300809Y078889D03*
M02*