%FSDAX24Y24*%
%MOMM*%
%SFA1B1*%

%IPPOS*%
%ADD9500C,0.355600*%
%ADD9501C,0.762000*%
%ADD9502C,0.800100*%
%ADD9503C,0.899922*%
%LNesp8266_amp_smd-roundholes-1*%
%LPD*%
G54D9500*
X118110Y082550D03*
X165100Y105410D03*
X167640Y048260D03*
X302079Y045869D03*
X300809Y078889D03*
X302079Y007769D03*
X300990Y118110D03*
X300809Y151279D03*
Y184299D03*
X214630Y207010D03*
X168910D03*
X127000D03*
X081280D03*
Y243840D03*
X049530Y236220D03*
X046990Y187960D03*
X021590D03*
X143510Y146050D03*
X186809Y133350D03*
Y172720D03*
X167640Y269240D03*
X127000D03*
X214630Y270510D03*
G54D9501*
X069342Y035560D03*
Y055626D03*
Y075438D03*
X069596Y095504D03*
X097536Y014986D03*
X117856D03*
X137668D03*
X157988D03*
X177800D03*
X197612D03*
X225552Y035814D03*
Y055880D03*
Y075692D03*
Y095504D03*
Y115824D03*
Y135636D03*
Y155702D03*
Y175514D03*
X069596D03*
Y155702D03*
Y135382D03*
Y115570D03*
G54D9502*
X012700Y257810D03*
X038100D03*
X246380Y237490D03*
Y212090D03*
G54D9503*
X335099Y025549D03*
Y050949D03*
Y076349D03*
Y101749D03*
X017780Y107950D03*
Y082550D03*
Y057150D03*
Y133350D03*
Y158750D03*
X335099Y161439D03*
Y136039D03*
M02*