%FSDAX24Y24*%
%MOMM*%
%SFA1B1*%

%IPPOS*%
%ADD39R,1.603248X1.303274*%
%ADD43R,2.743200X1.346200*%
%ADD44R,1.600200X2.743200*%
%ADD45C,1.553210*%
%ADD46R,1.553210X1.553210*%
%ADD47R,1.553210X1.553210*%
%ADD48C,1.703324*%
%ADD49R,1.703324X1.703324*%
%ADD50O,1.603248X3.803142*%
%ADD51O,3.803142X1.603248*%
%ADD52C,0.838200*%
%LNesp8266_amp_smd-1*%
%LPD*%
G54D39*
X026670Y221099D03*
Y236100D03*
G54D43*
X069596Y175514D03*
Y155702D03*
Y135382D03*
Y115570D03*
Y095504D03*
X069342Y075438D03*
Y055626D03*
X225552Y035814D03*
Y075692D03*
Y095504D03*
Y115824D03*
Y135636D03*
Y155702D03*
Y175514D03*
X069342Y035560D03*
X225552Y055880D03*
G54D44*
X097536Y014986D03*
X117856D03*
X137668D03*
X157988D03*
X177800D03*
X197612D03*
G54D45*
X012700Y257810D03*
X246380Y237490D03*
G54D46*
X038100Y257810D03*
G54D47*
X246380Y212090D03*
G54D48*
X017780Y057150D03*
Y082550D03*
Y107950D03*
Y133350D03*
X335099Y161439D03*
Y025549D03*
Y050949D03*
Y076349D03*
G54D49*
X017780Y158750D03*
X335099Y136039D03*
Y101749D03*
G54D50*
X332209Y236220D03*
X274210D03*
G54D51*
X304210Y284220D03*
G54D52*
X049530Y236220D03*
X143510Y146050D03*
X118110Y082550D03*
X165100Y105410D03*
X186809Y133350D03*
Y172720D03*
X214630Y270510D03*
Y207010D03*
X021590Y187960D03*
X046990D03*
X081280Y207010D03*
Y243840D03*
X127000Y207010D03*
X168910D03*
X167640Y269240D03*
X127000D03*
M02*