%FSDAX24Y24*%
%MOMM*%
%SFA1B1*%

%IPPOS*%
%ADD39C,2.203196*%
%ADD40C,1.803146*%
%ADD41R,1.803146X1.803146*%
%ADD42R,1.703324X1.703324*%
%ADD43C,1.703324*%
%ADD44O,1.603248X3.803142*%
%ADD45O,3.803142X1.603248*%
%ADD46C,1.553210*%
%ADD47R,1.553210X1.553210*%
%ADD48R,1.803146X1.803146*%
%ADD49C,1.603248*%
%ADD50R,1.703324X1.703324*%
%ADD51R,2.743200X1.346200*%
%ADD52R,1.600200X2.743200*%
%ADD53C,1.727200*%
%ADD54C,0.838200*%
%LNesp8266_amp_tht-1*%
%LPD*%
G54D39*
X302260Y110490D03*
G54D40*
X326390Y361950D03*
X300990D03*
X072390Y460949D03*
Y438150D03*
X021590Y460949D03*
Y438150D03*
X231140Y460949D03*
Y438150D03*
X180340Y460949D03*
Y438150D03*
X129540Y460949D03*
Y438150D03*
G54D41*
X275590Y361950D03*
G54D42*
X083820Y059690D03*
X295910Y016510D03*
X048260Y539750D03*
X219710D03*
G54D43*
X143510Y059690D03*
X083820Y013970D03*
X143510D03*
X236220Y016510D03*
X295910Y062230D03*
X236220D03*
X073660Y539750D03*
X194310D03*
X168910D03*
X143510D03*
X332740Y219710D03*
Y245110D03*
Y270510D03*
Y295910D03*
G54D44*
X336019Y496570D03*
X278020D03*
G54D45*
X308020Y544570D03*
G54D46*
X275590Y337820D03*
X262890Y424180D03*
X313690D03*
G54D47*
X250190Y337820D03*
X288290Y424180D03*
X339090D03*
G54D48*
X072390Y415350D03*
X021590D03*
X231140D03*
X180340D03*
X129540D03*
G54D49*
X110490Y361950D03*
X186690D03*
X110490Y387350D03*
X186690D03*
X011430Y363220D03*
X087630D03*
X011430Y387350D03*
X087630D03*
X207010Y363220D03*
Y439420D03*
X260350Y205740D03*
Y129540D03*
X043180Y245110D03*
Y321310D03*
Y226060D03*
Y149860D03*
X020320Y245110D03*
Y321310D03*
X261620Y309880D03*
Y233680D03*
G54D50*
X332740Y194310D03*
G54D51*
X228092Y284480D03*
X071882Y304800D03*
X228092Y164846D03*
Y184658D03*
Y204724D03*
Y224536D03*
Y244856D03*
Y264668D03*
Y304546D03*
X071882Y284734D03*
Y264922D03*
X072136Y244856D03*
Y224790D03*
Y204978D03*
Y184658D03*
Y164846D03*
G54D52*
X200152Y325374D03*
X180340D03*
X160528D03*
X140208D03*
X120396D03*
X100076D03*
G54D53*
X310619Y496570D03*
G54D54*
X204470Y214630D03*
X299720Y232410D03*
X302260Y207010D03*
X269240Y040640D03*
X017780Y226060D03*
X129540Y347980D03*
X127000Y219710D03*
X043180Y088900D03*
X252730Y505460D03*
X116840Y497840D03*
X345440Y330200D03*
X021590Y497840D03*
X165100Y293370D03*
X193040Y177800D03*
X309880Y237490D03*
X316230Y158750D03*
X354330Y165100D03*
X281940Y151130D03*
X100330Y266700D03*
M02*