%FSDAX24Y24*%
%MOMM*%
%SFA1B1*%

%IPPOS*%
%ADD11C,0.508000*%
%ADD12C,0.304800*%
%ADD13C,1.270000*%
%ADD16C,1.599946*%
%ADD17R,1.599946X1.599946*%
%ADD18R,1.500124X1.500124*%
%ADD19C,1.500124*%
%ADD20O,1.400048X3.599942*%
%ADD21O,3.599942X1.400048*%
%ADD22C,1.350010*%
%ADD23R,1.350010X1.350010*%
%ADD24R,1.599946X1.599946*%
%ADD25C,1.400048*%
%ADD26R,1.500124X1.500124*%
%ADD27R,2.540000X1.143000*%
%ADD28R,1.397000X2.540000*%
%ADD29C,1.524000*%
%ADD30C,0.635000*%
%LNesp8266_amp_tht-1*%
%LPD*%
G36*
X324634Y240431D02*
X326123Y238493D01*
X328061Y237004*
X329371Y236461*
Y234985*
X329628Y233697*
X330360Y232605*
X332747Y230217*
X332338Y229014*
X330316Y228749*
X328061Y227815*
X326123Y226326*
X324634Y224388*
X323700Y222133*
X323382Y219710*
X323700Y217286*
X324634Y215031*
X326123Y213093*
X328061Y211604*
X330316Y210670*
X332740Y210352*
X335163Y210670*
X337418Y211604*
X339036Y212846*
X340174Y212285*
Y203588*
X323461*
Y197675*
X266237*
X265828Y198879*
X266611Y199478*
X268018Y201312*
X268902Y203448*
X269204Y205740*
X268902Y208031*
X268462Y209092*
X293839Y234469*
X294960Y233870*
X294670Y232410*
X295054Y230477*
X296148Y228838*
X297787Y227744*
X298894Y227525*
Y210718*
X298688Y210581*
X297594Y208942*
X297210Y207010*
X297594Y205077*
X298688Y203438*
X300327Y202344*
X302260Y201960*
X304192Y202344*
X305831Y203438*
X306925Y205077*
X307309Y207010*
X306925Y208942*
X305831Y210581*
X305628Y210718*
Y229870*
X305371Y231157*
X304716Y232138*
X304769Y232410*
X304385Y234342*
X304533Y234617*
X305800Y234678*
X306308Y233918*
X307947Y232824*
X309880Y232440*
X311812Y232824*
X313451Y233918*
X314545Y235557*
X314929Y237490*
X314545Y239422*
X313743Y240624*
X314342Y241741*
X324091*
X324634Y240431*
G37*
G36*
X359920Y557530D02*
D01*
X360540Y168282*
X359323Y167911*
X358449Y169219*
X356870Y170276*
Y165100*
Y159923*
X358449Y160980*
X359333Y162303*
X360550Y161935*
X360677Y080909*
X359780Y080010*
X347436*
X346908Y080652*
Y224182*
X346651Y225473*
X345922Y226565*
X336857Y235630*
X337106Y236875*
X337418Y237004*
X339356Y238493*
X340845Y240431*
X341779Y242686*
X342097Y245110*
X341779Y247533*
X340845Y249788*
X339356Y251726*
X337418Y253215*
X335163Y254149*
X332740Y254467*
X330316Y254149*
X328061Y253215*
X326123Y251726*
X324634Y249788*
X324091Y248475*
X252318*
X244541Y256252*
X243448Y256984*
X242567Y257157*
X242570Y257175*
Y272161*
X213614*
Y268036*
X135506*
X093817Y309722*
X094305Y310896*
X108839*
Y339852*
X094813*
X094325Y341025*
X107137Y353837*
X108198Y353397*
X110490Y353095*
X112781Y353397*
X114917Y354281*
X116751Y355688*
X118158Y357522*
X119042Y359658*
X119344Y361950*
X119042Y364241*
X118158Y366377*
X116751Y368211*
X114917Y369618*
X112781Y370502*
X110490Y370804*
X108198Y370502*
X106062Y369618*
X104228Y368211*
X102821Y366377*
X101937Y364241*
X101635Y361950*
X101937Y359658*
X102377Y358597*
X085250Y341469*
X084518Y340377*
X084261Y339090*
Y313055*
X074422*
Y304800*
Y296545*
X087122*
Y305236*
X088295Y305724*
X131732Y262288*
X132824Y261556*
X134112Y261302*
X213614*
Y257175*
X213616Y257157*
X212735Y256984*
X211642Y256252*
X203614Y248221*
X086614*
Y252349*
X057658*
Y248221*
X051391*
X050848Y249537*
X049441Y251371*
X047607Y252778*
X045471Y253662*
X043180Y253964*
X040888Y253662*
X038752Y252778*
X036918Y251371*
X036319Y250588*
X035118Y250997*
Y308485*
X039827Y313197*
X040888Y312757*
X043180Y312455*
X045471Y312757*
X047607Y313641*
X049441Y315048*
X050848Y316882*
X051732Y319018*
X052034Y321310*
X051732Y323601*
X050848Y325737*
X049441Y327571*
X047607Y328978*
X045471Y329862*
X043180Y330164*
X040888Y329862*
X038752Y328978*
X036918Y327571*
X035511Y325737*
X034627Y323601*
X034325Y321310*
X034627Y319018*
X035067Y317957*
X029370Y312259*
X028638Y311167*
X028381Y309880*
Y250997*
X027180Y250588*
X026581Y251371*
X024747Y252778*
X022611Y253662*
X020320Y253964*
X018028Y253662*
X015892Y252778*
X014523Y251726*
X013385Y252288*
Y313171*
X014523Y313733*
X015509Y312976*
X017780Y312036*
Y321310*
Y330583*
X015509Y329643*
X014523Y328886*
X013385Y329448*
Y354624*
X013721Y354667*
X015857Y355551*
X017691Y356958*
X019098Y358792*
X019982Y360928*
X020284Y363220*
X019982Y365511*
X019098Y367647*
X017691Y369481*
X015857Y370888*
X013721Y371772*
X011430Y372074*
X009138Y371772*
X007002Y370888*
X005168Y369481*
X003761Y367647*
X002877Y365511*
X002575Y363220*
X002877Y360928*
X003761Y358792*
X005168Y356958*
X006652Y355823*
Y233822*
X006906Y232534*
X007637Y231442*
X012778Y226301*
X012730Y226060*
X013114Y224127*
X014208Y222488*
X015847Y221394*
X017780Y221010*
X019712Y221394*
X021351Y222488*
X022445Y224127*
X022829Y226060*
X022445Y227992*
X021351Y229631*
X019712Y230725*
X017780Y231109*
X017538Y231061*
X013385Y235216*
Y237931*
X014523Y238493*
X015892Y237441*
X018028Y236557*
X020320Y236255*
X022611Y236557*
X024747Y237441*
X026581Y238848*
X027180Y239631*
X028381Y239222*
Y161290*
X028638Y160002*
X029370Y158910*
X035067Y153212*
X034627Y152151*
X034325Y149860*
X034627Y147568*
X035511Y145432*
X036918Y143598*
X038752Y142191*
X040888Y141307*
X043180Y141005*
X045471Y141307*
X047607Y142191*
X049441Y143598*
X050848Y145432*
X051732Y147568*
X052034Y149860*
X051732Y152151*
X050848Y154287*
X049441Y156121*
X047607Y157528*
X045471Y158412*
X043180Y158714*
X040888Y158412*
X039827Y157972*
X035118Y162684*
Y220172*
X036319Y220581*
X036918Y219798*
X038752Y218391*
X040888Y217507*
X043180Y217205*
X045471Y217507*
X047607Y218391*
X049441Y219798*
X050848Y221632*
X051732Y223768*
X052034Y226060*
X051732Y228351*
X050848Y230487*
X049441Y232321*
X047607Y233728*
X045471Y234612*
X043180Y234914*
X040888Y234612*
X038752Y233728*
X036918Y232321*
X036319Y231538*
X035118Y231947*
Y239222*
X036319Y239631*
X036918Y238848*
X038752Y237441*
X040888Y236557*
X043180Y236255*
X045471Y236557*
X047607Y237441*
X049441Y238848*
X050848Y240682*
X051181Y241487*
X057658*
Y237363*
X086614*
Y241487*
X205008*
X206296Y241744*
X207388Y242476*
X212440Y247528*
X213614Y247042*
Y237363*
X242570*
Y247042*
X243743Y247528*
X248541Y242730*
X249633Y241998*
X250921Y241741*
X255732*
X256141Y240540*
X255358Y239941*
X253951Y238107*
X253067Y235971*
X252765Y233680*
X253067Y231388*
X253507Y230327*
X243743Y220563*
X242570Y221051*
Y232029*
X213614*
Y217043*
X238561*
X239049Y215869*
X235397Y212217*
X213614*
Y197675*
X156210*
X154922Y197421*
X153830Y196689*
X125351Y168211*
X086614*
Y172339*
X057658*
Y157353*
X068580*
Y080010*
X001270*
Y557530*
X359920*
G37*
G36*
X323461Y185031D02*
X340174D01*
Y082047*
X338137Y080010*
X263715*
Y121432*
X264777Y121871*
X266611Y123278*
X268018Y125112*
X268902Y127248*
X269204Y129540*
X268902Y131831*
X268018Y133967*
X266611Y135801*
X264777Y137208*
X262641Y138092*
X260350Y138394*
X258058Y138092*
X255922Y137208*
X254088Y135801*
X252681Y133967*
X251797Y131831*
X251495Y129540*
X251797Y127248*
X252681Y125112*
X254088Y123278*
X255922Y121871*
X256981Y121432*
Y080010*
X231140*
Y157353*
X242570*
Y172339*
X213614*
Y157480*
X086614*
Y161477*
X126746*
X128033Y161734*
X129125Y162466*
X157604Y190941*
X213614*
Y177165*
X242570*
Y190941*
X323461*
Y185031*
G37*
G36*
X290418Y240571D02*
X263702Y213852D01*
X262641Y214292*
X260350Y214594*
X258058Y214292*
X255922Y213408*
X254088Y212001*
X252681Y210167*
X251797Y208031*
X251495Y205740*
X251797Y203448*
X252681Y201312*
X254088Y199478*
X254871Y198879*
X254462Y197675*
X242570*
Y209870*
X258267Y225567*
X259328Y225127*
X261620Y224825*
X263911Y225127*
X266047Y226011*
X267881Y227418*
X269288Y229252*
X270172Y231388*
X270474Y233680*
X270172Y235971*
X269288Y238107*
X267881Y239941*
X267098Y240540*
X267507Y241741*
X289933*
X290418Y240571*
G37*
%LNesp8266_amp_tht-2*%
%LPC*%
G36*
X169291Y339852D02*
X151765D01*
Y310896*
X169291*
Y339852*
G37*
G36*
X148971D02*
X131445D01*
Y310896*
X148971*
Y339852*
G37*
G36*
X129159D02*
X111633D01*
Y310896*
X129159*
Y339852*
G37*
G36*
X189103D02*
X171577D01*
Y310896*
X189103*
Y339852*
G37*
G36*
X022860Y330583D02*
Y323850D01*
X029593*
X028653Y326120*
X027124Y328114*
X025130Y329643*
X022860Y330583*
G37*
G36*
X029593Y318770D02*
X022860D01*
Y312036*
X025130Y312976*
X027124Y314505*
X028653Y316499*
X029593Y318770*
G37*
G36*
X086360Y292227D02*
X057404D01*
Y277241*
X086360*
Y292227*
G37*
G36*
X069342Y313055D02*
X056642D01*
Y307340*
X069342*
Y313055*
G37*
G36*
X167640Y298546D02*
Y295910D01*
X170276*
X169219Y297489*
X167640Y298546*
G37*
G36*
X170276Y290830D02*
X167640D01*
Y288193*
X169219Y289250*
X170276Y290830*
G37*
G36*
X162560Y298546D02*
X160980Y297489D01*
X159923Y295910*
X162560*
Y298546*
G37*
G36*
X186690Y396204D02*
X184398Y395902D01*
X182262Y395018*
X180428Y393611*
X179021Y391777*
X178137Y389641*
X177835Y387350*
X178137Y385058*
X179021Y382922*
X180428Y381088*
X182018Y379869*
X181729Y378632*
X181587Y378604*
X180159Y377649*
X154889Y352381*
X131866*
X131472Y352645*
X129540Y353029*
X127607Y352645*
X125968Y351551*
X124874Y349912*
X124490Y347980*
X124874Y346047*
X125968Y344408*
X127607Y343314*
X129540Y342930*
X131472Y343314*
X131866Y343578*
X156712*
X158399Y343913*
X159826Y344865*
X176712Y361751*
X177916Y361345*
X178137Y359658*
X179021Y357522*
X180428Y355688*
X182262Y354281*
X184398Y353397*
X186690Y353095*
X188981Y353397*
X191117Y354281*
X192951Y355688*
X194358Y357522*
X195242Y359658*
X195544Y361950*
X195242Y364241*
X194358Y366377*
X192951Y368211*
X192008Y368932*
X192417Y370136*
X199816*
X200378Y368995*
X199341Y367647*
X198457Y365511*
X198155Y363220*
X198457Y360928*
X199341Y358792*
X200748Y356958*
X202582Y355551*
X203641Y355112*
Y342869*
X203898Y341581*
X204307Y340972*
X203708Y339852*
X191389*
Y310896*
X207070*
Y287401*
X207327Y286113*
X208059Y285021*
X210980Y282100*
X212072Y281368*
X213360Y281114*
X213614*
Y276987*
X242570*
Y291973*
X213804*
Y297053*
X224942*
X225971Y296626*
X228092Y296346*
X256286*
X258406Y296626*
X260385Y297446*
X262082Y298749*
X265191Y301858*
X266047Y302211*
X267881Y303618*
X269288Y305452*
X269641Y306308*
X281386Y318053*
X282689Y319750*
X283509Y321729*
X283789Y323850*
Y335328*
X283898Y335592*
X284190Y337820*
X283898Y340047*
X283039Y342120*
X281673Y343903*
X279890Y345269*
X277817Y346128*
X275590Y346420*
X273364Y346128*
X271289Y345269*
X269506Y343903*
X268140Y342120*
X267281Y340047*
X266989Y337820*
X267281Y335592*
X267390Y335328*
Y327245*
X258046Y317901*
X257192Y317548*
X255358Y316141*
X253951Y314307*
X253598Y313453*
X252890Y312745*
X232493*
Y360964*
X232158Y362648*
X231206Y364075*
Y364078*
X217629Y377649*
X216202Y378604*
X214518Y378940*
X192125*
X191716Y380144*
X192951Y381088*
X194358Y382922*
X195242Y385058*
X195544Y387350*
X195242Y389641*
X194358Y391777*
X192951Y393611*
X191117Y395018*
X188981Y395902*
X186690Y396204*
G37*
G36*
X332740Y305267D02*
X330316Y304949D01*
X328061Y304015*
X326123Y302526*
X324634Y300588*
X323700Y298333*
X323382Y295910*
X323700Y293486*
X324634Y291231*
X326123Y289293*
X328061Y287804*
X330316Y286870*
X332740Y286552*
X335163Y286870*
X337418Y287804*
X339356Y289293*
X340845Y291231*
X341779Y293486*
X342097Y295910*
X341779Y298333*
X340845Y300588*
X339356Y302526*
X337418Y304015*
X335163Y304949*
X332740Y305267*
G37*
G36*
X162560Y290830D02*
X159923D01*
X160980Y289250*
X162560Y288193*
Y290830*
G37*
G36*
X069342Y302260D02*
X056642D01*
Y296545*
X069342*
Y302260*
G37*
G36*
X326390Y371812D02*
X323837Y371475D01*
X321459Y370492*
X319415Y368924*
X317847Y366880*
X316865Y364502*
X316527Y361950*
X316865Y359397*
X317847Y357019*
X319415Y354975*
X321459Y353407*
X323837Y352425*
X326390Y352087*
X328942Y352425*
X331320Y353407*
X333364Y354975*
X334932Y357019*
X335915Y359397*
X336252Y361950*
X335915Y364502*
X334932Y366880*
X333364Y368924*
X331320Y370492*
X328942Y371475*
X326390Y371812*
G37*
G36*
X087630Y372074D02*
X085338Y371772D01*
X083202Y370888*
X081368Y369481*
X079961Y367647*
X079077Y365511*
X078775Y363220*
X079077Y360928*
X079961Y358792*
X081368Y356958*
X083202Y355551*
X085338Y354667*
X087630Y354365*
X089921Y354667*
X092057Y355551*
X093891Y356958*
X095298Y358792*
X096182Y360928*
X096484Y363220*
X096182Y365511*
X095298Y367647*
X093891Y369481*
X092057Y370888*
X089921Y371772*
X087630Y372074*
G37*
G36*
X286131Y359410D02*
X278130D01*
Y351409*
X286131*
Y359410*
G37*
G36*
X300990Y371812D02*
X298437Y371475D01*
X296059Y370492*
X294015Y368924*
X292447Y366880*
X291465Y364502*
X291127Y361950*
X291465Y359397*
X292447Y357019*
X294015Y354975*
X296059Y353407*
X298437Y352425*
X300990Y352087*
X303542Y352425*
X305920Y353407*
X307964Y354975*
X309532Y357019*
X310515Y359397*
X310852Y361950*
X310515Y364502*
X309532Y366880*
X307964Y368924*
X305920Y370492*
X303542Y371475*
X300990Y371812*
G37*
G36*
X011430Y396204D02*
X009138Y395902D01*
X007002Y395018*
X005168Y393611*
X003761Y391777*
X002877Y389641*
X002575Y387350*
X002877Y385058*
X003761Y382922*
X005168Y381088*
X007002Y379681*
X009138Y378797*
X011430Y378495*
X013721Y378797*
X015857Y379681*
X017691Y381088*
X019098Y382922*
X019982Y385058*
X020284Y387350*
X019982Y389641*
X019098Y391777*
X017691Y393611*
X015857Y395018*
X013721Y395902*
X011430Y396204*
G37*
G36*
X087630D02*
X085338Y395902D01*
X083202Y395018*
X081368Y393611*
X079961Y391777*
X079077Y389641*
X078775Y387350*
X079077Y385058*
X079961Y382922*
X081368Y381088*
X083202Y379681*
X085338Y378797*
X087630Y378495*
X089921Y378797*
X092057Y379681*
X093891Y381088*
X095298Y382922*
X096182Y385058*
X096484Y387350*
X096182Y389641*
X095298Y391777*
X093891Y393611*
X092057Y395018*
X089921Y395902*
X087630Y396204*
G37*
G36*
X273050Y372491D02*
X265049D01*
Y364490*
X273050*
Y372491*
G37*
G36*
X286131D02*
X278130D01*
Y364490*
X286131*
Y372491*
G37*
G36*
X273050Y359410D02*
X265049D01*
Y351409*
X273050*
Y359410*
G37*
G36*
X247650Y335280D02*
X240898D01*
Y328528*
X247650*
Y335280*
G37*
G36*
X259478D02*
X252730D01*
Y328528*
X259478*
Y335280*
G37*
G36*
X342900Y327660D02*
X340263D01*
X341320Y326080*
X342900Y325023*
Y327660*
G37*
G36*
X350616D02*
X347980D01*
Y325023*
X349559Y326080*
X350616Y327660*
G37*
G36*
X247650Y347111D02*
X240898D01*
Y340360*
X247650*
Y347111*
G37*
G36*
X259478D02*
X252730D01*
Y340360*
X259478*
Y347111*
G37*
G36*
X342900Y335376D02*
X341320Y334319D01*
X340263Y332740*
X342900*
Y335376*
G37*
G36*
X347980D02*
Y332740D01*
X350616*
X349559Y334319*
X347980Y335376*
G37*
G36*
X335280Y280301D02*
Y273050D01*
X342531*
X342521Y273131*
X341510Y275572*
X339900Y277670*
X337802Y279280*
X335361Y280291*
X335280Y280301*
G37*
G36*
X351790Y162560D02*
X349153D01*
X350210Y160980*
X351790Y159923*
Y162560*
G37*
G36*
X313690Y163926D02*
X312110Y162869D01*
X311053Y161290*
X313690*
Y163926*
G37*
G36*
X279400Y156306D02*
X277820Y155249D01*
X276763Y153670*
X279400*
Y156306*
G37*
G36*
X284480D02*
Y153670D01*
X287116*
X286059Y155249*
X284480Y156306*
G37*
G36*
X190500Y175260D02*
X187863D01*
X188920Y173680*
X190500Y172623*
Y175260*
G37*
G36*
X198216D02*
X195580D01*
Y172623*
X197159Y173680*
X198216Y175260*
G37*
G36*
X318770Y163926D02*
Y161290D01*
X321406*
X320349Y162869*
X318770Y163926*
G37*
G36*
X351790Y170276D02*
X350210Y169219D01*
X349153Y167640*
X351790*
Y170276*
G37*
G36*
X040640Y094076D02*
X039060Y093019D01*
X038003Y091440*
X040640*
Y094076*
G37*
G36*
X045720D02*
Y091440D01*
X048356*
X047299Y093019*
X045720Y094076*
G37*
G36*
X040640Y086360D02*
X038003D01*
X039060Y084780*
X040640Y083723*
Y086360*
G37*
G36*
X048356D02*
X045720D01*
Y083723*
X047299Y084780*
X048356Y086360*
G37*
G36*
X313690Y156210D02*
X311053D01*
X312110Y154630*
X313690Y153573*
Y156210*
G37*
G36*
X321406D02*
X318770D01*
Y153573*
X320349Y154630*
X321406Y156210*
G37*
G36*
X279400Y148590D02*
X276763D01*
X277820Y147010*
X279400Y145953*
Y148590*
G37*
G36*
X287116D02*
X284480D01*
Y145953*
X286059Y147010*
X287116Y148590*
G37*
G36*
X190500Y182976D02*
X188920Y181919D01*
X187863Y180340*
X190500*
Y182976*
G37*
G36*
X342531Y267970D02*
X335280D01*
Y260718*
X335361Y260728*
X337802Y261739*
X339900Y263349*
X341510Y265447*
X342521Y267888*
X342531Y267970*
G37*
G36*
X097790Y264160D02*
X095153D01*
X096210Y262580*
X097790Y261523*
Y264160*
G37*
G36*
X086360Y272415D02*
X057404D01*
Y257429*
X086360*
Y272415*
G37*
G36*
X330200Y267970D02*
X322948D01*
X322958Y267888*
X323969Y265447*
X325579Y263349*
X327677Y261739*
X330118Y260728*
X330200Y260718*
Y267970*
G37*
G36*
X102870Y271876D02*
Y269240D01*
X105506*
X104449Y270819*
X102870Y271876*
G37*
G36*
X330200Y280301D02*
X330118Y280291D01*
X327677Y279280*
X325579Y277670*
X323969Y275572*
X322958Y273131*
X322948Y273050*
X330200*
Y280301*
G37*
G36*
X105506Y264160D02*
X102870D01*
Y261523*
X104449Y262580*
X105506Y264160*
G37*
G36*
X097790Y271876D02*
X096210Y270819D01*
X095153Y269240*
X097790*
Y271876*
G37*
G36*
X204470Y219679D02*
X202537Y219295D01*
X200898Y218201*
X200761Y217998*
X153670*
X152382Y217741*
X151290Y217009*
X122303Y188023*
X086614*
Y192151*
X057658*
Y177165*
X086614*
Y181289*
X123698*
X124985Y181546*
X126077Y182278*
X155064Y211264*
X200761*
X200898Y211058*
X202537Y209964*
X204470Y209580*
X206402Y209964*
X208041Y211058*
X209135Y212697*
X209519Y214630*
X209135Y216562*
X208041Y218201*
X206402Y219295*
X204470Y219679*
G37*
G36*
X124460Y217170D02*
X121823D01*
X122880Y215590*
X124460Y214533*
Y217170*
G37*
G36*
X195580Y182976D02*
Y180340D01*
X198216*
X197159Y181919*
X195580Y182976*
G37*
G36*
X086614Y212471D02*
X057658D01*
Y197485*
X086614*
Y212471*
G37*
G36*
X124460Y224886D02*
X122880Y223829D01*
X121823Y222250*
X124460*
Y224886*
G37*
G36*
X129540D02*
Y222250D01*
X132176*
X131119Y223829*
X129540Y224886*
G37*
G36*
X132176Y217170D02*
X129540D01*
Y214533*
X131119Y215590*
X132176Y217170*
G37*
G36*
X086614Y232283D02*
X057658D01*
Y217297*
X086614*
Y232283*
G37*
G36*
X019050Y495300D02*
X016413D01*
X017470Y493720*
X019050Y492663*
Y495300*
G37*
G36*
X026766D02*
X024130D01*
Y492663*
X025709Y493720*
X026766Y495300*
G37*
G36*
X278020Y516422D02*
X275727Y516122D01*
X273593Y515236*
X271759Y513829*
X270352Y511997*
X269468Y509861*
X269166Y507570*
Y485569*
X269468Y483278*
X270352Y481142*
X271759Y479310*
X273593Y477903*
X275727Y477017*
X278020Y476717*
X280311Y477017*
X282445Y477903*
X284281Y479310*
X285686Y481142*
X286572Y483278*
X286872Y485569*
Y507570*
X286572Y509861*
X285686Y511997*
X284281Y513829*
X282445Y515236*
X280311Y516122*
X278020Y516422*
G37*
G36*
X310619Y506049D02*
X308168Y505726D01*
X305879Y504779*
X303916Y503273*
X302409Y501309*
X301464Y499023*
X301139Y496570*
X301464Y494116*
X302409Y491830*
X303916Y489866*
X305879Y488360*
X308168Y487413*
X310619Y487090*
X313072Y487413*
X315358Y488360*
X317322Y489866*
X318828Y491830*
X319775Y494116*
X320098Y496570*
X319775Y499023*
X318828Y501309*
X317322Y503273*
X315358Y504779*
X313072Y505726*
X310619Y506049*
G37*
G36*
X333479Y516844D02*
X331208Y515904D01*
X329217Y514372*
X327687Y512381*
X326725Y510059*
X326397Y507570*
Y499110*
X333479*
Y516844*
G37*
G36*
X338559D02*
Y499110D01*
X345643*
Y507570*
X345315Y510059*
X344352Y512381*
X342823Y514372*
X340832Y515904*
X338559Y516844*
G37*
G36*
X114300Y495300D02*
X111663D01*
X112720Y493720*
X114300Y492663*
Y495300*
G37*
G36*
X122016D02*
X119380D01*
Y492663*
X120959Y493720*
X122016Y495300*
G37*
G36*
X345643Y494030D02*
X338559D01*
Y476295*
X340832Y477238*
X342823Y478767*
X344352Y480758*
X345315Y483080*
X345643Y485569*
Y494030*
G37*
G36*
X132080Y471246D02*
Y463489D01*
X139837*
X139809Y463702*
X138747Y466265*
X137058Y468467*
X134856Y470156*
X132290Y471218*
X132080Y471246*
G37*
G36*
X177800D02*
X177589Y471218D01*
X175023Y470156*
X172824Y468467*
X171132Y466265*
X170070Y463702*
X170042Y463489*
X177800*
Y471246*
G37*
G36*
X074930D02*
Y463489D01*
X082687*
X082659Y463702*
X081597Y466265*
X079908Y468467*
X077706Y470156*
X075140Y471218*
X074930Y471246*
G37*
G36*
X127000D02*
X126789Y471218D01*
X124223Y470156*
X122024Y468467*
X120332Y466265*
X119270Y463702*
X119242Y463489*
X127000*
Y471246*
G37*
G36*
X233680D02*
Y463489D01*
X241437*
X241409Y463702*
X240347Y466265*
X238655Y468467*
X236456Y470156*
X233890Y471218*
X233680Y471246*
G37*
G36*
X333479Y494030D02*
X326397D01*
Y485569*
X326725Y483080*
X327687Y480758*
X329217Y478767*
X331208Y477238*
X333479Y476295*
Y494030*
G37*
G36*
X182880Y471246D02*
Y463489D01*
X190637*
X190609Y463702*
X189547Y466265*
X187855Y468467*
X185656Y470156*
X183090Y471218*
X182880Y471246*
G37*
G36*
X228600D02*
X228389Y471218D01*
X225823Y470156*
X223624Y468467*
X221932Y466265*
X220870Y463702*
X220842Y463489*
X228600*
Y471246*
G37*
G36*
X250190Y502920D02*
X247553D01*
X248610Y501340*
X250190Y500283*
Y502920*
G37*
G36*
X057538Y549028D02*
X038981D01*
Y530471*
X057538*
Y549028*
G37*
G36*
X228988D02*
X210431D01*
Y530471*
X228988*
Y549028*
G37*
G36*
X168910Y549107D02*
X166486Y548789D01*
X164231Y547855*
X162293Y546366*
X160804Y544428*
X159870Y542173*
X159552Y539750*
X159870Y537326*
X160804Y535071*
X162293Y533133*
X164231Y531644*
X166486Y530710*
X168910Y530392*
X171333Y530710*
X173588Y531644*
X175526Y533133*
X177015Y535071*
X177949Y537326*
X178267Y539750*
X177949Y542173*
X177015Y544428*
X175526Y546366*
X173588Y547855*
X171333Y548789*
X168910Y549107*
G37*
G36*
X194310D02*
X191886Y548789D01*
X189631Y547855*
X187693Y546366*
X186204Y544428*
X185270Y542173*
X184952Y539750*
X185270Y537326*
X186204Y535071*
X187693Y533133*
X189631Y531644*
X191886Y530710*
X194310Y530392*
X196733Y530710*
X198988Y531644*
X200926Y533133*
X202415Y535071*
X203349Y537326*
X203667Y539750*
X203349Y542173*
X202415Y544428*
X200926Y546366*
X198988Y547855*
X196733Y548789*
X194310Y549107*
G37*
G36*
X305480Y554192D02*
X297019D01*
X294528Y553864*
X292209Y552902*
X290215Y551373*
X288686Y549381*
X287746Y547110*
X305480*
Y554192*
G37*
G36*
X319018D02*
X310560D01*
Y547110*
X328295*
X327352Y549381*
X325823Y551373*
X323832Y552902*
X321510Y553864*
X319018Y554192*
G37*
G36*
X305480Y542030D02*
X287746D01*
X288686Y539760*
X290215Y537766*
X292209Y536237*
X294528Y535274*
X297019Y534946*
X305480*
Y542030*
G37*
G36*
X328295D02*
X310560D01*
Y534946*
X319018*
X321510Y535274*
X323832Y536237*
X325823Y537766*
X327352Y539760*
X328295Y542030*
G37*
G36*
X143510Y549107D02*
X141086Y548789D01*
X138831Y547855*
X136893Y546366*
X135404Y544428*
X134470Y542173*
X134152Y539750*
X134470Y537326*
X135404Y535071*
X136893Y533133*
X138831Y531644*
X141086Y530710*
X143510Y530392*
X145933Y530710*
X148188Y531644*
X150126Y533133*
X151615Y535071*
X152549Y537326*
X152867Y539750*
X152549Y542173*
X151615Y544428*
X150126Y546366*
X148188Y547855*
X145933Y548789*
X143510Y549107*
G37*
G36*
X024130Y503016D02*
Y500380D01*
X026766*
X025709Y501959*
X024130Y503016*
G37*
G36*
X114300D02*
X112720Y501959D01*
X111663Y500380*
X114300*
Y503016*
G37*
G36*
X257906Y502920D02*
X255270D01*
Y500283*
X256849Y501340*
X257906Y502920*
G37*
G36*
X019050Y503016D02*
X017470Y501959D01*
X016413Y500380*
X019050*
Y503016*
G37*
G36*
X255270Y510636D02*
Y508000D01*
X257906*
X256849Y509579*
X255270Y510636*
G37*
G36*
X073660Y549107D02*
X071236Y548789D01*
X068981Y547855*
X067043Y546366*
X065554Y544428*
X064620Y542173*
X064302Y539750*
X064620Y537326*
X065554Y535071*
X067043Y533133*
X068981Y531644*
X071236Y530710*
X073660Y530392*
X076083Y530710*
X078338Y531644*
X080276Y533133*
X081765Y535071*
X082699Y537326*
X083017Y539750*
X082699Y542173*
X081765Y544428*
X080276Y546366*
X078338Y547855*
X076083Y548789*
X073660Y549107*
G37*
G36*
X119380Y503016D02*
Y500380D01*
X122016*
X120959Y501959*
X119380Y503016*
G37*
G36*
X250190Y510636D02*
X248610Y509579D01*
X247553Y508000*
X250190*
Y510636*
G37*
G36*
X069850Y471246D02*
X069639Y471218D01*
X067073Y470156*
X064874Y468467*
X063182Y466265*
X062120Y463702*
X062092Y463489*
X069850*
Y471246*
G37*
G36*
X313690Y432780D02*
X311464Y432488D01*
X309389Y431629*
X307606Y430263*
X306240Y428480*
X305381Y426407*
X305089Y424180*
X305381Y421952*
X306240Y419879*
X307606Y418096*
X309389Y416730*
X311464Y415871*
X313690Y415579*
X315915Y415871*
X317990Y416730*
X319773Y418096*
X321139Y419879*
X321998Y421952*
X322290Y424180*
X321998Y426407*
X321139Y428480*
X319773Y430263*
X317990Y431629*
X315915Y432488*
X313690Y432780*
G37*
G36*
X285750Y433471D02*
X279001D01*
Y426720*
X285750*
Y433471*
G37*
G36*
X348378Y421640D02*
X341630D01*
Y414888*
X348378*
Y421640*
G37*
G36*
X262890Y432780D02*
X260662Y432488D01*
X258589Y431629*
X256806Y430263*
X255440Y428480*
X254581Y426407*
X254287Y424180*
X254581Y421952*
X255440Y419879*
X256806Y418096*
X258589Y416730*
X260662Y415871*
X262890Y415579*
X265115Y415871*
X267190Y416730*
X268973Y418096*
X270339Y419879*
X271198Y421952*
X271490Y424180*
X271198Y426407*
X270339Y428480*
X268973Y430263*
X267190Y431629*
X265115Y432488*
X262890Y432780*
G37*
G36*
X348378Y433471D02*
X341630D01*
Y426720*
X348378*
Y433471*
G37*
G36*
X021590Y448012D02*
X019037Y447677D01*
X016659Y446692*
X014615Y445124*
X013047Y443080*
X012065Y440702*
X011727Y438150*
X012065Y435597*
X013047Y433219*
X014615Y431175*
X016659Y429607*
X019037Y428622*
X021590Y428287*
X024142Y428622*
X026520Y429607*
X028564Y431175*
X030132Y433219*
X031117Y435597*
X031452Y438150*
X031117Y440702*
X030132Y443080*
X028564Y445124*
X026520Y446692*
X024142Y447677*
X021590Y448012*
G37*
G36*
X297578Y433471D02*
X290830D01*
Y426720*
X297578*
Y433471*
G37*
G36*
X336550D02*
X329798D01*
Y426720*
X336550*
Y433471*
G37*
G36*
Y421640D02*
X329798D01*
Y414888*
X336550*
Y421640*
G37*
G36*
X082169Y425127D02*
X062611D01*
Y405571*
X082169*
Y425127*
G37*
G36*
X139319D02*
X119761D01*
Y405571*
X139319*
Y425127*
G37*
G36*
X110490Y396204D02*
X108198Y395902D01*
X106062Y395018*
X104228Y393611*
X102821Y391777*
X101937Y389641*
X101635Y387350*
X101937Y385058*
X102821Y382922*
X104228Y381088*
X106062Y379681*
X108198Y378797*
X110490Y378495*
X112781Y378797*
X114917Y379681*
X116751Y381088*
X118158Y382922*
X119042Y385058*
X119344Y387350*
X119042Y389641*
X118158Y391777*
X116751Y393611*
X114917Y395018*
X112781Y395902*
X110490Y396204*
G37*
G36*
X031369Y425127D02*
X011811D01*
Y405571*
X031369*
Y425127*
G37*
G36*
X285750Y421640D02*
X279001D01*
Y414888*
X285750*
Y421640*
G37*
G36*
X297578D02*
X290830D01*
Y414888*
X297578*
Y421640*
G37*
G36*
X190119Y425127D02*
X170561D01*
Y405571*
X190119*
Y425127*
G37*
G36*
X240919D02*
X221361D01*
Y405571*
X240919*
Y425127*
G37*
G36*
X072390Y448012D02*
X069837Y447677D01*
X067459Y446692*
X065415Y445124*
X063847Y443080*
X062862Y440702*
X062527Y438150*
X062862Y435597*
X063847Y433219*
X065415Y431175*
X067459Y429607*
X069837Y428622*
X072390Y428287*
X074942Y428622*
X077320Y429607*
X079364Y431175*
X080932Y433219*
X081915Y435597*
X082252Y438150*
X081915Y440702*
X080932Y443080*
X079364Y445124*
X077320Y446692*
X074942Y447677*
X072390Y448012*
G37*
G36*
X177800Y458409D02*
X170042D01*
X170070Y458198*
X171132Y455635*
X172824Y453433*
X175023Y451744*
X177589Y450682*
X177800Y450654*
Y458409*
G37*
G36*
X190637D02*
X182880D01*
Y450654*
X183090Y450682*
X185656Y451744*
X187855Y453433*
X189547Y455635*
X190609Y458198*
X190637Y458409*
G37*
G36*
X127000D02*
X119242D01*
X119270Y458198*
X120332Y455635*
X122024Y453433*
X124223Y451744*
X126789Y450682*
X127000Y450654*
Y458409*
G37*
G36*
X139837D02*
X132080D01*
Y450654*
X132290Y450682*
X134856Y451744*
X137058Y453433*
X138747Y455635*
X139809Y458198*
X139837Y458409*
G37*
G36*
X019050Y471246D02*
X018839Y471218D01*
X016273Y470156*
X014071Y468467*
X012382Y466265*
X011320Y463702*
X011292Y463489*
X019050*
Y471246*
G37*
G36*
X024130D02*
Y463489D01*
X031887*
X031859Y463702*
X030797Y466265*
X029108Y468467*
X026906Y470156*
X024340Y471218*
X024130Y471246*
G37*
G36*
X228600Y458409D02*
X220842D01*
X220870Y458198*
X221932Y455635*
X223624Y453433*
X225823Y451744*
X228389Y450682*
X228600Y450654*
Y458409*
G37*
G36*
X241437D02*
X233680D01*
Y450654*
X233890Y450682*
X236456Y451744*
X238655Y453433*
X240347Y455635*
X241409Y458198*
X241437Y458409*
G37*
G36*
X082687D02*
X074930D01*
Y450654*
X075140Y450682*
X077706Y451744*
X079908Y453433*
X081597Y455635*
X082659Y458198*
X082687Y458409*
G37*
G36*
X231140Y448012D02*
X228587Y447677D01*
X226209Y446692*
X224165Y445124*
X222597Y443080*
X221612Y440702*
X221277Y438150*
X221612Y435597*
X222597Y433219*
X224165Y431175*
X226209Y429607*
X228587Y428622*
X231140Y428287*
X233692Y428622*
X236070Y429607*
X238114Y431175*
X239682Y433219*
X240665Y435597*
X241002Y438150*
X240665Y440702*
X239682Y443080*
X238114Y445124*
X236070Y446692*
X233692Y447677*
X231140Y448012*
G37*
G36*
X180340D02*
X177787Y447677D01*
X175409Y446692*
X173365Y445124*
X171797Y443080*
X170815Y440702*
X170477Y438150*
X170815Y435597*
X171797Y433219*
X173365Y431175*
X175409Y429607*
X177787Y428622*
X180340Y428287*
X182892Y428622*
X185270Y429607*
X187314Y431175*
X188882Y433219*
X189867Y435597*
X190202Y438150*
X189867Y440702*
X188882Y443080*
X187314Y445124*
X185270Y446692*
X182892Y447677*
X180340Y448012*
G37*
G36*
X129540D02*
X126987Y447677D01*
X124609Y446692*
X122565Y445124*
X120997Y443080*
X120012Y440702*
X119677Y438150*
X120012Y435597*
X120997Y433219*
X122565Y431175*
X124609Y429607*
X126987Y428622*
X129540Y428287*
X132092Y428622*
X134470Y429607*
X136514Y431175*
X138082Y433219*
X139067Y435597*
X139402Y438150*
X139067Y440702*
X138082Y443080*
X136514Y445124*
X134470Y446692*
X132092Y447677*
X129540Y448012*
G37*
G36*
X207010Y448274D02*
X204718Y447972D01*
X202582Y447088*
X200748Y445681*
X199341Y443847*
X198457Y441711*
X198155Y439420*
X198457Y437128*
X199341Y434992*
X200748Y433158*
X202582Y431751*
X204718Y430867*
X207010Y430565*
X209301Y430867*
X211437Y431751*
X213271Y433158*
X214678Y434992*
X215562Y437128*
X215864Y439420*
X215562Y441711*
X214678Y443847*
X213271Y445681*
X211437Y447088*
X209301Y447972*
X207010Y448274*
G37*
G36*
X069850Y458409D02*
X062092D01*
X062120Y458198*
X063182Y455635*
X064874Y453433*
X067073Y451744*
X069639Y450682*
X069850Y450654*
Y458409*
G37*
G36*
X031887D02*
X024130D01*
Y450654*
X024340Y450682*
X026906Y451744*
X029108Y453433*
X030797Y455635*
X031859Y458198*
X031887Y458409*
G37*
G36*
X019050D02*
X011292D01*
X011320Y458198*
X012382Y455635*
X014071Y453433*
X016273Y451744*
X018839Y450682*
X019050Y450654*
Y458409*
G37*
%LNesp8266_amp_tht-3*%
%LPD*%
G36*
X223690Y359140D02*
Y312039D01*
X213804*
Y339443*
X213550Y340730*
X212818Y341823*
X210375Y344266*
Y355112*
X211437Y355551*
X213271Y356958*
X214678Y358792*
X215562Y360928*
X215864Y363220*
X215562Y365511*
X216804Y366026*
X223690Y359140*
G37*
G54D11*
X071882Y304800D02*
Y363479D01*
X082941Y374538*
X270510Y400050D02*
X283210D01*
X300990Y382270*
X245110Y342900D02*
X250190Y337820D01*
X300990Y302260D02*
X332740Y270510D01*
X245110Y342900D02*
Y374650D01*
X270510Y400050*
X129540Y347980D02*
X156712D01*
X183271Y374538*
X214518*
X228092Y360964*
Y304546D02*
Y360964D01*
X082941Y374538D02*
X148478D01*
X172720Y398780*
X220980*
X245110Y374650*
G54D12*
X213360Y013970D02*
X260350Y060960D01*
X143510Y013970D02*
X213360D01*
X260350Y060960D02*
Y129540D01*
X207010Y342869D02*
Y363220D01*
Y342869D02*
X210439Y339443D01*
Y287401D02*
Y339443D01*
Y287401D02*
X213360Y284480D01*
X228092*
X232664Y204724D02*
X261620Y233680D01*
X228092Y204724D02*
X232664D01*
X250921Y245110D02*
X332740D01*
X242158Y253873D02*
X250921Y245110D01*
X214025Y253873D02*
X242158D01*
X205008Y244856D02*
X214025Y253873D01*
X043180Y245110D02*
X043434Y244856D01*
X072136*
X205008*
X153670Y214630D02*
X204470D01*
X123698Y184658D02*
X153670Y214630D01*
X072136Y184658D02*
X123698D01*
X156210Y194310D02*
X332740D01*
X126746Y164846D02*
X156210Y194310D01*
X072136Y164846D02*
X126746D01*
X134112Y264668D02*
X228092D01*
X087884Y310896D02*
X134112Y264668D01*
X087884Y310896D02*
Y312138D01*
X087630Y312389D02*
X087884Y312138D01*
X087630Y312389D02*
Y339090D01*
X110490Y361950*
X299720Y232410D02*
X302260Y229870D01*
Y207010D02*
Y229870D01*
X332740Y234985D02*
Y245110D01*
Y234985D02*
X343542Y224182D01*
Y080652D02*
Y224182D01*
X303530Y040640D02*
X343542Y080652D01*
X269240Y040640D02*
X303530D01*
X031750Y161290D02*
X043180Y149860D01*
X031750Y161290D02*
Y309880D01*
X043180Y321310*
X010017Y361807D02*
X011430Y363220D01*
X010017Y233822D02*
Y361807D01*
Y233822D02*
X017780Y226060D01*
X302402Y238887D02*
X302529Y238760D01*
X260350Y205740D02*
X293497Y238887D01*
X302402*
X302529Y238760D02*
X308610D01*
X309880Y237490*
G54D13*
X228092Y304546D02*
X256286D01*
X261620Y309880*
X275590Y323850*
Y337820*
X336019Y496570D02*
Y516569D01*
X308020Y544570D02*
X336019Y516569D01*
X129540Y460949D02*
X180340D01*
X231140*
X326329*
X336019Y470639*
Y496570*
X072390Y460949D02*
X129540D01*
X021590D02*
X072390D01*
X336019Y470639D02*
X339090Y467570D01*
Y424180D02*
Y467570D01*
Y422465D02*
Y424180D01*
X300990Y384365D02*
X339090Y422465D01*
X300990Y384365D02*
Y411480D01*
X288290Y424180D02*
X300990Y411480D01*
G54D16*
X326390Y361950D03*
X300990D03*
X072390Y460949D03*
Y438150D03*
X021590Y460949D03*
Y438150D03*
X231140Y460949D03*
Y438150D03*
X180340Y460949D03*
Y438150D03*
X129540Y460949D03*
Y438150D03*
G54D17*
X275590Y361950D03*
G54D18*
X083820Y059690D03*
X295910Y016510D03*
X048260Y539750D03*
X219710D03*
G54D19*
X143510Y059690D03*
X083820Y013970D03*
X143510D03*
X236220Y016510D03*
X295910Y062230D03*
X236220D03*
X073660Y539750D03*
X194310D03*
X168910D03*
X143510D03*
X332740Y219710D03*
Y245110D03*
Y270510D03*
Y295910D03*
G54D20*
X336019Y496570D03*
X278020D03*
G54D21*
X308020Y544570D03*
G54D22*
X275590Y337820D03*
X262890Y424180D03*
X313690D03*
G54D23*
X250190Y337820D03*
X288290Y424180D03*
X339090D03*
G54D24*
X072390Y415350D03*
X021590D03*
X231140D03*
X180340D03*
X129540D03*
G54D25*
X110490Y361950D03*
X186690D03*
X110490Y387350D03*
X186690D03*
X011430Y363220D03*
X087630D03*
X011430Y387350D03*
X087630D03*
X207010Y363220D03*
Y439420D03*
X260350Y205740D03*
Y129540D03*
X043180Y245110D03*
Y321310D03*
Y226060D03*
Y149860D03*
X020320Y245110D03*
Y321310D03*
X261620Y309880D03*
Y233680D03*
G54D26*
X332740Y194310D03*
G54D27*
X228092Y284480D03*
X071882Y304800D03*
X228092Y164846D03*
Y184658D03*
Y204724D03*
Y224536D03*
Y244856D03*
Y264668D03*
Y304546D03*
X071882Y284734D03*
Y264922D03*
X072136Y244856D03*
Y224790D03*
Y204978D03*
Y184658D03*
Y164846D03*
G54D28*
X200152Y325374D03*
X180340D03*
X160528D03*
X140208D03*
X120396D03*
X100076D03*
G54D29*
X310619Y496570D03*
G54D30*
X204470Y214630D03*
X299720Y232410D03*
X302260Y207010D03*
X269240Y040640D03*
X017780Y226060D03*
X129540Y347980D03*
X127000Y219710D03*
X043180Y088900D03*
X252730Y505460D03*
X116840Y497840D03*
X345440Y330200D03*
X021590Y497840D03*
X165100Y293370D03*
X193040Y177800D03*
X309880Y237490D03*
X316230Y158750D03*
X354330Y165100D03*
X281940Y151130D03*
X100330Y266700D03*
M02*