%FSDAX24Y24*%
%MOMM*%
%SFA1B1*%

%IPPOS*%
%ADD10C,1.999996*%
%ADD11C,0.508000*%
%ADD12C,0.304800*%
%ADD13C,1.270000*%
%ADD14C,0.635000*%
%ADD15C,0.750062*%
%ADD16C,1.599946*%
%ADD17R,1.599946X1.599946*%
%ADD18R,1.500124X1.500124*%
%ADD19C,1.500124*%
%ADD20O,1.400048X3.599942*%
%ADD21O,3.599942X1.400048*%
%ADD22C,1.350010*%
%ADD23R,1.350010X1.350010*%
%ADD24R,1.599946X1.599946*%
%ADD25C,1.400048*%
%ADD26R,1.500124X1.500124*%
%ADD27R,2.540000X1.143000*%
%ADD28R,1.397000X2.540000*%
%ADD29C,1.524000*%
%ADD30C,0.635000*%
%LNesp8266_amp_tht-1*%
%LPD*%
G36*
X359410Y556526D02*
Y169926D01*
X358289Y169326*
X356870Y170276*
Y165100*
Y159923*
X358289Y160873*
X359410Y160274*
Y080010*
X231140*
Y157353*
X242570*
Y158678*
X243743Y159166*
X245554Y157355*
Y140970*
X245808Y139682*
X246540Y138590*
X252237Y132892*
X251797Y131831*
X251495Y129540*
X251797Y127248*
X252681Y125112*
X254088Y123278*
X255922Y121871*
X258058Y120987*
X260350Y120685*
X262641Y120987*
X264777Y121871*
X266611Y123278*
X268018Y125112*
X268902Y127248*
X269204Y129540*
X268902Y131831*
X268018Y133967*
X266611Y135801*
X264777Y137208*
X262641Y138092*
X260350Y138394*
X258058Y138092*
X256997Y137652*
X252288Y142364*
Y158750*
X252031Y160037*
X251299Y161129*
X245203Y167225*
X244111Y167957*
X242824Y168211*
X242570*
Y172339*
X213614*
Y157480*
X086614*
Y172339*
X057658*
Y157353*
X068580*
Y080010*
X003810*
X001270Y085011*
Y557530*
X358792*
X359410Y556526*
G37*
%LNesp8266_amp_tht-2*%
%LPC*%
G36*
X330200Y280301D02*
X330118Y280291D01*
X327677Y279280*
X325579Y277670*
X323969Y275572*
X322958Y273131*
X322948Y273050*
X330200*
Y280301*
G37*
G36*
X102870Y271876D02*
Y269240D01*
X105506*
X104449Y270819*
X102870Y271876*
G37*
G36*
X097790D02*
X096210Y270819D01*
X095153Y269240*
X097790*
Y271876*
G37*
G36*
X162560Y290830D02*
X159923D01*
X160980Y289250*
X162560Y288193*
Y290830*
G37*
G36*
X242570Y291973D02*
X213614D01*
Y276987*
X242570*
Y291973*
G37*
G36*
X335280Y280301D02*
Y273050D01*
X342531*
X342521Y273131*
X341510Y275572*
X339900Y277670*
X337802Y279280*
X335361Y280291*
X335280Y280301*
G37*
G36*
X105506Y264160D02*
X102870D01*
Y261523*
X104449Y262580*
X105506Y264160*
G37*
G36*
X110490Y396204D02*
X108198Y395902D01*
X106062Y395018*
X104228Y393611*
X102821Y391777*
X101937Y389641*
X101635Y387350*
X101937Y385058*
X102821Y382922*
X104228Y381088*
X106062Y379681*
X108198Y378797*
X110490Y378495*
X112781Y378797*
X113842Y379237*
X150020Y343060*
X151112Y342328*
X152400Y342074*
X214505*
X244284Y312295*
Y250692*
X243227Y249989*
X242570Y250261*
Y252349*
X213614*
Y237363*
X238561*
X239049Y236189*
X234886Y232029*
X213614*
Y218887*
X207015*
X206402Y219295*
X204470Y219679*
X202537Y219295*
X200898Y218201*
X199804Y216562*
X199420Y214630*
X199804Y212697*
X200898Y211058*
X202537Y209964*
X204470Y209580*
X206402Y209964*
X208041Y211058*
X208770Y212153*
X213614*
Y197231*
X242570*
Y212217*
X242567Y212232*
X243448Y212407*
X244541Y213139*
X247743Y216344*
X324091*
X324634Y215031*
X326123Y213093*
X328061Y211604*
X330316Y210670*
X332740Y210352*
X335163Y210670*
X337418Y211604*
X339356Y213093*
X340845Y215031*
X341779Y217286*
X342097Y219710*
X341779Y222133*
X340845Y224388*
X339356Y226326*
X337418Y227815*
X335163Y228749*
X332740Y229067*
X330316Y228749*
X328061Y227815*
X326123Y226326*
X324634Y224388*
X324091Y223078*
X246349*
X245061Y222821*
X243969Y222089*
X243743Y221863*
X242570Y222349*
Y230190*
X257934Y245554*
X281815*
X294718Y232651*
X294670Y232410*
X295054Y230477*
X296148Y228838*
X297787Y227744*
X299720Y227360*
X301652Y227744*
X303291Y228838*
X304385Y230477*
X304769Y232410*
X304385Y234342*
X303291Y235981*
X301652Y237075*
X299720Y237459*
X299478Y237411*
X285589Y251299*
X284497Y252031*
X283210Y252288*
X256540*
X255252Y252031*
X254160Y251299*
X252188Y249331*
X251018Y249816*
Y313690*
X250761Y314977*
X250029Y316069*
X218279Y347819*
X217187Y348551*
X215900Y348808*
X153794*
X118602Y383997*
X119042Y385058*
X119344Y387350*
X119042Y389641*
X118158Y391777*
X116751Y393611*
X114917Y395018*
X112781Y395902*
X110490Y396204*
G37*
G36*
X086614Y252349D02*
X057658D01*
Y237363*
X086614*
Y252349*
G37*
G36*
X332740Y254467D02*
X330316Y254149D01*
X328061Y253215*
X326123Y251726*
X324634Y249788*
X323700Y247533*
X323382Y245110*
X323700Y242686*
X324634Y240431*
X326123Y238493*
X328061Y237004*
X330316Y236070*
X332740Y235752*
X335163Y236070*
X337418Y237004*
X339356Y238493*
X340845Y240431*
X341779Y242686*
X342097Y245110*
X341779Y247533*
X340845Y249788*
X339356Y251726*
X337418Y253215*
X335163Y254149*
X332740Y254467*
G37*
G36*
X242570Y272161D02*
X213614D01*
Y257175*
X242570*
Y272161*
G37*
G36*
X097790Y264160D02*
X095153D01*
X096210Y262580*
X097790Y261523*
Y264160*
G37*
G36*
X342531Y267970D02*
X335280D01*
Y260718*
X335361Y260728*
X337802Y261739*
X339900Y263349*
X341510Y265447*
X342521Y267888*
X342531Y267970*
G37*
G36*
X330200D02*
X322948D01*
X322958Y267888*
X323969Y265447*
X325579Y263349*
X327677Y261739*
X330118Y260728*
X330200Y260718*
Y267970*
G37*
G36*
X170276Y290830D02*
X167640D01*
Y288193*
X169219Y289250*
X170276Y290830*
G37*
G36*
X169291Y339852D02*
X151765D01*
Y310896*
X169291*
Y339852*
G37*
G36*
X148971D02*
X131445D01*
Y310896*
X148971*
Y339852*
G37*
G36*
X129159D02*
X111633D01*
Y310896*
X129159*
Y339852*
G37*
G36*
X189103D02*
X171577D01*
Y310896*
X189103*
Y339852*
G37*
G36*
X029593Y318770D02*
X022860D01*
Y312036*
X025130Y312976*
X027124Y314505*
X028653Y316499*
X029593Y318770*
G37*
G36*
X011430Y396204D02*
X009138Y395902D01*
X007002Y395018*
X005168Y393611*
X003761Y391777*
X002877Y389641*
X002575Y387350*
X002877Y385058*
X003761Y382922*
X005168Y381088*
X007002Y379681*
X009138Y378797*
X011430Y378495*
X012801Y378675*
X022034Y369445*
Y342353*
X007637Y327957*
X006906Y326864*
X006652Y325577*
Y221122*
X006906Y219834*
X007637Y218742*
X023782Y202598*
X024874Y201866*
X026162Y201609*
X057658*
Y197485*
X086614*
Y212471*
X057658*
Y208343*
X048244*
X047876Y209560*
X048099Y209710*
X056484Y218094*
X057658Y217606*
Y217297*
X086614*
Y232283*
X057658*
Y228005*
X057132Y227901*
X056040Y227169*
X052992Y224121*
X051851Y224685*
X052034Y226060*
X051732Y228351*
X050848Y230487*
X049441Y232321*
X047607Y233728*
X045471Y234612*
X044267Y234769*
X043596Y235849*
X043759Y236331*
X045471Y236557*
X047607Y237441*
X049441Y238848*
X050848Y240682*
X051732Y242818*
X052034Y245110*
X051732Y247401*
X050848Y249537*
X049441Y251371*
X047607Y252778*
X045471Y253662*
X043759Y253888*
X043352Y255089*
X049817Y261553*
X057404*
Y257429*
X086360*
Y272415*
X057404*
Y268287*
X049918*
X049433Y269460*
X057269Y277296*
X057404Y277241*
X086360*
Y292227*
X057404*
Y286956*
X023672Y253222*
X022611Y253662*
X020320Y253964*
X018028Y253662*
X015892Y252778*
X014523Y251726*
X013385Y252288*
Y313171*
X014523Y313733*
X015509Y312976*
X017780Y312036*
Y321310*
X020320*
Y323850*
X029593*
X028653Y326120*
X027124Y328114*
X025130Y329643*
X022809Y330603*
X021579Y330766*
X021170Y331967*
X027779Y338579*
X028511Y339671*
X028768Y340959*
Y370840*
X028511Y372127*
X027779Y373219*
X018653Y382346*
X019098Y382922*
X019982Y385058*
X020284Y387350*
X019982Y389641*
X019098Y391777*
X017691Y393611*
X015857Y395018*
X013721Y395902*
X011430Y396204*
G37*
G36*
X208915Y339852D02*
X191389D01*
Y310896*
X208915*
Y339852*
G37*
G36*
X108839D02*
X091313D01*
Y310896*
X108839*
Y339852*
G37*
G36*
X069342Y302260D02*
X056642D01*
Y296545*
X069342*
Y302260*
G37*
G36*
X167640Y298546D02*
Y295910D01*
X170276*
X169219Y297489*
X167640Y298546*
G37*
G36*
X162560D02*
X160980Y297489D01*
X159923Y295910*
X162560*
Y298546*
G37*
G36*
X087122Y302260D02*
X074422D01*
Y296545*
X087122*
Y302260*
G37*
G36*
Y313055D02*
X074422D01*
Y307340*
X087122*
Y313055*
G37*
G36*
X069342D02*
X056642D01*
Y307340*
X069342*
Y313055*
G37*
G36*
X242570Y312039D02*
X213614D01*
Y297053*
X242570*
Y312039*
G37*
G36*
X279400Y156306D02*
X277820Y155249D01*
X276763Y153670*
X279400*
Y156306*
G37*
G36*
X321406Y156210D02*
X318770D01*
Y153573*
X320349Y154630*
X321406Y156210*
G37*
G36*
X313690D02*
X311053D01*
X312110Y154630*
X313690Y153573*
Y156210*
G37*
G36*
X284480Y156306D02*
Y153670D01*
X287116*
X286059Y155249*
X284480Y156306*
G37*
G36*
X318770Y163926D02*
Y161290D01*
X321406*
X320349Y162869*
X318770Y163926*
G37*
G36*
X313690D02*
X312110Y162869D01*
X311053Y161290*
X313690*
Y163926*
G37*
G36*
X351790Y162560D02*
X349153D01*
X350210Y160980*
X351790Y159923*
Y162560*
G37*
G36*
X287116Y148590D02*
X284480D01*
Y145953*
X286059Y147010*
X287116Y148590*
G37*
G36*
X040640Y094076D02*
X039060Y093019D01*
X038003Y091440*
X040640*
Y094076*
G37*
G36*
X048356Y086360D02*
X045720D01*
Y083723*
X047299Y084780*
X048356Y086360*
G37*
G36*
X040640D02*
X038003D01*
X039060Y084780*
X040640Y083723*
Y086360*
G37*
G36*
X045720Y094076D02*
Y091440D01*
X048356*
X047299Y093019*
X045720Y094076*
G37*
G36*
X279400Y148590D02*
X276763D01*
X277820Y147010*
X279400Y145953*
Y148590*
G37*
G36*
X043180Y158714D02*
X040888Y158412D01*
X038752Y157528*
X036918Y156121*
X035511Y154287*
X034627Y152151*
X034325Y149860*
X034627Y147568*
X035511Y145432*
X036918Y143598*
X038752Y142191*
X040888Y141307*
X043180Y141005*
X045471Y141307*
X047607Y142191*
X049441Y143598*
X050848Y145432*
X051732Y147568*
X052034Y149860*
X051732Y152151*
X050848Y154287*
X049441Y156121*
X047607Y157528*
X045471Y158412*
X043180Y158714*
G37*
G36*
X302260Y212059D02*
X300327Y211675D01*
X298688Y210581*
X297594Y208942*
X297210Y207010*
X297594Y205077*
X298688Y203438*
X298894Y203301*
Y121843*
X296321Y120777*
X293860Y118889*
X291973Y116428*
X290784Y113563*
X290380Y110490*
X290784Y107416*
X291973Y104551*
X293860Y102090*
X296321Y100203*
X299184Y099014*
X302260Y098610*
X305335Y099014*
X308198Y100203*
X310659Y102090*
X312547Y104551*
X313735Y107416*
X314139Y110490*
X313735Y113563*
X312547Y116428*
X310659Y118889*
X308198Y120777*
X305628Y121843*
Y203301*
X305831Y203438*
X306925Y205077*
X307309Y207010*
X306925Y208942*
X305831Y210581*
X304192Y211675*
X302260Y212059*
G37*
G36*
X132176Y217170D02*
X129540D01*
Y214533*
X131119Y215590*
X132176Y217170*
G37*
G36*
X124460D02*
X121823D01*
X122880Y215590*
X124460Y214533*
Y217170*
G37*
G36*
X260350Y214594D02*
X258058Y214292D01*
X255922Y213408*
X254088Y212001*
X252681Y210167*
X251797Y208031*
X251495Y205740*
X251797Y203448*
X252681Y201312*
X254088Y199478*
X255922Y198071*
X258058Y197187*
X260350Y196885*
X262641Y197187*
X264777Y198071*
X266611Y199478*
X268018Y201312*
X268902Y203448*
X269204Y205740*
X268902Y208031*
X268018Y210167*
X266611Y212001*
X264777Y213408*
X262641Y214292*
X260350Y214594*
G37*
G36*
X124460Y224886D02*
X122880Y223829D01*
X121823Y222250*
X124460*
Y224886*
G37*
G36*
X261620Y318734D02*
X259328Y318432D01*
X257192Y317548*
X255358Y316141*
X253951Y314307*
X253067Y312171*
X252765Y309880*
X253067Y307588*
X253951Y305452*
X255358Y303618*
X257192Y302211*
X259328Y301327*
X261620Y301025*
X263911Y301327*
X263936Y301337*
X305478Y259796*
Y239816*
X305214Y239422*
X304830Y237490*
X305214Y235557*
X306308Y233918*
X307947Y232824*
X309880Y232440*
X311812Y232824*
X313451Y233918*
X314545Y235557*
X314929Y237490*
X314545Y239422*
X314281Y239816*
Y261620*
X313946Y263304*
X312994Y264734*
X270162Y307563*
X270172Y307588*
X270474Y309880*
X270172Y312171*
X269288Y314307*
X267881Y316141*
X266047Y317548*
X263911Y318432*
X261620Y318734*
G37*
G36*
Y242534D02*
X259328Y242232D01*
X257192Y241348*
X255358Y239941*
X253951Y238107*
X253067Y235971*
X252765Y233680*
X253067Y231388*
X253951Y229252*
X255358Y227418*
X257192Y226011*
X259328Y225127*
X261620Y224825*
X263911Y225127*
X266047Y226011*
X267881Y227418*
X269288Y229252*
X270172Y231388*
X270474Y233680*
X270172Y235971*
X269288Y238107*
X267881Y239941*
X266047Y241348*
X263911Y242232*
X261620Y242534*
G37*
G36*
X129540Y224886D02*
Y222250D01*
X132176*
X131119Y223829*
X129540Y224886*
G37*
G36*
X342018Y203588D02*
X323461D01*
Y185031*
X342018*
Y203588*
G37*
G36*
X198216Y175260D02*
X195580D01*
Y172623*
X197159Y173680*
X198216Y175260*
G37*
G36*
X190500D02*
X187863D01*
X188920Y173680*
X190500Y172623*
Y175260*
G37*
G36*
X351790Y170276D02*
X350210Y169219D01*
X349153Y167640*
X351790*
Y170276*
G37*
G36*
X086614Y192151D02*
X057658D01*
Y177165*
X086614*
Y192151*
G37*
G36*
X195580Y182976D02*
Y180340D01*
X198216*
X197159Y181919*
X195580Y182976*
G37*
G36*
X190500D02*
X188920Y181919D01*
X187863Y180340*
X190500*
Y182976*
G37*
G36*
X242570Y192151D02*
X213614D01*
Y177165*
X242570*
Y192151*
G37*
G36*
X342900Y327660D02*
X340263D01*
X341320Y326080*
X342900Y325023*
Y327660*
G37*
G36*
X345643Y494030D02*
X338559D01*
Y476295*
X340832Y477238*
X342823Y478767*
X344352Y480758*
X345315Y483080*
X345643Y485569*
Y494030*
G37*
G36*
X333479D02*
X326397D01*
Y485569*
X326725Y483080*
X327687Y480758*
X329217Y478767*
X331208Y477238*
X333479Y476295*
Y494030*
G37*
G36*
X143510Y549107D02*
X141086Y548789D01*
X138831Y547855*
X136893Y546366*
X135404Y544428*
X134470Y542173*
X134152Y539750*
X134470Y537326*
X135404Y535071*
X136893Y533133*
X137873Y532378*
Y469277*
X136735Y468713*
X134856Y470156*
X132290Y471218*
X132080Y471246*
Y460949*
Y450654*
X132290Y450682*
X132372Y450715*
X133078Y449658*
X131211Y447791*
X129540Y448012*
X126987Y447677*
X124609Y446692*
X122565Y445124*
X120997Y443080*
X120012Y440702*
X119677Y438150*
X120012Y435597*
X120997Y433219*
X122565Y431175*
X124609Y429607*
X126987Y428622*
X129540Y428287*
X132092Y428622*
X134470Y429607*
X136514Y431175*
X138082Y433219*
X139067Y435597*
X139402Y438150*
X139181Y439821*
X147495Y448134*
X148717Y449963*
X149146Y452120*
Y532378*
X150126Y533133*
X151615Y535071*
X152549Y537326*
X152867Y539750*
X152549Y542173*
X151615Y544428*
X150126Y546366*
X148188Y547855*
X145933Y548789*
X143510Y549107*
G37*
G36*
X194310D02*
X191886Y548789D01*
X189631Y547855*
X187693Y546366*
X186204Y544428*
X185270Y542173*
X184952Y539750*
X185270Y537326*
X186204Y535071*
X187693Y533133*
X188673Y532378*
Y499475*
X189031Y497677*
X189103Y497319*
X190324Y495490*
X197510Y488307*
Y483951*
X196336Y483463*
X174546Y505254*
Y532378*
X175526Y533133*
X177015Y535071*
X177949Y537326*
X178267Y539750*
X177949Y542173*
X177015Y544428*
X175526Y546366*
X173588Y547855*
X171333Y548789*
X168910Y549107*
X166486Y548789*
X164231Y547855*
X162293Y546366*
X160804Y544428*
X159870Y542173*
X159552Y539750*
X159870Y537326*
X160804Y535071*
X162293Y533133*
X163273Y532378*
Y502920*
X163631Y501121*
X163703Y500763*
X164924Y498934*
X188231Y475627*
Y469615*
X187093Y469054*
X185656Y470156*
X183090Y471218*
X182880Y471246*
Y460949*
X180340*
Y458409*
X170042*
X170070Y458198*
X171132Y455635*
X172824Y453433*
X175023Y451744*
X177589Y450682*
X179384Y450443*
X179791Y449242*
X178292Y447743*
X177787Y447677*
X175409Y446692*
X173365Y445124*
X171797Y443080*
X170815Y440702*
X170477Y438150*
X170815Y435597*
X171797Y433219*
X173365Y431175*
X172974Y430019*
X140843*
X139552Y429762*
X138460Y429033*
X134556Y425127*
X119761*
Y405571*
X139319*
Y420367*
X142237Y423285*
X170561*
Y405571*
X175938*
Y398830*
X172257Y395150*
X171305Y393722*
X170969Y392038*
Y373268*
X171305Y371584*
X172257Y370154*
X178147Y364266*
X178137Y364241*
X177835Y361950*
X178137Y359658*
X179021Y357522*
X180428Y355688*
X182262Y354281*
X184398Y353397*
X186690Y353095*
X188981Y353397*
X191117Y354281*
X192951Y355688*
X194358Y357522*
X195242Y359658*
X195544Y361950*
X195242Y364241*
X194358Y366377*
X192951Y368211*
X191117Y369618*
X188981Y370502*
X186690Y370804*
X184398Y370502*
X184373Y370492*
X179773Y375091*
Y380156*
X180914Y380718*
X182262Y379681*
X184398Y378797*
X186690Y378495*
X188981Y378797*
X191117Y379681*
X192951Y381088*
X194358Y382922*
X194368Y382948*
X203139*
X204825Y383283*
X206253Y384235*
X227589Y405571*
X240919*
Y425127*
X221361*
Y411797*
X201315Y391751*
X194368*
X194358Y391777*
X192951Y393611*
X191117Y395018*
X188981Y395902*
X186690Y396204*
X185607Y396062*
X184739Y396989*
X184741Y397007*
Y405571*
X190119*
Y423285*
X194241*
X195531Y423542*
X196623Y424271*
X203657Y431307*
X204718Y430867*
X207010Y430565*
X209301Y430867*
X211437Y431751*
X213271Y433158*
X214678Y434992*
X215562Y437128*
X215864Y439420*
X215562Y441711*
X214678Y443847*
X213271Y445681*
X211437Y447088*
X209301Y447972*
X207010Y448274*
X204718Y447972*
X202582Y447088*
X200748Y445681*
X199341Y443847*
X198457Y441711*
X198155Y439420*
X198457Y437128*
X198897Y436067*
X192846Y430019*
X187706*
X187314Y431175*
X188882Y433219*
X189867Y435597*
X190202Y438150*
X189867Y440702*
X189082Y442592*
X197853Y451360*
X199075Y453189*
X199146Y453547*
X199504Y455345*
Y460156*
X200677Y460641*
X221498Y439821*
X221277Y438150*
X221612Y435597*
X222597Y433219*
X224165Y431175*
X226209Y429607*
X228587Y428622*
X231140Y428287*
X233692Y428622*
X236070Y429607*
X238114Y431175*
X239682Y433219*
X240665Y435597*
X241002Y438150*
X240665Y440702*
X239682Y443080*
X238114Y445124*
X236070Y446692*
X233692Y447677*
X231140Y448012*
X229468Y447791*
X227601Y449658*
X228307Y450715*
X228389Y450682*
X228600Y450654*
Y458409*
X220842*
X220870Y458198*
X220903Y458116*
X219849Y457413*
X208782Y468477*
Y490641*
X208353Y492798*
X207131Y494626*
X199946Y501812*
Y532378*
X200926Y533133*
X202415Y535071*
X203349Y537326*
X203667Y539750*
X203349Y542173*
X202415Y544428*
X200926Y546366*
X198988Y547855*
X196733Y548789*
X194310Y549107*
G37*
G36*
X026766Y495300D02*
X024130D01*
Y492663*
X025709Y493720*
X026766Y495300*
G37*
G36*
X019050D02*
X016413D01*
X017470Y493720*
X019050Y492663*
Y495300*
G37*
G36*
X228988Y549028D02*
X210431D01*
Y530471*
X228988*
Y531550*
X260764*
X269821Y522493*
Y510715*
X269468Y509861*
X269166Y507570*
Y485569*
X269468Y483278*
X269821Y482424*
Y472549*
X270101Y470428*
X270918Y468452*
X272221Y466752*
X305490Y433484*
Y426671*
X305381Y426407*
X305089Y424180*
X305381Y421952*
X305490Y421688*
Y394970*
X305770Y392849*
X306590Y390870*
X307893Y389173*
X318190Y378874*
Y367327*
X317847Y366880*
X316865Y364502*
X316527Y361950*
X316865Y359397*
X317847Y357019*
X319415Y354975*
X321459Y353407*
X323837Y352425*
X326390Y352087*
X328942Y352425*
X331320Y353407*
X333364Y354975*
X334932Y357019*
X335915Y359397*
X336252Y361950*
X335915Y364502*
X334932Y366880*
X334589Y367327*
Y382270*
X334439Y383405*
X334309Y384390*
X333489Y386369*
X332186Y388066*
X321889Y398365*
Y421688*
X321998Y421952*
X322290Y424180*
X321998Y426407*
X321889Y426671*
Y436880*
X321609Y439000*
X320789Y440979*
X319486Y442676*
X286217Y475945*
Y482424*
X286572Y483278*
X286872Y485569*
Y488370*
X305866*
X305879Y488360*
X308168Y487413*
X310619Y487090*
X313072Y487413*
X315358Y488360*
X317322Y489866*
X318828Y491830*
X319775Y494116*
X320098Y496570*
X319775Y499023*
X318828Y501309*
X317322Y503273*
X315358Y504779*
X313072Y505726*
X310619Y506049*
X308168Y505726*
X305879Y504779*
X305866Y504769*
X286872*
Y507570*
X286572Y509861*
X286217Y510715*
Y525889*
X285937Y528012*
X285120Y529988*
X283817Y531688*
X269956Y545546*
X268259Y546849*
X266280Y547669*
X264160Y547949*
X228988*
Y549028*
G37*
G36*
X233680Y471246D02*
Y463489D01*
X241437*
X241409Y463702*
X240347Y466265*
X238655Y468467*
X236456Y470156*
X233890Y471218*
X233680Y471246*
G37*
G36*
X069850D02*
X069639Y471218D01*
X067073Y470156*
X064874Y468467*
X063182Y466265*
X062120Y463702*
X062092Y463489*
X069850*
Y471246*
G37*
G36*
X024130D02*
Y463489D01*
X031887*
X031859Y463702*
X030797Y466265*
X029108Y468467*
X026906Y470156*
X024340Y471218*
X024130Y471246*
G37*
G36*
X019050D02*
X018839Y471218D01*
X016273Y470156*
X014071Y468467*
X012382Y466265*
X011320Y463702*
X011292Y463489*
X019050*
Y471246*
G37*
G36*
X074930D02*
Y463489D01*
X082687*
X082659Y463702*
X081597Y466265*
X079908Y468467*
X077706Y470156*
X075140Y471218*
X074930Y471246*
G37*
G36*
X228600D02*
X228389Y471218D01*
X225823Y470156*
X223624Y468467*
X221932Y466265*
X220870Y463702*
X220842Y463489*
X228600*
Y471246*
G37*
G36*
X177800D02*
X177589Y471218D01*
X175023Y470156*
X172824Y468467*
X171132Y466265*
X170070Y463702*
X170042Y463489*
X177800*
Y471246*
G37*
G36*
X127000D02*
X126789Y471218D01*
X124223Y470156*
X122024Y468467*
X120332Y466265*
X119270Y463702*
X119242Y463489*
X127000*
Y471246*
G37*
G36*
X114300Y495300D02*
X111663D01*
X112720Y493720*
X114300Y492663*
Y495300*
G37*
G36*
X255270Y510636D02*
Y508000D01*
X257906*
X256849Y509579*
X255270Y510636*
G37*
G36*
X250190D02*
X248610Y509579D01*
X247553Y508000*
X250190*
Y510636*
G37*
G36*
X119380Y503016D02*
Y500380D01*
X122016*
X120959Y501959*
X119380Y503016*
G37*
G36*
X305480Y542030D02*
X287746D01*
X288686Y539760*
X290215Y537766*
X292209Y536237*
X294528Y535274*
X297019Y534946*
X305480*
Y542030*
G37*
G36*
X319018Y554192D02*
X310560D01*
Y547110*
X328295*
X327352Y549381*
X325823Y551373*
X323832Y552902*
X321510Y553864*
X319018Y554192*
G37*
G36*
X305480D02*
X297019D01*
X294528Y553864*
X292209Y552902*
X290215Y551373*
X288686Y549381*
X287746Y547110*
X305480*
Y554192*
G37*
G36*
X328295Y542030D02*
X310560D01*
Y534946*
X319018*
X321510Y535274*
X323832Y536237*
X325823Y537766*
X327352Y539760*
X328295Y542030*
G37*
G36*
X114300Y503016D02*
X112720Y501959D01*
X111663Y500380*
X114300*
Y503016*
G37*
G36*
X338559Y516844D02*
Y499110D01*
X345643*
Y507570*
X345315Y510059*
X344352Y512381*
X342823Y514372*
X340832Y515904*
X338559Y516844*
G37*
G36*
X333479D02*
X331208Y515904D01*
X329217Y514372*
X327687Y512381*
X326725Y510059*
X326397Y507570*
Y499110*
X333479*
Y516844*
G37*
G36*
X122016Y495300D02*
X119380D01*
Y492663*
X120959Y493720*
X122016Y495300*
G37*
G36*
X250190Y502920D02*
X247553D01*
X248610Y501340*
X250190Y500283*
Y502920*
G37*
G36*
X024130Y503016D02*
Y500380D01*
X026766*
X025709Y501959*
X024130Y503016*
G37*
G36*
X019050D02*
X017470Y501959D01*
X016413Y500380*
X019050*
Y503016*
G37*
G36*
X257906Y502920D02*
X255270D01*
Y500283*
X256849Y501340*
X257906Y502920*
G37*
G36*
X286131Y359410D02*
X278130D01*
Y351409*
X286131*
Y359410*
G37*
G36*
X273050D02*
X265049D01*
Y351409*
X273050*
Y359410*
G37*
G36*
X262890Y432780D02*
X260662Y432488D01*
X258589Y431629*
X256806Y430263*
X255440Y428480*
X254581Y426407*
X254287Y424180*
X254581Y421952*
X254690Y421688*
Y407670*
X254970Y405549*
X255790Y403570*
X257093Y401873*
X285302Y373661*
X284817Y372491*
X278130*
Y364490*
X286131*
Y371177*
X287301Y371662*
X292341Y366623*
X291465Y364502*
X291127Y361950*
X291465Y359397*
X292447Y357019*
X292790Y356572*
Y353915*
X284894Y346019*
X278081*
X277817Y346128*
X275590Y346420*
X273364Y346128*
X271289Y345269*
X269506Y343903*
X268140Y342120*
X267281Y340047*
X266989Y337820*
X267281Y335592*
X268140Y333519*
X269506Y331736*
X271289Y330370*
X273364Y329511*
X275590Y329219*
X277817Y329511*
X278081Y329620*
X288290*
X290410Y329900*
X291904Y330520*
X323814Y298607*
X323700Y298333*
X323382Y295910*
X323700Y293486*
X324634Y291231*
X326123Y289293*
X328061Y287804*
X330316Y286870*
X332740Y286552*
X335163Y286870*
X337418Y287804*
X339356Y289293*
X340845Y291231*
X341779Y293486*
X342097Y295910*
X341779Y298333*
X340845Y300588*
X339356Y302526*
X337418Y304015*
X335163Y304949*
X332740Y305267*
X330316Y304949*
X330042Y304835*
X299105Y335770*
Y337040*
X306786Y344723*
X308089Y346420*
X308909Y348399*
X309039Y349384*
X309189Y350520*
Y356572*
X309532Y357019*
X310515Y359397*
X310852Y361950*
X310515Y364502*
X309532Y366880*
X309189Y367327*
Y369570*
X308909Y371690*
X308089Y373669*
X306786Y375366*
X271089Y411065*
Y421688*
X271198Y421952*
X271490Y424180*
X271198Y426407*
X270339Y428480*
X268973Y430263*
X267190Y431629*
X265115Y432488*
X262890Y432780*
G37*
G36*
X011430Y372074D02*
X009138Y371772D01*
X007002Y370888*
X005168Y369481*
X003761Y367647*
X002877Y365511*
X002575Y363220*
X002877Y360928*
X003761Y358792*
X005168Y356958*
X007002Y355551*
X009138Y354667*
X011430Y354365*
X013721Y354667*
X015857Y355551*
X017691Y356958*
X019098Y358792*
X019982Y360928*
X020284Y363220*
X019982Y365511*
X019098Y367647*
X017691Y369481*
X015857Y370888*
X013721Y371772*
X011430Y372074*
G37*
G36*
X273050Y372491D02*
X265049D01*
Y364490*
X273050*
Y372491*
G37*
G36*
X207010Y372074D02*
X204718Y371772D01*
X202582Y370888*
X200748Y369481*
X199341Y367647*
X198457Y365511*
X198155Y363220*
X198457Y360928*
X199341Y358792*
X200748Y356958*
X202582Y355551*
X204718Y354667*
X207010Y354365*
X209301Y354667*
X211437Y355551*
X213271Y356958*
X214678Y358792*
X215562Y360928*
X215864Y363220*
X215562Y365511*
X214678Y367647*
X213271Y369481*
X211437Y370888*
X209301Y371772*
X207010Y372074*
G37*
G36*
X031369Y425127D02*
X011811D01*
Y405571*
X025140*
X070606Y360105*
X072034Y359153*
X073720Y358818*
X079951*
X079961Y358792*
X081368Y356958*
X083202Y355551*
X085338Y354667*
X087630Y354365*
X089921Y354667*
X092057Y355551*
X093891Y356958*
X095298Y358792*
X096182Y360928*
X096484Y363220*
X096182Y365511*
X095298Y367647*
X093891Y369481*
X092057Y370888*
X089921Y371772*
X087630Y372074*
X085338Y371772*
X083202Y370888*
X081368Y369481*
X079961Y367647*
X079951Y367621*
X075544*
X031369Y411797*
Y425127*
G37*
G36*
X110490Y370804D02*
X108198Y370502D01*
X106062Y369618*
X104228Y368211*
X102821Y366377*
X101937Y364241*
X101635Y361950*
X101937Y359658*
X102821Y357522*
X104228Y355688*
X106062Y354281*
X107642Y353628*
X107393Y352381*
X069850*
X068165Y352046*
X066735Y351094*
X045496Y329852*
X045471Y329862*
X043180Y330164*
X040888Y329862*
X038752Y328978*
X036918Y327571*
X035511Y325737*
X034627Y323601*
X034325Y321310*
X034627Y319018*
X035511Y316882*
X036918Y315048*
X038752Y313641*
X040888Y312757*
X043180Y312455*
X045471Y312757*
X047607Y313641*
X049441Y315048*
X050848Y316882*
X051732Y319018*
X052034Y321310*
X051732Y323601*
X051722Y323626*
X071673Y343578*
X127213*
X127607Y343314*
X129540Y342930*
X131472Y343314*
X133111Y344408*
X134205Y346047*
X134589Y347980*
X134205Y349912*
X133111Y351551*
X131472Y352645*
X129540Y353029*
X127607Y352645*
X127213Y352381*
X113586*
X113337Y353628*
X114917Y354281*
X116751Y355688*
X118158Y357522*
X119042Y359658*
X119344Y361950*
X119042Y364241*
X118158Y366377*
X116751Y368211*
X114917Y369618*
X112781Y370502*
X110490Y370804*
G37*
G36*
X259478Y335280D02*
X252730D01*
Y328528*
X259478*
Y335280*
G37*
G36*
X247650D02*
X240898D01*
Y328528*
X247650*
Y335280*
G37*
G36*
X350616Y327660D02*
X347980D01*
Y325023*
X349559Y326080*
X350616Y327660*
G37*
G36*
X342900Y335376D02*
X341320Y334319D01*
X340263Y332740*
X342900*
Y335376*
G37*
G36*
X259478Y347111D02*
X252730D01*
Y340360*
X259478*
Y347111*
G37*
G36*
X247650D02*
X240898D01*
Y340360*
X247650*
Y347111*
G37*
G36*
X347980Y335376D02*
Y332740D01*
X350616*
X349559Y334319*
X347980Y335376*
G37*
G36*
X082169Y425127D02*
X062611D01*
Y405571*
X077406*
X084261Y398716*
Y395457*
X083202Y395018*
X081368Y393611*
X079961Y391777*
X079077Y389641*
X078775Y387350*
X079077Y385058*
X079961Y382922*
X081368Y381088*
X083202Y379681*
X085338Y378797*
X087630Y378495*
X089921Y378797*
X092057Y379681*
X093891Y381088*
X095298Y382922*
X096182Y385058*
X096484Y387350*
X096182Y389641*
X095298Y391777*
X093891Y393611*
X092057Y395018*
X090995Y395457*
Y400110*
X090741Y401398*
X090009Y402490*
X082169Y410331*
Y425127*
G37*
G36*
X069850Y458409D02*
X062092D01*
X062120Y458198*
X063182Y455635*
X064874Y453433*
X067073Y451744*
X069639Y450682*
X069850Y450654*
Y458409*
G37*
G36*
X019050D02*
X011292D01*
X011320Y458198*
X012382Y455635*
X014071Y453433*
X016273Y451744*
X018839Y450682*
X019050Y450654*
Y458409*
G37*
G36*
X348378Y433471D02*
X341630D01*
Y426720*
X348378*
Y433471*
G37*
G36*
X127000Y458409D02*
X119242D01*
X119270Y458198*
X120332Y455635*
X122024Y453433*
X124223Y451744*
X126789Y450682*
X127000Y450654*
Y458409*
G37*
G36*
X073660Y549107D02*
X071236Y548789D01*
X068981Y547855*
X067043Y546366*
X065554Y544428*
X064620Y542173*
X064302Y539750*
X064620Y537326*
X065554Y535071*
X067043Y533133*
X068981Y531644*
X071236Y530710*
X073660Y530392*
X074886Y530552*
X093423Y512015*
Y467154*
X083680Y457413*
X082626Y458116*
X082659Y458198*
X082687Y458409*
X074930*
Y450654*
X075140Y450682*
X075222Y450715*
X075928Y449658*
X074061Y447791*
X072390Y448012*
X069837Y447677*
X067459Y446692*
X065415Y445124*
X063847Y443080*
X062862Y440702*
X062527Y438150*
X062862Y435597*
X063847Y433219*
X065415Y431175*
X067459Y429607*
X069837Y428622*
X072390Y428287*
X074942Y428622*
X077320Y429607*
X079364Y431175*
X080932Y433219*
X081915Y435597*
X082252Y438150*
X082031Y439821*
X103045Y460834*
X104267Y462663*
X104696Y464820*
Y514350*
X104267Y516506*
X103045Y518335*
X082857Y538523*
X083017Y539750*
X082699Y542173*
X081765Y544428*
X080276Y546366*
X078338Y547855*
X076083Y548789*
X073660Y549107*
G37*
G36*
X057538Y549028D02*
X038981D01*
Y530471*
X042623*
Y467154*
X032880Y457413*
X031826Y458116*
X031859Y458198*
X031887Y458409*
X024130*
Y450654*
X024340Y450682*
X024422Y450715*
X025128Y449658*
X023261Y447791*
X021590Y448012*
X019037Y447677*
X016659Y446692*
X014615Y445124*
X013047Y443080*
X012065Y440702*
X011727Y438150*
X012065Y435597*
X013047Y433219*
X014615Y431175*
X016659Y429607*
X019037Y428622*
X021590Y428287*
X024142Y428622*
X026520Y429607*
X028564Y431175*
X030132Y433219*
X031117Y435597*
X031452Y438150*
X031231Y439821*
X052245Y460834*
X053467Y462663*
X053896Y464820*
Y530471*
X057538*
Y549028*
G37*
G36*
X241437Y458409D02*
X233680D01*
Y450654*
X233890Y450682*
X236456Y451744*
X238655Y453433*
X240347Y455635*
X241409Y458198*
X241437Y458409*
G37*
G36*
X336550Y421640D02*
X329798D01*
Y414888*
X336550*
Y421640*
G37*
G36*
X297578D02*
X290830D01*
Y414888*
X297578*
Y421640*
G37*
G36*
X285750D02*
X279001D01*
Y414888*
X285750*
Y421640*
G37*
G36*
X348378D02*
X341630D01*
Y414888*
X348378*
Y421640*
G37*
G36*
X336550Y433471D02*
X329798D01*
Y426720*
X336550*
Y433471*
G37*
G36*
X297578D02*
X290830D01*
Y426720*
X297578*
Y433471*
G37*
G36*
X285750D02*
X279001D01*
Y426720*
X285750*
Y433471*
G37*
%LNesp8266_amp_tht-3*%
%LPD*%
G36*
X029512Y241106D02*
Y240842D01*
X029768Y239555*
X030497Y238462*
X036796Y232161*
X035511Y230487*
X034627Y228351*
X034325Y226060*
X034627Y223768*
X035511Y221632*
X036918Y219798*
X038752Y218391*
X040888Y217507*
X043180Y217205*
X044554Y217388*
X044975Y216535*
X044305Y215455*
X033144*
X022781Y225818*
X022829Y226060*
X022445Y227992*
X021351Y229631*
X019712Y230725*
X017780Y231109*
X015847Y230725*
X014505Y229829*
X013385Y230426*
Y237931*
X014523Y238493*
X015892Y237441*
X018028Y236557*
X020320Y236255*
X022611Y236557*
X024747Y237441*
X026581Y238848*
X027988Y240682*
X028265Y241353*
X029512Y241106*
G37*
G54D10*
X302260Y110490D03*
G54D11*
X081280Y058420D02*
X175260D01*
X295910Y062230D02*
X299720D01*
X236220D02*
X295910D01*
X179070D02*
X236220D01*
X175260Y058420D02*
X179070Y062230D01*
X288290Y337820D02*
X290830D01*
X021590Y411480D02*
Y415350D01*
X203139Y387350D02*
X231140Y415350D01*
X186690Y387350D02*
X203139D01*
X180340Y397007D02*
Y415350D01*
X175371Y392038D02*
X180340Y397007D01*
X175371Y373268D02*
Y392038D01*
Y373268D02*
X186690Y361950D01*
X021590Y415350D02*
X073720Y363220D01*
X087630*
X290830Y337820D02*
X332740Y295910D01*
Y261823D02*
Y270510D01*
Y261823D02*
X344558Y250004D01*
Y107068D02*
Y250004D01*
X299720Y062230D02*
X344558Y107068D01*
X255270Y026670D02*
X269240Y040640D01*
X255270Y016510D02*
Y026670D01*
X234950Y016510D02*
X255270D01*
X297180*
X043180Y321310D02*
X069850Y347980D01*
X129540*
X309880Y237490D02*
Y261620D01*
X261620Y309880D02*
X309880Y261620D01*
G54D12*
X083820Y013970D02*
X143510D01*
X140843Y426651D02*
X194241D01*
X129540Y415350D02*
X140843Y426651D01*
X194241D02*
X207010Y439420D01*
X087630Y387350D02*
Y400110D01*
X072390Y415350D02*
X087630Y400110D01*
X110490Y387350D02*
X152400Y345440D01*
X243586Y244856D02*
X247650Y248920D01*
X228092Y244856D02*
X243586D01*
X152400Y345440D02*
X215900D01*
X247650Y313690*
Y248920D02*
Y313690D01*
X246349Y219710D02*
X332740D01*
X242158Y215519D02*
X246349Y219710D01*
X205359Y215519D02*
X242158D01*
X204470Y214630D02*
X205359Y215519D01*
X228092Y224536D02*
X232156D01*
X256540Y248920*
X283210*
X299720Y232410*
X302260Y110490D02*
Y207010D01*
X248920Y140970D02*
X260350Y129540D01*
X248920Y140970D02*
Y158750D01*
X242824Y164846D02*
X248920Y158750D01*
X228092Y164846D02*
X242824D01*
X257810Y129540D02*
X260350D01*
X020320Y321310D02*
X036830Y304800D01*
X071882*
X020320Y245110D02*
X059944Y284734D01*
X071882*
X043180Y226060D02*
Y230540D01*
X032877Y240842D02*
X043180Y230540D01*
X032877Y240842D02*
Y249377D01*
X048422Y264922*
X071882*
X017780Y226060D02*
X031750Y212090D01*
X045720*
X058420Y224790*
X072136*
X011430Y384810D02*
Y387350D01*
Y384810D02*
X025400Y370840D01*
Y340959D02*
Y370840D01*
X010017Y325577D02*
X025400Y340959D01*
X010017Y221122D02*
Y325577D01*
X026162Y204978D02*
X072136D01*
X010017Y221122D02*
X026162Y204978D01*
G54D13*
X262890Y407670D02*
Y424180D01*
Y407670D02*
X300990Y369570D01*
Y361950D02*
Y369570D01*
X275590Y337820D02*
X288290D01*
X300990Y350520D02*
Y361950D01*
X288290Y337820D02*
X300990Y350520D01*
X326390Y361950D02*
Y382270D01*
X219710Y539750D02*
X264160D01*
X278020Y525889*
Y496570D02*
Y525889D01*
Y472549D02*
Y496570D01*
Y472549D02*
X313690Y436880D01*
Y424180D02*
Y436880D01*
Y394970D02*
Y424180D01*
Y394970D02*
X326390Y382270D01*
X278020Y496570D02*
X310619D01*
G54D14*
X168910Y539750D02*
X170434Y538226D01*
G54D15*
X129540Y438150D02*
X143510Y452120D01*
Y539750*
X180340Y438150D02*
Y441817D01*
X193868Y455345*
Y477961*
X168910Y502920D02*
X193868Y477961D01*
X168910Y502920D02*
Y539750D01*
X203146Y466143D02*
X231140Y438150D01*
X203146Y466143D02*
Y490641D01*
X194310Y499475D02*
X203146Y490641D01*
X194310Y499475D02*
Y539750D01*
X048260Y464820D02*
Y539750D01*
X021590Y438150D02*
X048260Y464820D01*
X073660Y539750D02*
X099060Y514350D01*
Y464820D02*
Y514350D01*
X072390Y438150D02*
X099060Y464820D01*
G54D16*
X326390Y361950D03*
X300990D03*
X072390Y460949D03*
Y438150D03*
X021590Y460949D03*
Y438150D03*
X231140Y460949D03*
Y438150D03*
X180340Y460949D03*
Y438150D03*
X129540Y460949D03*
Y438150D03*
G54D17*
X275590Y361950D03*
G54D18*
X083820Y059690D03*
X295910Y016510D03*
X048260Y539750D03*
X219710D03*
G54D19*
X143510Y059690D03*
X083820Y013970D03*
X143510D03*
X236220Y016510D03*
X295910Y062230D03*
X236220D03*
X073660Y539750D03*
X194310D03*
X168910D03*
X143510D03*
X332740Y219710D03*
Y245110D03*
Y270510D03*
Y295910D03*
G54D20*
X336019Y496570D03*
X278020D03*
G54D21*
X308020Y544570D03*
G54D22*
X275590Y337820D03*
X262890Y424180D03*
X313690D03*
G54D23*
X250190Y337820D03*
X288290Y424180D03*
X339090D03*
G54D24*
X072390Y415350D03*
X021590D03*
X231140D03*
X180340D03*
X129540D03*
G54D25*
X110490Y361950D03*
X186690D03*
X110490Y387350D03*
X186690D03*
X011430Y363220D03*
X087630D03*
X011430Y387350D03*
X087630D03*
X207010Y363220D03*
Y439420D03*
X260350Y205740D03*
Y129540D03*
X043180Y245110D03*
Y321310D03*
Y226060D03*
Y149860D03*
X020320Y245110D03*
Y321310D03*
X261620Y309880D03*
Y233680D03*
G54D26*
X332740Y194310D03*
G54D27*
X228092Y284480D03*
X071882Y304800D03*
X228092Y164846D03*
Y184658D03*
Y204724D03*
Y224536D03*
Y244856D03*
Y264668D03*
Y304546D03*
X071882Y284734D03*
Y264922D03*
X072136Y244856D03*
Y224790D03*
Y204978D03*
Y184658D03*
Y164846D03*
G54D28*
X200152Y325374D03*
X180340D03*
X160528D03*
X140208D03*
X120396D03*
X100076D03*
G54D29*
X310619Y496570D03*
G54D30*
X204470Y214630D03*
X299720Y232410D03*
X302260Y207010D03*
X269240Y040640D03*
X017780Y226060D03*
X129540Y347980D03*
X127000Y219710D03*
X043180Y088900D03*
X252730Y505460D03*
X116840Y497840D03*
X345440Y330200D03*
X021590Y497840D03*
X165100Y293370D03*
X193040Y177800D03*
X309880Y237490D03*
X316230Y158750D03*
X354330Y165100D03*
X281940Y151130D03*
X100330Y266700D03*
M02*