%FSLAX25Y25*%
%MOIN*%
G70*
G01*
G75*
G04 Layer_Physical_Order=1*
G04 Layer_Color=255*
%ADD10R,0.04331X0.05512*%
%ADD11R,0.05906X0.09843*%
%ADD12R,0.05906X0.09843*%
%ADD13R,0.04528X0.02362*%
%ADD14R,0.05512X0.04331*%
G04:AMPARAMS|DCode=15|XSize=74.8mil|YSize=125.98mil|CornerRadius=0mil|HoleSize=0mil|Usage=FLASHONLY|Rotation=270.000|XOffset=0mil|YOffset=0mil|HoleType=Round|Shape=Octagon|*
%AMOCTAGOND15*
4,1,8,0.06299,0.01870,0.06299,-0.01870,0.04429,-0.03740,-0.04429,-0.03740,-0.06299,-0.01870,-0.06299,0.01870,-0.04429,0.03740,0.04429,0.03740,0.06299,0.01870,0.0*
%
%ADD15OCTAGOND15*%

%ADD16R,0.05512X0.02362*%
%ADD17R,0.07087X0.02362*%
%ADD18C,0.05000*%
%ADD19C,0.02500*%
%ADD20C,0.02000*%
%ADD21R,0.10000X0.04500*%
%ADD22R,0.05500X0.10000*%
%ADD23C,0.05315*%
%ADD24R,0.05315X0.05315*%
%ADD25R,0.05315X0.05315*%
%ADD26C,0.05906*%
%ADD27R,0.05906X0.05906*%
%ADD28O,0.05512X0.14173*%
%ADD29O,0.14173X0.05512*%
%ADD30C,0.02500*%
G36*
X138500Y1000D02*
X120790D01*
X120554Y1441D01*
X120967Y2059D01*
X116891D01*
X117304Y1441D01*
X117069Y1000D01*
X81250D01*
Y11600D01*
X74350D01*
Y1000D01*
X73450D01*
Y11600D01*
X66550D01*
Y1000D01*
X65650D01*
Y11600D01*
X58750D01*
Y1000D01*
X57650D01*
Y11600D01*
X50750D01*
Y1000D01*
X49850D01*
Y11600D01*
X42950D01*
Y1000D01*
X41850D01*
Y11600D01*
X34950D01*
Y1000D01*
X500D01*
Y75000D01*
X5968D01*
Y74543D01*
X6120Y73782D01*
X6551Y73137D01*
X7094Y72594D01*
X7739Y72163D01*
X8500Y72012D01*
X9261Y72163D01*
X9906Y72594D01*
X10337Y73239D01*
X10488Y74000D01*
X10366Y74613D01*
X10683Y75000D01*
X35267D01*
Y61718D01*
X33562Y60013D01*
X33100Y60204D01*
Y64250D01*
X21700D01*
Y63033D01*
X15800D01*
X15137Y62901D01*
X14574Y62526D01*
X11115Y59066D01*
X10653Y59257D01*
Y63701D01*
X14318Y67367D01*
X21700D01*
Y66150D01*
X33100D01*
Y72050D01*
X21700D01*
Y70833D01*
X13600D01*
X12937Y70701D01*
X12374Y70326D01*
X8202Y66153D01*
X3347D01*
Y58847D01*
X10243D01*
X10434Y58385D01*
X8062Y56014D01*
X7954Y56059D01*
X7000Y56184D01*
X6046Y56059D01*
X5158Y55691D01*
X4395Y55105D01*
X3809Y54342D01*
X3441Y53454D01*
X3316Y52500D01*
X3441Y51546D01*
X3809Y50658D01*
X4395Y49895D01*
X5158Y49309D01*
X6046Y48941D01*
X7000Y48816D01*
X7954Y48941D01*
X8842Y49309D01*
X9605Y49895D01*
X10191Y50658D01*
X10559Y51546D01*
X10684Y52500D01*
X10559Y53454D01*
X10514Y53562D01*
X16518Y59567D01*
X21700D01*
Y59064D01*
X21133Y58951D01*
X20570Y58576D01*
X8024Y46029D01*
X7954Y46059D01*
X7000Y46184D01*
X6046Y46059D01*
X5158Y45691D01*
X4395Y45105D01*
X3809Y44342D01*
X3441Y43454D01*
X3316Y42500D01*
X3441Y41546D01*
X3809Y40658D01*
X4395Y39895D01*
X5158Y39309D01*
X6046Y38941D01*
X7000Y38816D01*
X7954Y38941D01*
X8062Y38986D01*
X10674Y36374D01*
X11237Y35999D01*
X11900Y35867D01*
X11900Y35867D01*
X21700D01*
Y34650D01*
X29644D01*
X29693Y34152D01*
X29437Y34101D01*
X28874Y33726D01*
X27799Y32650D01*
X21600D01*
Y26750D01*
X29046D01*
X29237Y26288D01*
X27799Y24850D01*
X21600D01*
Y18950D01*
X33000D01*
Y23767D01*
X34182D01*
Y22044D01*
X39787D01*
Y21744D01*
X41953D01*
Y25500D01*
X42953D01*
Y26500D01*
X46118D01*
Y29256D01*
X45818D01*
Y30253D01*
X46205Y30571D01*
X46500Y30512D01*
X47261Y30663D01*
X47906Y31094D01*
X48337Y31739D01*
X48488Y32500D01*
X48337Y33261D01*
X47906Y33906D01*
X47261Y34337D01*
X46500Y34488D01*
X46205Y34429D01*
X45818Y34747D01*
Y35956D01*
X45818D01*
X45818Y36044D01*
X45818Y36044D01*
Y36044D01*
Y42956D01*
X40087D01*
Y42956D01*
X39961Y42956D01*
X39913D01*
Y42956D01*
X39913D01*
X39913D01*
X34182D01*
Y39333D01*
X33100D01*
Y40550D01*
X21700D01*
Y39333D01*
X12618D01*
X10514Y41438D01*
X10559Y41546D01*
X10684Y42500D01*
X10559Y43454D01*
X10498Y43601D01*
X21238Y54341D01*
X21700Y54150D01*
Y50350D01*
X33100D01*
Y55617D01*
X33350D01*
X34013Y55749D01*
X34576Y56124D01*
X38226Y59774D01*
X38601Y60337D01*
X38733Y61000D01*
Y75000D01*
X49000D01*
Y81500D01*
X51000D01*
Y75000D01*
X65500D01*
Y81500D01*
X67500D01*
Y75000D01*
X86812D01*
Y72050D01*
X83100D01*
Y66150D01*
X94500D01*
Y72050D01*
X90788D01*
Y75000D01*
X96929D01*
Y79843D01*
X100657D01*
Y82500D01*
X97000D01*
Y84500D01*
X100657D01*
Y87157D01*
X96929D01*
Y89468D01*
X97305Y89798D01*
X97500Y89772D01*
X104471D01*
Y88669D01*
X104590Y87767D01*
X104938Y86926D01*
X105492Y86204D01*
X106214Y85651D01*
X107054Y85302D01*
X107957Y85184D01*
X108859Y85302D01*
X109699Y85651D01*
X110422Y86204D01*
X110975Y86926D01*
X111324Y87767D01*
X111442Y88669D01*
Y97331D01*
X111324Y98233D01*
X110975Y99074D01*
X110422Y99796D01*
X109699Y100349D01*
X108859Y100698D01*
X107957Y100816D01*
X107731Y100787D01*
X103318Y105199D01*
Y106956D01*
X97587D01*
Y106956D01*
X97461Y106956D01*
X97413D01*
D01*
X96929D01*
Y115500D01*
X113184D01*
X113345Y115026D01*
X112758Y114576D01*
X112156Y113792D01*
X111786Y112898D01*
X127750D01*
X127379Y113792D01*
X126777Y114576D01*
X126190Y115026D01*
X126351Y115500D01*
X138500D01*
Y1000D01*
D02*
G37*
%LPC*%
G36*
X46118Y24500D02*
X43953D01*
Y21744D01*
X46118D01*
Y24500D01*
D02*
G37*
G36*
X114764Y23000D02*
X112500D01*
Y21819D01*
X114764D01*
Y23000D01*
D02*
G37*
G36*
X94500Y32750D02*
X83100D01*
Y26850D01*
X94500D01*
Y27395D01*
X94962Y27587D01*
X95767Y26782D01*
Y24500D01*
X95899Y23837D01*
D01*
X95500Y23733D01*
X94500D01*
Y24950D01*
X83100D01*
Y19050D01*
X94500D01*
Y19895D01*
X94962Y20087D01*
X95767Y19282D01*
Y9500D01*
X95899Y8837D01*
X96274Y8274D01*
X97000Y7549D01*
Y6996D01*
X97391Y7158D01*
X98168Y6381D01*
X98730Y6005D01*
X99394Y5873D01*
X100973D01*
Y4741D01*
X107883D01*
X107883Y4741D01*
Y4741D01*
X107885Y4741D01*
X107885D01*
X108236Y4638D01*
X108239Y4638D01*
X108239Y4638D01*
Y4638D01*
X110500D01*
Y6819D01*
Y9000D01*
X108239D01*
X108239Y9000D01*
Y9000D01*
X108236Y9000D01*
X107885Y9351D01*
Y10293D01*
X107885Y10293D01*
X107885D01*
X107885Y10472D01*
Y10559D01*
Y10646D01*
X107885Y10825D01*
X107885Y10825D01*
X107885D01*
Y12311D01*
X111500D01*
X112038Y12418D01*
X114464D01*
Y16180D01*
X112038D01*
X111500Y16287D01*
X107885D01*
Y16377D01*
X100973D01*
Y10825D01*
X100973Y10825D01*
X100973D01*
X100973Y10646D01*
Y10559D01*
Y10472D01*
X100973Y10293D01*
X100973Y10293D01*
X100973D01*
Y9340D01*
X100112D01*
X99233Y10218D01*
Y19446D01*
X99652Y19865D01*
X99674Y19876D01*
X100230Y19505D01*
X100894Y19373D01*
X100973D01*
Y18241D01*
X107885D01*
Y18287D01*
X108236Y18638D01*
X108239Y18638D01*
X108239Y18638D01*
Y18638D01*
X110500D01*
Y20819D01*
Y23000D01*
X108239D01*
X108239Y23000D01*
Y23000D01*
X108236Y23000D01*
X107885Y23351D01*
Y23793D01*
X107885Y23793D01*
X107885D01*
X107885Y23972D01*
Y24059D01*
Y24146D01*
X107885Y24325D01*
X107885Y24325D01*
X107885D01*
Y26311D01*
X111500D01*
X112038Y26418D01*
X114464D01*
Y30180D01*
X112038D01*
X111500Y30287D01*
X105717D01*
X104956Y30136D01*
X104568Y29877D01*
X100973D01*
Y24325D01*
X100973Y24325D01*
X100973D01*
X100973Y24146D01*
Y24131D01*
X100799Y24059D01*
X100392Y24059D01*
X99233Y25218D01*
Y27500D01*
X99101Y28163D01*
X98726Y28726D01*
X96929Y30522D01*
Y31075D01*
X96538Y30913D01*
X96426Y31026D01*
X95863Y31401D01*
X95200Y31533D01*
X94500D01*
Y32750D01*
D02*
G37*
G36*
X55047Y22756D02*
X52882D01*
Y20000D01*
X55047D01*
Y22756D01*
D02*
G37*
G36*
X7000Y26184D02*
X6046Y26059D01*
X5158Y25691D01*
X4395Y25105D01*
X3809Y24342D01*
X3441Y23454D01*
X3316Y22500D01*
X3441Y21546D01*
X3809Y20658D01*
X4395Y19895D01*
X5158Y19309D01*
X6046Y18941D01*
X7000Y18816D01*
X7954Y18941D01*
X8842Y19309D01*
X9605Y19895D01*
X10191Y20658D01*
X10559Y21546D01*
X10684Y22500D01*
X10559Y23454D01*
X10191Y24342D01*
X9605Y25105D01*
X8842Y25691D01*
X7954Y26059D01*
X7000Y26184D01*
D02*
G37*
G36*
X117929Y20097D02*
X117307Y19681D01*
X116891Y19059D01*
X117929D01*
Y20097D01*
D02*
G37*
G36*
X119929D02*
Y19059D01*
X120967D01*
X120551Y19681D01*
X119929Y20097D01*
D02*
G37*
G36*
X120358Y41787D02*
X119523Y41677D01*
X118745Y41354D01*
X118076Y40841D01*
X117768Y40440D01*
X117394D01*
Y39766D01*
X117241Y39394D01*
X117131Y38559D01*
X117241Y37724D01*
X117394Y37352D01*
Y36678D01*
X117768D01*
X118076Y36277D01*
X126576Y27777D01*
X127244Y27264D01*
X128023Y26941D01*
X128858Y26831D01*
X130176D01*
X130976Y26500D01*
X131929Y26375D01*
X132883Y26500D01*
X133771Y26868D01*
X134534Y27454D01*
X135120Y28217D01*
X135203Y28417D01*
X135224Y28445D01*
X135547Y29224D01*
X135657Y30059D01*
X135547Y30894D01*
X135224Y31673D01*
X135203Y31701D01*
X135120Y31901D01*
X134534Y32664D01*
X133771Y33250D01*
X132883Y33618D01*
X131929Y33743D01*
X130976Y33618D01*
X130190Y33292D01*
X123322Y40160D01*
Y40440D01*
X123042D01*
X122641Y40841D01*
X121972Y41354D01*
X121194Y41677D01*
X120358Y41787D01*
D02*
G37*
G36*
X117429Y33097D02*
X116807Y32681D01*
X116391Y32059D01*
X117429D01*
Y33097D01*
D02*
G37*
G36*
X119429D02*
Y32059D01*
X120467D01*
X120051Y32681D01*
X119429Y33097D01*
D02*
G37*
G36*
X114764Y33819D02*
X112500D01*
Y32638D01*
X114764D01*
Y33819D01*
D02*
G37*
G36*
X120467Y30059D02*
X119429D01*
Y29021D01*
X120051Y29437D01*
X120467Y30059D01*
D02*
G37*
G36*
X6000Y31500D02*
X3145D01*
X3149Y31468D01*
X3547Y30507D01*
X4181Y29681D01*
X5007Y29047D01*
X5968Y28649D01*
X6000Y28645D01*
Y31500D01*
D02*
G37*
G36*
X10855D02*
X8000D01*
Y28645D01*
X8032Y28649D01*
X8993Y29047D01*
X9819Y29681D01*
X10453Y30507D01*
X10851Y31468D01*
X10855Y31500D01*
D02*
G37*
G36*
X117429Y30059D02*
X116391D01*
X116807Y29437D01*
X117429Y29021D01*
Y30059D01*
D02*
G37*
G36*
X114764Y19819D02*
X112500D01*
Y18638D01*
X114764D01*
Y19819D01*
D02*
G37*
G36*
Y9000D02*
X112500D01*
Y7819D01*
X114764D01*
Y9000D01*
D02*
G37*
G36*
X26300Y13000D02*
X21300D01*
Y10750D01*
X26300D01*
Y13000D01*
D02*
G37*
G36*
X33300D02*
X28300D01*
Y10750D01*
X33300D01*
Y13000D01*
D02*
G37*
G36*
X131929Y13787D02*
X120358D01*
X119523Y13677D01*
X118745Y13354D01*
X118076Y12841D01*
X117768Y12440D01*
X117394D01*
Y11766D01*
X117241Y11394D01*
X117131Y10559D01*
X117241Y9724D01*
X117394Y9352D01*
Y8678D01*
X117768D01*
X118076Y8277D01*
X118745Y7764D01*
X119523Y7441D01*
X120358Y7331D01*
X129483D01*
X130087Y6868D01*
X130976Y6500D01*
X131929Y6375D01*
X132883Y6500D01*
X133771Y6868D01*
X134534Y7454D01*
X135120Y8217D01*
X135203Y8417D01*
X135224Y8445D01*
X135547Y9224D01*
X135657Y10059D01*
X135547Y10894D01*
X135224Y11673D01*
X135203Y11701D01*
X135120Y11901D01*
X134534Y12664D01*
X133771Y13250D01*
X133571Y13333D01*
X133543Y13354D01*
X132764Y13677D01*
X131929Y13787D01*
D02*
G37*
G36*
X117929Y5097D02*
X117307Y4681D01*
X116891Y4059D01*
X117929D01*
Y5097D01*
D02*
G37*
G36*
X119929D02*
Y4059D01*
X120967D01*
X120551Y4681D01*
X119929Y5097D01*
D02*
G37*
G36*
X114764Y5819D02*
X112500D01*
Y4638D01*
X114764D01*
Y5819D01*
D02*
G37*
G36*
X94500Y17050D02*
X83100D01*
Y11150D01*
X94500D01*
Y17050D01*
D02*
G37*
G36*
X120967Y17059D02*
X119929D01*
Y16021D01*
X120551Y16437D01*
X120967Y17059D01*
D02*
G37*
G36*
X123429Y27787D02*
X120358D01*
X119523Y27677D01*
X118745Y27354D01*
X118076Y26841D01*
X117768Y26440D01*
X117394D01*
Y25766D01*
X117241Y25394D01*
X117131Y24559D01*
X117241Y23724D01*
X117394Y23352D01*
Y22678D01*
X117768D01*
X118076Y22277D01*
X118745Y21764D01*
X119523Y21441D01*
X120358Y21331D01*
X122092D01*
X125647Y17777D01*
X125981Y17520D01*
X126315Y17264D01*
X127094Y16941D01*
X127929Y16831D01*
X130176D01*
X130976Y16500D01*
X131929Y16375D01*
X132883Y16500D01*
X133771Y16868D01*
X134534Y17454D01*
X135120Y18217D01*
X135203Y18417D01*
X135224Y18445D01*
X135547Y19224D01*
X135657Y20059D01*
X135547Y20894D01*
X135224Y21673D01*
X135203Y21701D01*
X135120Y21901D01*
X134534Y22664D01*
X133771Y23250D01*
X132883Y23618D01*
X131929Y23743D01*
X130976Y23618D01*
X130176Y23287D01*
X129266D01*
X125711Y26841D01*
X125043Y27354D01*
X124265Y27677D01*
X123429Y27787D01*
D02*
G37*
G36*
X59213Y22756D02*
X57047D01*
Y19000D01*
Y15244D01*
X59213D01*
Y15544D01*
X64818D01*
Y16533D01*
X65239Y17163D01*
X66000Y17012D01*
X66761Y17163D01*
X67406Y17594D01*
X67837Y18239D01*
X67988Y19000D01*
X67837Y19761D01*
X67406Y20406D01*
X66761Y20837D01*
X66000Y20988D01*
X65239Y20837D01*
X64818Y21467D01*
Y22456D01*
X59213D01*
Y22756D01*
D02*
G37*
G36*
X117929Y17059D02*
X116891D01*
X117307Y16437D01*
X117929Y16021D01*
Y17059D01*
D02*
G37*
G36*
X26300Y17250D02*
X21300D01*
Y15000D01*
X26300D01*
Y17250D01*
D02*
G37*
G36*
X33300D02*
X28300D01*
Y15000D01*
X33300D01*
Y17250D01*
D02*
G37*
G36*
X55047Y18000D02*
X52882D01*
Y15244D01*
X55047D01*
Y18000D01*
D02*
G37*
G36*
X6000Y36355D02*
X5968Y36351D01*
X5007Y35953D01*
X4181Y35319D01*
X3547Y34493D01*
X3149Y33532D01*
X3145Y33500D01*
X6000D01*
Y36355D01*
D02*
G37*
G36*
X76766Y71456D02*
Y71456D01*
X76587Y71456D01*
X76500D01*
X76413D01*
X76234Y71456D01*
X76234Y71456D01*
Y71456D01*
X70682D01*
Y64544D01*
X76234D01*
X76234Y64544D01*
Y64544D01*
X76413Y64544D01*
X76500D01*
X76587D01*
X76766Y64544D01*
X76766Y64544D01*
Y64544D01*
X82318D01*
Y71456D01*
X76766D01*
X76766Y71456D01*
D02*
G37*
G36*
X17500Y73000D02*
X16462D01*
X16878Y72378D01*
X17500Y71962D01*
Y73000D01*
D02*
G37*
G36*
X20538D02*
X19500D01*
Y71962D01*
X20122Y72378D01*
X20538Y73000D01*
D02*
G37*
G36*
X120467Y71559D02*
X119429D01*
Y70521D01*
X120051Y70937D01*
X120467Y71559D01*
D02*
G37*
G36*
X107885Y72377D02*
X100973D01*
Y66825D01*
X100973Y66825D01*
X100973D01*
X100973Y66646D01*
Y66559D01*
Y66472D01*
X100973Y66293D01*
X100973Y66293D01*
X100973D01*
Y65340D01*
X100760D01*
X100097Y65208D01*
X99535Y64832D01*
X97391Y62688D01*
X97000Y62850D01*
Y62297D01*
X94962Y60259D01*
X94500Y60450D01*
Y64250D01*
X83100D01*
Y59083D01*
X57640D01*
X57261Y59337D01*
X56500Y59488D01*
X55739Y59337D01*
X55094Y58906D01*
X54663Y58261D01*
X54512Y57500D01*
X54663Y56739D01*
X55094Y56094D01*
X55739Y55663D01*
X56500Y55512D01*
X57027Y55617D01*
X70682D01*
Y49044D01*
X76413D01*
Y49044D01*
X76587Y49044D01*
Y49044D01*
X82318D01*
Y50767D01*
X83100D01*
Y50450D01*
X94500D01*
Y55617D01*
X94504D01*
X95167Y55749D01*
X95730Y56124D01*
X96538Y56933D01*
X96929Y56771D01*
Y57324D01*
X100530Y60925D01*
X100973Y60741D01*
Y60741D01*
X100973Y60741D01*
X107883D01*
X107883Y60741D01*
Y60741D01*
X107885Y60741D01*
X107885D01*
X108236Y60638D01*
X108239Y60638D01*
X108239Y60638D01*
Y60638D01*
X110500D01*
Y62819D01*
Y65000D01*
X108239D01*
X108239Y65000D01*
Y65000D01*
X108236Y65000D01*
X107885Y65351D01*
Y66293D01*
X107885Y66293D01*
X107885D01*
X107885Y66472D01*
Y66559D01*
Y66646D01*
X107885Y66825D01*
X107885Y66825D01*
X107885D01*
Y68311D01*
X111500D01*
X112038Y68418D01*
X114464D01*
Y72180D01*
X112038D01*
X111500Y72287D01*
X107885D01*
Y72377D01*
D02*
G37*
G36*
X114764Y65000D02*
X112500D01*
Y63819D01*
X114764D01*
Y65000D01*
D02*
G37*
G36*
X117429Y71559D02*
X116391D01*
X116807Y70937D01*
X117429Y70521D01*
Y71559D01*
D02*
G37*
G36*
Y74597D02*
X116807Y74181D01*
X116391Y73559D01*
X117429D01*
Y74597D01*
D02*
G37*
G36*
X131791Y100982D02*
Y94000D01*
X134580D01*
Y97331D01*
X134451Y98311D01*
X134072Y99225D01*
X133470Y100010D01*
X132685Y100611D01*
X131791Y100982D01*
D02*
G37*
G36*
X118768Y110898D02*
X111786D01*
X112156Y110003D01*
X112758Y109219D01*
X113543Y108617D01*
X114456Y108238D01*
X115437Y108109D01*
X118768D01*
Y110898D01*
D02*
G37*
G36*
X127750D02*
X120768D01*
Y108109D01*
X124098D01*
X125079Y108238D01*
X125993Y108617D01*
X126777Y109219D01*
X127379Y110003D01*
X127750Y110898D01*
D02*
G37*
G36*
X129791Y100982D02*
X128897Y100611D01*
X128113Y100010D01*
X127511Y99225D01*
X127132Y98311D01*
X127003Y97331D01*
Y94000D01*
X129791D01*
Y100982D01*
D02*
G37*
G36*
X119429Y74597D02*
Y73559D01*
X120467D01*
X120051Y74181D01*
X119429Y74597D01*
D02*
G37*
G36*
X129791Y92000D02*
X127003D01*
Y88669D01*
X127132Y87689D01*
X127511Y86775D01*
X128113Y85991D01*
X128897Y85388D01*
X129791Y85018D01*
Y92000D01*
D02*
G37*
G36*
X134580D02*
X131791D01*
Y85018D01*
X132685Y85388D01*
X133470Y85991D01*
X134072Y86775D01*
X134451Y87689D01*
X134580Y88669D01*
Y92000D01*
D02*
G37*
G36*
X114764Y61819D02*
X112500D01*
Y60638D01*
X114764D01*
Y61819D01*
D02*
G37*
G36*
X117500Y45500D02*
X116462D01*
X116878Y44878D01*
X117500Y44462D01*
Y45500D01*
D02*
G37*
G36*
X120538D02*
X119500D01*
Y44462D01*
X120122Y44878D01*
X120538Y45500D01*
D02*
G37*
G36*
X114764Y47319D02*
X112500D01*
Y46138D01*
X114764D01*
Y47319D01*
D02*
G37*
G36*
X33100Y48450D02*
X21700D01*
Y42550D01*
X33100D01*
Y48450D01*
D02*
G37*
G36*
X8000Y36355D02*
Y33500D01*
X10855D01*
X10851Y33532D01*
X10453Y34493D01*
X9819Y35319D01*
X8993Y35953D01*
X8032Y36351D01*
X8000Y36355D01*
D02*
G37*
G36*
X114764Y37000D02*
X112500D01*
Y35819D01*
X114764D01*
Y37000D01*
D02*
G37*
G36*
X135582Y43712D02*
X128276D01*
Y36406D01*
X135582D01*
Y43712D01*
D02*
G37*
G36*
Y57212D02*
X128276D01*
Y55287D01*
X120358D01*
X119523Y55177D01*
X118745Y54854D01*
X118076Y54341D01*
X117768Y53940D01*
X117394D01*
Y53266D01*
X117241Y52894D01*
X117131Y52059D01*
X117241Y51224D01*
X117394Y50852D01*
Y50178D01*
X117768D01*
X118076Y49777D01*
X118745Y49264D01*
X118796Y49243D01*
X118651Y48764D01*
X118500Y48794D01*
X117622Y48619D01*
X116878Y48122D01*
X116462Y47500D01*
X120538D01*
X120122Y48122D01*
X119658Y48432D01*
X119834Y48900D01*
X120358Y48831D01*
X130429D01*
X131264Y48941D01*
X132043Y49264D01*
X132711Y49777D01*
X132841Y49906D01*
X135582D01*
Y57212D01*
D02*
G37*
G36*
X120358Y69787D02*
X119523Y69677D01*
X118745Y69354D01*
X118076Y68841D01*
X117768Y68440D01*
X117394D01*
Y67766D01*
X117241Y67394D01*
X117131Y66559D01*
X117241Y65724D01*
X117394Y65352D01*
Y64678D01*
X117768D01*
X118076Y64277D01*
X121076Y61277D01*
X121410Y61020D01*
X121745Y60764D01*
X122523Y60441D01*
X123358Y60331D01*
X130176D01*
X130976Y60000D01*
X131929Y59875D01*
X132883Y60000D01*
X133771Y60368D01*
X134534Y60954D01*
X135120Y61717D01*
X135488Y62606D01*
X135613Y63559D01*
X135488Y64513D01*
X135120Y65401D01*
X134534Y66164D01*
X133771Y66750D01*
X132883Y67118D01*
X131929Y67243D01*
X130976Y67118D01*
X130176Y66787D01*
X124695D01*
X123322Y68160D01*
Y68440D01*
X123042D01*
X122641Y68841D01*
X121972Y69354D01*
X121194Y69677D01*
X120358Y69787D01*
D02*
G37*
G36*
X117429Y61597D02*
X116807Y61181D01*
X116391Y60559D01*
X117429D01*
Y61597D01*
D02*
G37*
G36*
X119429D02*
Y60559D01*
X120467D01*
X120051Y61181D01*
X119429Y61597D01*
D02*
G37*
G36*
X120467Y58559D02*
X119429D01*
Y57521D01*
X120051Y57937D01*
X120467Y58559D01*
D02*
G37*
G36*
X114764Y50500D02*
X112500D01*
Y49319D01*
X114764D01*
Y50500D01*
D02*
G37*
G36*
X107885Y59877D02*
X100973D01*
Y54325D01*
X100973Y54325D01*
X100973D01*
X100973Y54146D01*
Y54059D01*
Y53972D01*
X100973Y53793D01*
X100973Y53793D01*
X100973D01*
Y50102D01*
X97391Y46520D01*
X97000Y46681D01*
Y46128D01*
X94962Y44090D01*
X94500Y44282D01*
Y48550D01*
X83100D01*
Y43383D01*
X78150D01*
X77487Y43251D01*
X77460Y43233D01*
X65916D01*
X65761Y43337D01*
X65000Y43488D01*
X64239Y43337D01*
X63594Y42906D01*
X63163Y42261D01*
X63012Y41500D01*
X63163Y40739D01*
X63594Y40094D01*
X64239Y39663D01*
X65000Y39512D01*
X65761Y39663D01*
X65916Y39767D01*
X78000D01*
X78663Y39899D01*
X78690Y39917D01*
X83100D01*
Y34650D01*
X94500D01*
Y35867D01*
X96682D01*
X97000Y35549D01*
Y34996D01*
X97391Y35158D01*
X98168Y34381D01*
X98730Y34005D01*
X99394Y33873D01*
X100973D01*
Y32741D01*
X107883D01*
X107883Y32741D01*
Y32741D01*
X107885Y32741D01*
X107885D01*
X108236Y32638D01*
X108239Y32638D01*
X108239Y32638D01*
Y32638D01*
X110500D01*
Y34819D01*
Y37000D01*
X108239D01*
X108239Y37000D01*
Y37000D01*
X108236Y37000D01*
X107885Y37351D01*
Y38293D01*
X107885Y38293D01*
X107885D01*
X107885Y38472D01*
Y38559D01*
Y38646D01*
X107885Y38825D01*
X107885Y38825D01*
X107885D01*
Y40311D01*
X111500D01*
X112038Y40418D01*
X114464D01*
Y44180D01*
X112038D01*
X111500Y44287D01*
X107885D01*
Y44377D01*
X100973D01*
Y38825D01*
X100973Y38825D01*
X100973D01*
X100973Y38646D01*
Y38559D01*
Y38472D01*
X100973Y38293D01*
X100973Y38293D01*
X100973D01*
Y37340D01*
X100112D01*
X98626Y38826D01*
X98063Y39201D01*
X97400Y39333D01*
X96929D01*
Y41155D01*
X104015Y48241D01*
X107883D01*
X107883Y48241D01*
Y48241D01*
X107885Y48241D01*
X108236Y47890D01*
Y46138D01*
X110500D01*
Y48319D01*
Y50500D01*
X108239D01*
X108239Y50500D01*
Y50500D01*
X108236Y50500D01*
X107885Y50851D01*
Y53793D01*
X107885Y53793D01*
X107885D01*
X107885Y53972D01*
Y54059D01*
Y54146D01*
X107885Y54325D01*
X107885Y54325D01*
X107885D01*
Y55024D01*
X108536D01*
Y53918D01*
X110962D01*
X111500Y53811D01*
X112038Y53918D01*
X114464D01*
Y57680D01*
X112431D01*
X111693Y58418D01*
X111048Y58849D01*
X110287Y59000D01*
X107885D01*
Y59877D01*
D02*
G37*
G36*
X117429Y58559D02*
X116391D01*
X116807Y57937D01*
X117429Y57521D01*
Y58559D01*
D02*
G37*
%LPD*%
D10*
X94547Y103500D02*
D03*
X100453D02*
D03*
X73547Y52500D02*
D03*
X79453D02*
D03*
X73547Y68000D02*
D03*
X79453D02*
D03*
X37047Y39500D02*
D03*
X42953D02*
D03*
X61953Y19000D02*
D03*
X56047D02*
D03*
X37047Y32500D02*
D03*
X42953D02*
D03*
X37047Y25500D02*
D03*
X42953D02*
D03*
D11*
X66500Y81500D02*
D03*
Y106000D02*
D03*
X32000Y81500D02*
D03*
Y106000D02*
D03*
D12*
X84500Y81500D02*
D03*
Y106000D02*
D03*
X50000Y81500D02*
D03*
Y106000D02*
D03*
D13*
X120358Y52059D02*
D03*
X111500Y48319D02*
D03*
Y55799D02*
D03*
X120358Y66559D02*
D03*
X111500Y62819D02*
D03*
Y70299D02*
D03*
X120358Y38559D02*
D03*
X111500Y34819D02*
D03*
Y42299D02*
D03*
X120358Y10559D02*
D03*
X111500Y6819D02*
D03*
Y14299D02*
D03*
X120358Y24559D02*
D03*
X111500Y20819D02*
D03*
Y28299D02*
D03*
D14*
X104429Y63606D02*
D03*
Y69512D02*
D03*
Y7606D02*
D03*
Y13512D02*
D03*
Y51106D02*
D03*
Y57012D02*
D03*
Y35606D02*
D03*
Y41512D02*
D03*
Y21106D02*
D03*
Y27012D02*
D03*
D15*
X7957Y83500D02*
D03*
D16*
X18587Y89406D02*
D03*
Y77595D02*
D03*
D17*
X17799Y83500D02*
D03*
D18*
X5000Y101500D02*
X7000Y99500D01*
X18802Y89621D02*
X51621D01*
X56047Y19000D02*
Y34453D01*
X50000Y40500D02*
X56047Y34453D01*
X50000Y40500D02*
Y81500D01*
X90000Y90500D02*
X97000Y83500D01*
X76500Y90500D02*
X90000D01*
X67500Y81500D02*
X76500Y90500D01*
X66500Y81500D02*
X67500D01*
X91500Y97500D02*
X94547Y100547D01*
X59500Y97500D02*
X91500D01*
X51621Y89621D02*
X59500Y97500D01*
X7000Y84457D02*
X7957Y83500D01*
X7000Y84457D02*
Y99500D01*
X94547Y100547D02*
Y103500D01*
X107957Y93000D02*
Y95996D01*
X100453Y103500D02*
X107957Y95996D01*
X97500Y93000D02*
X107957D01*
X97000Y93500D02*
X97500Y93000D01*
X130429Y52059D02*
X131929Y53559D01*
X120358Y52059D02*
X130429D01*
X123358Y63559D02*
X131929D01*
X120358Y66559D02*
X123358Y63559D01*
X131929Y10559D02*
X132429Y10059D01*
X120358Y10559D02*
X131929D01*
X127929Y20059D02*
X132429D01*
X123429Y24559D02*
X127929Y20059D01*
X120358Y24559D02*
X123429D01*
X128858Y30059D02*
X132429D01*
X120358Y38559D02*
X128858Y30059D01*
D19*
X18802Y89621D02*
X19500Y90319D01*
X18587Y89406D02*
X18802Y89621D01*
X19500Y90319D02*
Y93000D01*
X88800Y69100D02*
Y77200D01*
X84500Y81500D02*
X88800Y77200D01*
X7957Y74543D02*
X8500Y74000D01*
X7957Y74543D02*
Y83500D01*
X104429Y69512D02*
X105217Y70299D01*
X111500D01*
X104429Y57012D02*
X110287D01*
X111500Y55799D01*
X104429Y41512D02*
X105217Y42299D01*
X111500D01*
X104429Y27012D02*
X105717Y28299D01*
X111500D01*
X104429Y13512D02*
X105217Y14299D01*
X111500D01*
D20*
X56500Y57350D02*
X94504D01*
X87900Y52500D02*
X88800Y53400D01*
X79453Y52500D02*
X87900D01*
X46500Y32500D02*
X46500Y32500D01*
X42953Y32500D02*
X46500D01*
X61953Y19000D02*
X66000D01*
X65000Y41500D02*
X78000D01*
X78150Y41650D01*
X18500Y74000D02*
Y77508D01*
X18587Y77595D01*
X32000Y81500D02*
X37000Y76500D01*
Y61000D02*
Y76500D01*
X33350Y57350D02*
X37000Y61000D01*
X21796Y57350D02*
X33350D01*
X7000Y42554D02*
X21796Y57350D01*
X7000Y42500D02*
Y42554D01*
X11900Y37600D02*
X27400D01*
X7000Y42500D02*
X11900Y37600D01*
X7957Y83500D02*
X17799D01*
X15800Y61300D02*
X27400D01*
X7000Y52500D02*
X15800Y61300D01*
X13600Y69100D02*
X27400D01*
X7000Y62500D02*
X13600Y69100D01*
X39000Y19000D02*
X42500D01*
X34000Y14000D02*
X39000Y19000D01*
X27300Y14000D02*
X34000D01*
X7000Y32500D02*
X16000Y23500D01*
Y17500D02*
Y23500D01*
Y17500D02*
X19500Y14000D01*
X27300D01*
X42500Y19000D02*
X42953Y19453D01*
Y25500D01*
Y32500D02*
Y39500D01*
X27300Y21900D02*
X30900Y25500D01*
X37047D01*
X27300Y29700D02*
X30100Y32500D01*
X37047D01*
X35147Y37600D02*
X37047Y39500D01*
X27400Y37600D02*
X35147D01*
X32000Y96000D02*
Y106000D01*
X94973Y41650D02*
X104429Y51106D01*
X78150Y41650D02*
X94973D01*
X94504Y57350D02*
X100760Y63606D01*
X104429D01*
X88800Y22000D02*
X95500D01*
X97500Y20000D01*
Y9500D02*
Y20000D01*
Y9500D02*
X99394Y7606D01*
X104429D01*
X88800Y29800D02*
X95200D01*
X97500Y27500D01*
Y24500D02*
Y27500D01*
Y24500D02*
X100894Y21106D01*
X104429D01*
X88800Y37600D02*
X97400D01*
X99394Y35606D01*
X104429D01*
X61953Y19000D02*
X61953Y19000D01*
X42500Y19000D02*
X56047D01*
D21*
X27400Y69100D02*
D03*
Y61300D02*
D03*
Y53300D02*
D03*
Y45500D02*
D03*
Y37600D02*
D03*
X27300Y29700D02*
D03*
Y21900D02*
D03*
X88800Y14100D02*
D03*
Y29800D02*
D03*
Y37600D02*
D03*
Y45600D02*
D03*
Y53400D02*
D03*
Y61300D02*
D03*
Y69100D02*
D03*
X27300Y14000D02*
D03*
X88800Y22000D02*
D03*
D22*
X38400Y5900D02*
D03*
X46400D02*
D03*
X54200D02*
D03*
X62200D02*
D03*
X70000D02*
D03*
X77800D02*
D03*
D23*
X5000Y101500D02*
D03*
X97000Y93500D02*
D03*
D24*
X15000Y101500D02*
D03*
D25*
X97000Y83500D02*
D03*
D26*
X7000Y22500D02*
D03*
Y32500D02*
D03*
Y42500D02*
D03*
Y52500D02*
D03*
X131929Y63559D02*
D03*
Y10059D02*
D03*
Y20059D02*
D03*
Y30059D02*
D03*
D27*
X7000Y62500D02*
D03*
X131929Y53559D02*
D03*
Y40059D02*
D03*
D28*
X130791Y93000D02*
D03*
X107957D02*
D03*
D29*
X119768Y111898D02*
D03*
D30*
X19500Y93000D02*
D03*
X56500Y57500D02*
D03*
X46500Y32500D02*
D03*
X66000Y19000D02*
D03*
X65000Y41500D02*
D03*
X73547Y52500D02*
D03*
Y68000D02*
D03*
X84500Y106500D02*
D03*
Y81500D02*
D03*
X8500Y74000D02*
D03*
X18500D02*
D03*
X32000Y81500D02*
D03*
Y96000D02*
D03*
X50000Y81500D02*
D03*
X66500D02*
D03*
X66000Y106000D02*
D03*
X50000D02*
D03*
X118429Y72559D02*
D03*
X118500Y46500D02*
D03*
X118429Y59559D02*
D03*
X118929Y3059D02*
D03*
Y18059D02*
D03*
X118429Y31059D02*
D03*
M02*
