%FSLAX25Y25*%
%MOIN*%
G70*
G01*
G75*
G04 Layer_Physical_Order=2*
G04 Layer_Color=16711680*
%ADD10R,0.04331X0.05512*%
%ADD11R,0.05906X0.09843*%
%ADD12R,0.05906X0.09843*%
%ADD13R,0.04528X0.02362*%
%ADD14R,0.05512X0.04331*%
G04:AMPARAMS|DCode=15|XSize=74.8mil|YSize=125.98mil|CornerRadius=0mil|HoleSize=0mil|Usage=FLASHONLY|Rotation=270.000|XOffset=0mil|YOffset=0mil|HoleType=Round|Shape=Octagon|*
%AMOCTAGOND15*
4,1,8,0.06299,0.01870,0.06299,-0.01870,0.04429,-0.03740,-0.04429,-0.03740,-0.06299,-0.01870,-0.06299,0.01870,-0.04429,0.03740,0.04429,0.03740,0.06299,0.01870,0.0*
%
%ADD15OCTAGOND15*%

%ADD16R,0.05512X0.02362*%
%ADD17R,0.07087X0.02362*%
%ADD18C,0.05000*%
%ADD19C,0.02500*%
%ADD20C,0.02000*%
%ADD21R,0.10000X0.04500*%
%ADD22R,0.05500X0.10000*%
%ADD23C,0.05315*%
%ADD24R,0.05315X0.05315*%
%ADD25R,0.05315X0.05315*%
%ADD26C,0.05906*%
%ADD27R,0.05906X0.05906*%
%ADD28O,0.05512X0.14173*%
%ADD29O,0.14173X0.05512*%
%ADD30C,0.02500*%
%ADD31C,0.10000*%
G36*
X96215Y1000D02*
X81250D01*
Y11600D01*
X74350D01*
Y1000D01*
X73450D01*
Y11600D01*
X66550D01*
Y1000D01*
X65650D01*
Y11600D01*
X58750D01*
Y1000D01*
X57650D01*
Y11600D01*
X50750D01*
Y1000D01*
X49850D01*
Y11600D01*
X42950D01*
Y1000D01*
X41850D01*
Y11600D01*
X34950D01*
Y1000D01*
X500D01*
Y75000D01*
X16317D01*
X16634Y74613D01*
X16512Y74000D01*
X16663Y73239D01*
X17094Y72594D01*
X17739Y72163D01*
X18500Y72012D01*
X19261Y72163D01*
X19906Y72594D01*
X22312Y75000D01*
X96215D01*
Y1000D01*
D02*
G37*
G36*
X138500D02*
X120790D01*
X120554Y1441D01*
X120967Y2059D01*
X116891D01*
X117304Y1441D01*
X117069Y1000D01*
X96929D01*
Y79843D01*
X100657D01*
Y82500D01*
X97000D01*
Y84500D01*
X100657D01*
Y87157D01*
X96929D01*
Y90051D01*
X97000Y90114D01*
X97877Y90229D01*
X98693Y90567D01*
X99395Y91105D01*
X99933Y91807D01*
X100271Y92624D01*
X100387Y93500D01*
X100271Y94376D01*
X99933Y95193D01*
X99395Y95895D01*
X98693Y96433D01*
X97877Y96771D01*
X97000Y96886D01*
X96929Y96949D01*
Y115500D01*
X113184D01*
X113345Y115026D01*
X112758Y114576D01*
X112156Y113792D01*
X111786Y112898D01*
X127750D01*
X127379Y113792D01*
X126777Y114576D01*
X126190Y115026D01*
X126351Y115500D01*
X138500D01*
Y1000D01*
D02*
G37*
%LPC*%
G36*
X33000Y32650D02*
X21600D01*
Y26750D01*
X33000D01*
Y32650D01*
D02*
G37*
G36*
X131929Y33743D02*
X130976Y33618D01*
X130087Y33250D01*
X129324Y32664D01*
X128738Y31901D01*
X128370Y31013D01*
X128245Y30059D01*
X128370Y29105D01*
X128738Y28217D01*
X129324Y27454D01*
X130087Y26868D01*
X130976Y26500D01*
X131929Y26375D01*
X132883Y26500D01*
X133771Y26868D01*
X134534Y27454D01*
X135120Y28217D01*
X135488Y29105D01*
X135613Y30059D01*
X135488Y31013D01*
X135120Y31901D01*
X134534Y32664D01*
X133771Y33250D01*
X132883Y33618D01*
X131929Y33743D01*
D02*
G37*
G36*
X7000Y36184D02*
X6046Y36059D01*
X5158Y35691D01*
X4395Y35105D01*
X3809Y34342D01*
X3441Y33454D01*
X3316Y32500D01*
X3441Y31546D01*
X3809Y30658D01*
X4395Y29895D01*
X5158Y29309D01*
X6046Y28941D01*
X7000Y28816D01*
X7954Y28941D01*
X8842Y29309D01*
X9605Y29895D01*
X10191Y30658D01*
X10559Y31546D01*
X10684Y32500D01*
X10559Y33454D01*
X10191Y34342D01*
X9605Y35105D01*
X8842Y35691D01*
X7954Y36059D01*
X7000Y36184D01*
D02*
G37*
G36*
X94500Y32750D02*
X83100D01*
Y26850D01*
X94500D01*
Y32750D01*
D02*
G37*
G36*
X65000Y21038D02*
X64378Y20622D01*
X63962Y20000D01*
X65000D01*
Y21038D01*
D02*
G37*
G36*
X119929Y20097D02*
Y19059D01*
X120967D01*
X120551Y19681D01*
X119929Y20097D01*
D02*
G37*
G36*
X67000Y21038D02*
Y20000D01*
X68038D01*
X67622Y20622D01*
X67000Y21038D01*
D02*
G37*
G36*
X8000Y26355D02*
Y23500D01*
X10855D01*
X10851Y23532D01*
X10453Y24493D01*
X9819Y25319D01*
X8993Y25953D01*
X8032Y26351D01*
X8000Y26355D01*
D02*
G37*
G36*
X6000D02*
X5968Y26351D01*
X5007Y25953D01*
X4181Y25319D01*
X3547Y24493D01*
X3149Y23532D01*
X3145Y23500D01*
X6000D01*
Y26355D01*
D02*
G37*
G36*
X47500Y34538D02*
Y33500D01*
X48538D01*
X48122Y34122D01*
X47500Y34538D01*
D02*
G37*
G36*
X45500D02*
X44878Y34122D01*
X44462Y33500D01*
X45500D01*
Y34538D01*
D02*
G37*
G36*
X94500Y40550D02*
X83100D01*
Y34650D01*
X94500D01*
Y40550D01*
D02*
G37*
G36*
X33100D02*
X21700D01*
Y34650D01*
X33100D01*
Y40550D01*
D02*
G37*
G36*
X107957Y100816D02*
X107054Y100698D01*
X106214Y100349D01*
X105492Y99796D01*
X104938Y99074D01*
X104590Y98233D01*
X104497Y97530D01*
X103891Y97065D01*
X103435Y96609D01*
X102521Y95418D01*
X101947Y94031D01*
X101751Y92543D01*
Y46659D01*
X101947Y45171D01*
X102521Y43785D01*
X103435Y42594D01*
X111485Y34544D01*
X112676Y33630D01*
X113082Y33462D01*
X114062Y33056D01*
X115550Y32860D01*
X116396D01*
X116632Y32419D01*
X116391Y32059D01*
X120467D01*
X120227Y32419D01*
X120462Y32860D01*
X121308D01*
X122796Y33056D01*
X124182Y33630D01*
X125068Y34310D01*
X131929D01*
X133417Y34506D01*
X134804Y35080D01*
X135994Y35994D01*
X136908Y37185D01*
X137482Y38571D01*
X137678Y40059D01*
X137482Y41547D01*
X136908Y42934D01*
X135994Y44124D01*
X134804Y45038D01*
X133417Y45612D01*
X131929Y45808D01*
X122758D01*
X121270Y45612D01*
X121049Y45521D01*
X120662Y45838D01*
X120794Y46500D01*
X120619Y47378D01*
X120122Y48122D01*
X119500Y48538D01*
Y46500D01*
X117500D01*
Y48538D01*
X116878Y48122D01*
X116381Y47378D01*
X116240Y46673D01*
X115762Y46528D01*
X113249Y49041D01*
Y90882D01*
X113510Y91512D01*
X113706Y93000D01*
X113510Y94488D01*
X112936Y95875D01*
X112022Y97065D01*
X111416Y97530D01*
X111324Y98233D01*
X110975Y99074D01*
X110422Y99796D01*
X109699Y100349D01*
X108859Y100698D01*
X107957Y100816D01*
D02*
G37*
G36*
X120467Y30059D02*
X119429D01*
Y29021D01*
X120051Y29437D01*
X120467Y30059D01*
D02*
G37*
G36*
X117429D02*
X116391D01*
X116807Y29437D01*
X117429Y29021D01*
Y30059D01*
D02*
G37*
G36*
X48538Y31500D02*
X47500D01*
Y30462D01*
X48122Y30878D01*
X48538Y31500D01*
D02*
G37*
G36*
X45500D02*
X44462D01*
X44878Y30878D01*
X45500Y30462D01*
Y31500D01*
D02*
G37*
G36*
X87800Y17350D02*
X82800D01*
Y15100D01*
X87800D01*
Y17350D01*
D02*
G37*
G36*
X33000Y16950D02*
X21600D01*
Y11050D01*
X33000D01*
Y16950D01*
D02*
G37*
G36*
X117929Y17059D02*
X116891D01*
X117307Y16437D01*
X117929Y16021D01*
Y17059D01*
D02*
G37*
G36*
X94800Y17350D02*
X89800D01*
Y15100D01*
X94800D01*
Y17350D01*
D02*
G37*
G36*
Y13100D02*
X89800D01*
Y10850D01*
X94800D01*
Y13100D01*
D02*
G37*
G36*
X119929Y5097D02*
Y4059D01*
X120967D01*
X120551Y4681D01*
X119929Y5097D01*
D02*
G37*
G36*
X117929D02*
X117307Y4681D01*
X116891Y4059D01*
X117929D01*
Y5097D01*
D02*
G37*
G36*
X87800Y13100D02*
X82800D01*
Y10850D01*
X87800D01*
Y13100D01*
D02*
G37*
G36*
X131929Y13743D02*
X130976Y13618D01*
X130087Y13250D01*
X129324Y12664D01*
X128738Y11901D01*
X128370Y11013D01*
X128245Y10059D01*
X128370Y9105D01*
X128738Y8217D01*
X129324Y7454D01*
X130087Y6868D01*
X130976Y6500D01*
X131929Y6375D01*
X132883Y6500D01*
X133771Y6868D01*
X134534Y7454D01*
X135120Y8217D01*
X135488Y9105D01*
X135613Y10059D01*
X135488Y11013D01*
X135120Y11901D01*
X134534Y12664D01*
X133771Y13250D01*
X132883Y13618D01*
X131929Y13743D01*
D02*
G37*
G36*
X33000Y24850D02*
X21600D01*
Y18950D01*
X33000D01*
Y24850D01*
D02*
G37*
G36*
X10855Y21500D02*
X8000D01*
Y18645D01*
X8032Y18649D01*
X8993Y19047D01*
X9819Y19681D01*
X10453Y20507D01*
X10851Y21468D01*
X10855Y21500D01*
D02*
G37*
G36*
X117929Y20097D02*
X117307Y19681D01*
X116891Y19059D01*
X117929D01*
Y20097D01*
D02*
G37*
G36*
X94500Y24950D02*
X83100D01*
Y19050D01*
X94500D01*
Y24950D01*
D02*
G37*
G36*
X6000Y21500D02*
X3145D01*
X3149Y21468D01*
X3547Y20507D01*
X4181Y19681D01*
X5007Y19047D01*
X5968Y18649D01*
X6000Y18645D01*
Y21500D01*
D02*
G37*
G36*
X131929Y23743D02*
X130976Y23618D01*
X130087Y23250D01*
X129324Y22664D01*
X128738Y21901D01*
X128370Y21013D01*
X128245Y20059D01*
X128370Y19105D01*
X128738Y18217D01*
X129324Y17454D01*
X130087Y16868D01*
X130976Y16500D01*
X131929Y16375D01*
X132883Y16500D01*
X133771Y16868D01*
X134534Y17454D01*
X135120Y18217D01*
X135488Y19105D01*
X135613Y20059D01*
X135488Y21013D01*
X135120Y21901D01*
X134534Y22664D01*
X133771Y23250D01*
X132883Y23618D01*
X131929Y23743D01*
D02*
G37*
G36*
X120967Y17059D02*
X119929D01*
Y16021D01*
X120551Y16437D01*
X120967Y17059D01*
D02*
G37*
G36*
X68038Y18000D02*
X67000D01*
Y16962D01*
X67622Y17378D01*
X68038Y18000D01*
D02*
G37*
G36*
X65000D02*
X63962D01*
X64378Y17378D01*
X65000Y16962D01*
Y18000D01*
D02*
G37*
G36*
X7000Y46184D02*
X6046Y46059D01*
X5158Y45691D01*
X4395Y45105D01*
X3809Y44342D01*
X3441Y43454D01*
X3316Y42500D01*
X3441Y41546D01*
X3809Y40658D01*
X4395Y39895D01*
X5158Y39309D01*
X6046Y38941D01*
X7000Y38816D01*
X7954Y38941D01*
X8842Y39309D01*
X9605Y39895D01*
X10191Y40658D01*
X10559Y41546D01*
X10684Y42500D01*
X10559Y43454D01*
X10191Y44342D01*
X9605Y45105D01*
X8842Y45691D01*
X7954Y46059D01*
X7000Y46184D01*
D02*
G37*
G36*
X117429Y71559D02*
X116391D01*
X116807Y70937D01*
X117429Y70521D01*
Y71559D01*
D02*
G37*
G36*
X74547Y70038D02*
Y69000D01*
X75585D01*
X75169Y69622D01*
X74547Y70038D01*
D02*
G37*
G36*
X7500Y73000D02*
X6462D01*
X6878Y72378D01*
X7500Y71962D01*
Y73000D01*
D02*
G37*
G36*
X120467Y71559D02*
X119429D01*
Y70521D01*
X120051Y70937D01*
X120467Y71559D01*
D02*
G37*
G36*
X72547Y70038D02*
X71925Y69622D01*
X71509Y69000D01*
X72547D01*
Y70038D01*
D02*
G37*
G36*
X75585Y67000D02*
X74547D01*
Y65962D01*
X75169Y66378D01*
X75585Y67000D01*
D02*
G37*
G36*
X72547D02*
X71509D01*
X71925Y66378D01*
X72547Y65962D01*
Y67000D01*
D02*
G37*
G36*
X94500Y72050D02*
X83100D01*
Y66150D01*
X94500D01*
Y72050D01*
D02*
G37*
G36*
X33100D02*
X21700D01*
Y66150D01*
X33100D01*
Y72050D01*
D02*
G37*
G36*
X131791Y100982D02*
Y94000D01*
X134580D01*
Y97331D01*
X134451Y98311D01*
X134072Y99225D01*
X133470Y100010D01*
X132685Y100611D01*
X131791Y100982D01*
D02*
G37*
G36*
X129791D02*
X128897Y100611D01*
X128113Y100010D01*
X127511Y99225D01*
X127132Y98311D01*
X127003Y97331D01*
Y94000D01*
X129791D01*
Y100982D01*
D02*
G37*
G36*
X127750Y110898D02*
X120768D01*
Y108109D01*
X124098D01*
X125079Y108238D01*
X125993Y108617D01*
X126777Y109219D01*
X127379Y110003D01*
X127750Y110898D01*
D02*
G37*
G36*
X118768D02*
X111786D01*
X112156Y110003D01*
X112758Y109219D01*
X113543Y108617D01*
X114456Y108238D01*
X115437Y108109D01*
X118768D01*
Y110898D01*
D02*
G37*
G36*
X134580Y92000D02*
X131791D01*
Y85018D01*
X132685Y85388D01*
X133470Y85991D01*
X134072Y86775D01*
X134451Y87689D01*
X134580Y88669D01*
Y92000D01*
D02*
G37*
G36*
X117429Y74597D02*
X116807Y74181D01*
X116391Y73559D01*
X117429D01*
Y74597D01*
D02*
G37*
G36*
X10538Y73000D02*
X9500D01*
Y71962D01*
X10122Y72378D01*
X10538Y73000D01*
D02*
G37*
G36*
X129791Y92000D02*
X127003D01*
Y88669D01*
X127132Y87689D01*
X127511Y86775D01*
X128113Y85991D01*
X128897Y85388D01*
X129791Y85018D01*
Y92000D01*
D02*
G37*
G36*
X119429Y74597D02*
Y73559D01*
X120467D01*
X120051Y74181D01*
X119429Y74597D01*
D02*
G37*
G36*
X75585Y51500D02*
X74547D01*
Y50462D01*
X75169Y50878D01*
X75585Y51500D01*
D02*
G37*
G36*
X72547D02*
X71509D01*
X71925Y50878D01*
X72547Y50462D01*
Y51500D01*
D02*
G37*
G36*
X74547Y54538D02*
Y53500D01*
X75585D01*
X75169Y54122D01*
X74547Y54538D01*
D02*
G37*
G36*
X72547D02*
X71925Y54122D01*
X71509Y53500D01*
X72547D01*
Y54538D01*
D02*
G37*
G36*
X94500Y56350D02*
X83100D01*
Y50450D01*
X94500D01*
Y56350D01*
D02*
G37*
G36*
Y48550D02*
X83100D01*
Y42650D01*
X94500D01*
Y48550D01*
D02*
G37*
G36*
X33100Y48450D02*
X21700D01*
Y42550D01*
X33100D01*
Y43767D01*
X35282D01*
X38774Y40274D01*
X39337Y39899D01*
X40000Y39767D01*
X64084D01*
X64239Y39663D01*
X65000Y39512D01*
X65761Y39663D01*
X66406Y40094D01*
X66837Y40739D01*
X66988Y41500D01*
X66837Y42261D01*
X66406Y42906D01*
X65761Y43337D01*
X65000Y43488D01*
X64239Y43337D01*
X64084Y43233D01*
X40718D01*
X37226Y46726D01*
X36663Y47101D01*
X36000Y47233D01*
X33100D01*
Y48450D01*
D02*
G37*
G36*
X135582Y57212D02*
X128276D01*
Y49906D01*
X135582D01*
Y57212D01*
D02*
G37*
G36*
X7000Y56184D02*
X6046Y56059D01*
X5158Y55691D01*
X4395Y55105D01*
X3809Y54342D01*
X3441Y53454D01*
X3316Y52500D01*
X3441Y51546D01*
X3809Y50658D01*
X4395Y49895D01*
X5158Y49309D01*
X6046Y48941D01*
X7000Y48816D01*
X7954Y48941D01*
X8842Y49309D01*
X9605Y49895D01*
X10191Y50658D01*
X10559Y51546D01*
X10684Y52500D01*
X10559Y53454D01*
X10191Y54342D01*
X9605Y55105D01*
X8842Y55691D01*
X7954Y56059D01*
X7000Y56184D01*
D02*
G37*
G36*
X131929Y67243D02*
X130976Y67118D01*
X130087Y66750D01*
X129324Y66164D01*
X128738Y65401D01*
X128370Y64513D01*
X128245Y63559D01*
X128370Y62606D01*
X128738Y61717D01*
X129324Y60954D01*
X130087Y60368D01*
X130976Y60000D01*
X131929Y59875D01*
X132883Y60000D01*
X133771Y60368D01*
X134534Y60954D01*
X135120Y61717D01*
X135488Y62606D01*
X135613Y63559D01*
X135488Y64513D01*
X135120Y65401D01*
X134534Y66164D01*
X133771Y66750D01*
X132883Y67118D01*
X131929Y67243D01*
D02*
G37*
G36*
X10653Y66153D02*
X3347D01*
Y58847D01*
X10653D01*
Y66153D01*
D02*
G37*
G36*
X119429Y61597D02*
Y60559D01*
X120467D01*
X120051Y61181D01*
X119429Y61597D01*
D02*
G37*
G36*
X117429D02*
X116807Y61181D01*
X116391Y60559D01*
X117429D01*
Y61597D01*
D02*
G37*
G36*
X94500Y64250D02*
X83100D01*
Y58350D01*
X94500D01*
Y64250D01*
D02*
G37*
G36*
X117429Y58559D02*
X116391D01*
X116807Y57937D01*
X117429Y57521D01*
Y58559D01*
D02*
G37*
G36*
X56500Y59488D02*
X55739Y59337D01*
X55094Y58906D01*
X54663Y58261D01*
X54627Y58078D01*
X51582Y55033D01*
X33100D01*
Y56250D01*
X21700D01*
Y50350D01*
X33100D01*
Y51567D01*
X52300D01*
X52963Y51699D01*
X53526Y52074D01*
X57078Y55627D01*
X57261Y55663D01*
X57906Y56094D01*
X58337Y56739D01*
X58488Y57500D01*
X58337Y58261D01*
X57906Y58906D01*
X57261Y59337D01*
X56500Y59488D01*
D02*
G37*
G36*
X33100Y64250D02*
X21700D01*
Y58350D01*
X33100D01*
Y64250D01*
D02*
G37*
G36*
X120467Y58559D02*
X119429D01*
Y57521D01*
X120051Y57937D01*
X120467Y58559D01*
D02*
G37*
%LPD*%
D14*
X10500Y87047D02*
D03*
Y92953D02*
D03*
D18*
X23500Y101500D02*
X35000D01*
X15000D02*
X23500D01*
X50000Y81500D02*
Y106000D01*
X66500Y81500D02*
Y105500D01*
X66000Y106000D02*
X66500Y105500D01*
X50000Y106000D02*
X66000D01*
X39500D02*
X50000D01*
X35000Y101500D02*
X39500Y106000D01*
D19*
X13547Y87047D02*
X19500Y93000D01*
X10500Y87047D02*
X13547D01*
X10500Y97000D02*
X15000Y101500D01*
X10500Y92953D02*
Y97000D01*
X23500Y79000D02*
Y101500D01*
X18500Y74000D02*
X23500Y79000D01*
X116500Y48500D02*
X118500Y46500D01*
X120500Y48500D01*
X84500Y81500D02*
Y106500D01*
X119768Y104024D02*
X130791Y93000D01*
X119768Y104024D02*
Y111898D01*
D20*
X52300Y53300D02*
X56500Y57500D01*
X27400Y53300D02*
X52300D01*
X48000Y19000D02*
X66000D01*
X34054D02*
X48000D01*
Y31000D01*
X46500Y32500D02*
X48000Y31000D01*
X74000Y19000D02*
X77500D01*
X66000D02*
X74000D01*
X73547Y19453D02*
X74000Y19000D01*
X73547Y19453D02*
Y52500D01*
X40000Y41500D02*
X65000D01*
X73547Y52500D02*
Y68000D01*
X7000Y22500D02*
X15000Y30500D01*
Y67500D01*
X8500Y74000D02*
X15000Y67500D01*
X33004Y17950D02*
X34054Y19000D01*
X8050Y17950D02*
X33004D01*
X7000Y19000D02*
X8050Y17950D01*
X7000Y19000D02*
Y22500D01*
X32000Y81500D02*
Y96000D01*
X27400Y45500D02*
X36000D01*
X40000Y41500D01*
X77500Y19000D02*
X82000Y14500D01*
X88400D01*
X88800Y14100D01*
D21*
X27400Y69100D02*
D03*
Y61300D02*
D03*
Y53300D02*
D03*
Y45500D02*
D03*
Y37600D02*
D03*
X27300Y29700D02*
D03*
Y21900D02*
D03*
X88800Y14100D02*
D03*
Y29800D02*
D03*
Y37600D02*
D03*
Y45600D02*
D03*
Y53400D02*
D03*
Y61300D02*
D03*
Y69100D02*
D03*
X27300Y14000D02*
D03*
X88800Y22000D02*
D03*
D22*
X38400Y5900D02*
D03*
X46400D02*
D03*
X54200D02*
D03*
X62200D02*
D03*
X70000D02*
D03*
X77800D02*
D03*
D23*
X5000Y101500D02*
D03*
X97000Y93500D02*
D03*
D24*
X15000Y101500D02*
D03*
D25*
X97000Y83500D02*
D03*
D26*
X7000Y22500D02*
D03*
Y32500D02*
D03*
Y42500D02*
D03*
Y52500D02*
D03*
X131929Y63559D02*
D03*
Y10059D02*
D03*
Y20059D02*
D03*
Y30059D02*
D03*
D27*
X7000Y62500D02*
D03*
X131929Y53559D02*
D03*
Y40059D02*
D03*
D28*
X130791Y93000D02*
D03*
X107957D02*
D03*
D29*
X119768Y111898D02*
D03*
D30*
X19500Y93000D02*
D03*
X56500Y57500D02*
D03*
X46500Y32500D02*
D03*
X66000Y19000D02*
D03*
X65000Y41500D02*
D03*
X73547Y52500D02*
D03*
Y68000D02*
D03*
X84500Y106500D02*
D03*
Y81500D02*
D03*
X8500Y74000D02*
D03*
X18500D02*
D03*
X32000Y81500D02*
D03*
Y96000D02*
D03*
X50000Y81500D02*
D03*
X66500D02*
D03*
X66000Y106000D02*
D03*
X50000D02*
D03*
X118429Y72559D02*
D03*
X118500Y46500D02*
D03*
X118429Y59559D02*
D03*
X118929Y3059D02*
D03*
Y18059D02*
D03*
X118429Y31059D02*
D03*
D31*
X107500Y92543D02*
X107957Y93000D01*
X107500Y46659D02*
Y92543D01*
Y46659D02*
X115550Y38609D01*
X121308D01*
X122758Y40059D01*
X131929D01*
M02*
