%FSLAX25Y25*%
%MOIN*%
G70*
G01*
G75*
G04 Layer_Color=32896*
%ADD10R,0.04331X0.05512*%
%ADD11R,0.05906X0.09843*%
%ADD12R,0.05906X0.09843*%
%ADD13R,0.04528X0.02362*%
%ADD14R,0.05512X0.04331*%
G04:AMPARAMS|DCode=15|XSize=74.8mil|YSize=125.98mil|CornerRadius=0mil|HoleSize=0mil|Usage=FLASHONLY|Rotation=270.000|XOffset=0mil|YOffset=0mil|HoleType=Round|Shape=Octagon|*
%AMOCTAGOND15*
4,1,8,0.06299,0.01870,0.06299,-0.01870,0.04429,-0.03740,-0.04429,-0.03740,-0.06299,-0.01870,-0.06299,0.01870,-0.04429,0.03740,0.04429,0.03740,0.06299,0.01870,0.0*
%
%ADD15OCTAGOND15*%

%ADD16R,0.05512X0.02362*%
%ADD17R,0.07087X0.02362*%
%ADD18C,0.05000*%
%ADD19C,0.02500*%
%ADD20C,0.02000*%
%ADD21R,0.10000X0.04500*%
%ADD22R,0.05500X0.10000*%
%ADD23C,0.05315*%
%ADD24R,0.05315X0.05315*%
%ADD25R,0.05315X0.05315*%
%ADD26C,0.05906*%
%ADD27R,0.05906X0.05906*%
%ADD28O,0.05512X0.14173*%
%ADD29O,0.14173X0.05512*%
%ADD30C,0.02500*%
%ADD31C,0.10000*%
%ADD32C,0.00984*%
%ADD33C,0.00787*%
%ADD34C,0.00700*%
%ADD35R,0.05131X0.06312*%
%ADD36R,0.06706X0.10642*%
%ADD37R,0.06706X0.10642*%
%ADD38R,0.05328X0.03162*%
%ADD39R,0.06312X0.05131*%
G04:AMPARAMS|DCode=40|XSize=82.8mil|YSize=133.98mil|CornerRadius=0mil|HoleSize=0mil|Usage=FLASHONLY|Rotation=270.000|XOffset=0mil|YOffset=0mil|HoleType=Round|Shape=Octagon|*
%AMOCTAGOND40*
4,1,8,0.06699,0.02070,0.06699,-0.02070,0.04629,-0.04140,-0.04629,-0.04140,-0.06699,-0.02070,-0.06699,0.02070,-0.04629,0.04140,0.04629,0.04140,0.06699,0.02070,0.0*
%
%ADD40OCTAGOND40*%

%ADD41R,0.06312X0.03162*%
%ADD42R,0.07887X0.03162*%
%ADD43R,0.10800X0.05300*%
%ADD44R,0.06300X0.10800*%
%ADD45C,0.06115*%
%ADD46R,0.06115X0.06115*%
%ADD47R,0.06115X0.06115*%
%ADD48C,0.06706*%
%ADD49R,0.06706X0.06706*%
%ADD50O,0.06312X0.14973*%
%ADD51O,0.14973X0.06312*%
%ADD52C,0.03300*%
%ADD53C,0.00394*%
%ADD54C,0.01000*%
%ADD55C,0.00050*%
D34*
X50501Y67334D02*
Y70000D01*
X54500D01*
Y67334D01*
X52501Y70000D02*
Y68667D01*
X51168Y63336D02*
X50501Y64002D01*
Y65335D01*
X51168Y66001D01*
X51834D01*
X52501Y65335D01*
Y64002D01*
X53167Y63336D01*
X53834D01*
X54500Y64002D01*
Y65335D01*
X53834Y66001D01*
X54500Y62003D02*
X50501D01*
Y60003D01*
X51168Y59337D01*
X52501D01*
X53167Y60003D01*
Y62003D01*
X51168Y58004D02*
X50501Y57337D01*
Y56005D01*
X51168Y55338D01*
X51834D01*
X52501Y56005D01*
X53167Y55338D01*
X53834D01*
X54500Y56005D01*
Y57337D01*
X53834Y58004D01*
X53167D01*
X52501Y57337D01*
X51834Y58004D01*
X51168D01*
X52501Y57337D02*
Y56005D01*
X54500Y51339D02*
Y54005D01*
X51834Y51339D01*
X51168D01*
X50501Y52006D01*
Y53339D01*
X51168Y54005D01*
X50501Y47341D02*
X51168Y48674D01*
X52501Y50007D01*
X53834D01*
X54500Y49340D01*
Y48007D01*
X53834Y47341D01*
X53167D01*
X52501Y48007D01*
Y50007D01*
X50501Y43342D02*
X51168Y44675D01*
X52501Y46008D01*
X53834D01*
X54500Y45341D01*
Y44008D01*
X53834Y43342D01*
X53167D01*
X52501Y44008D01*
Y46008D01*
Y42009D02*
Y39343D01*
X54500Y38010D02*
Y36677D01*
Y37344D01*
X50501D01*
X51168Y38010D01*
X54500Y32012D02*
Y34678D01*
X51834Y32012D01*
X51168D01*
X50501Y32679D01*
Y34012D01*
X51168Y34678D01*
X54500Y29346D02*
X53167Y30679D01*
X51834D01*
X50501Y29346D01*
Y24681D02*
Y27347D01*
X54500D01*
Y24681D01*
X52501Y27347D02*
Y26014D01*
X54500Y23348D02*
X53167Y22016D01*
X51834D01*
X50501Y23348D01*
X6000Y97500D02*
Y96167D01*
Y96834D01*
X2001D01*
X2668Y97500D01*
Y94168D02*
X2001Y93501D01*
Y92168D01*
X2668Y91502D01*
X5334D01*
X6000Y92168D01*
Y93501D01*
X5334Y94168D01*
X2668D01*
Y90169D02*
X2001Y89503D01*
Y88170D01*
X2668Y87503D01*
X5334D01*
X6000Y88170D01*
Y89503D01*
X5334Y90169D01*
X2668D01*
X6000Y86170D02*
X3334D01*
Y84171D01*
X4001Y83504D01*
X6000D01*
X2001Y79506D02*
Y82172D01*
X4001D01*
Y80839D01*
Y82172D01*
X6000D01*
X23000Y105500D02*
X21001Y107499D01*
X23000Y109499D01*
X17668Y105500D02*
Y109499D01*
X19668Y107499D01*
X17002D01*
X15669Y105500D02*
Y106167D01*
X15003D01*
Y105500D01*
X15669D01*
X12337Y109499D02*
X9671D01*
Y108832D01*
X12337Y106167D01*
Y105500D01*
X8338Y108166D02*
Y106167D01*
X7672Y105500D01*
X5672D01*
Y108166D01*
X1674Y109499D02*
X4339D01*
Y107499D01*
X3006D01*
X4339D01*
Y105500D01*
X99500Y79500D02*
X97501Y77501D01*
X95501Y79500D01*
X99500Y74168D02*
X95501D01*
X97501Y76168D01*
Y73502D01*
X99500Y72169D02*
X98834D01*
Y71503D01*
X99500D01*
Y72169D01*
X95501Y68837D02*
Y66171D01*
X96168D01*
X98834Y68837D01*
X99500D01*
X96834Y64838D02*
X98834D01*
X99500Y64172D01*
Y62172D01*
X96834D01*
X95501Y58174D02*
Y60839D01*
X97501D01*
Y59506D01*
Y60839D01*
X99500D01*
D53*
X10591Y103981D02*
G03*
X10593Y99020I11742J-2475D01*
G01*
X99481Y87909D02*
G03*
X94520Y87907I-2475J-11742D01*
G01*
X7500Y104000D02*
X8500D01*
X8000Y103500D02*
Y104500D01*
X9500Y99000D02*
Y104000D01*
X8000Y101500D02*
X9500D01*
X10500Y101500D02*
X12000D01*
X99500Y90000D02*
Y91000D01*
X99000Y90500D02*
X100000D01*
X94500Y89000D02*
X99500D01*
X97000D02*
Y90500D01*
X97000Y86500D02*
Y88000D01*
D54*
X26000Y103000D02*
X90000D01*
X26000Y73000D02*
Y103000D01*
Y7500D02*
Y10500D01*
Y7500D02*
X34000D01*
X82000D02*
X90000D01*
Y10000D01*
Y73000D02*
Y103000D01*
D55*
X47350Y95000D02*
X66150D01*
X47050Y94950D02*
X66450D01*
X46850Y94900D02*
X66650D01*
X46650Y94850D02*
X66850D01*
X46500Y94800D02*
X67000D01*
X46350Y94750D02*
X67150D01*
X46250Y94700D02*
X67250D01*
X46100Y94650D02*
X67400D01*
X43100D02*
X43600D01*
X46000Y94600D02*
X67500D01*
X43000D02*
X43750D01*
X52900Y94550D02*
X67600D01*
X45900D02*
X47250D01*
X42900D02*
X43800D01*
X53200Y94500D02*
X67700D01*
X45800D02*
X47000D01*
X43500D02*
X43850D01*
X42850D02*
X43200D01*
X53350Y94450D02*
X67800D01*
X45700D02*
X46800D01*
X43650D02*
X43950D01*
X42800D02*
X43050D01*
X53550Y94400D02*
X67850D01*
X45650D02*
X46600D01*
X43700D02*
X43950D01*
X42750D02*
X43000D01*
X53650Y94350D02*
X67950D01*
X45550D02*
X46450D01*
X43800D02*
X44000D01*
X42700D02*
X42950D01*
X53800Y94300D02*
X68050D01*
X45500D02*
X46350D01*
X43850D02*
X44050D01*
X43250D02*
X43700D01*
X42700D02*
X42900D01*
X53900Y94250D02*
X68100D01*
X45400D02*
X46200D01*
X43850D02*
X44050D01*
X43100D02*
X43700D01*
X42650D02*
X42850D01*
X54000Y94200D02*
X68150D01*
X45350D02*
X46100D01*
X43900D02*
X44100D01*
X43050D02*
X43700D01*
X42650D02*
X42800D01*
X54100Y94150D02*
X68250D01*
X45250D02*
X46000D01*
X43900D02*
X44100D01*
X43550D02*
X43700D01*
X43050D02*
X43300D01*
X42600D02*
X42800D01*
X54200Y94100D02*
X68300D01*
X45200D02*
X45900D01*
X43950D02*
X44100D01*
X43550D02*
X43700D01*
X43050D02*
X43250D01*
X42600D02*
X42750D01*
X54300Y94050D02*
X68350D01*
X45150D02*
X45850D01*
X43950D02*
X44150D01*
X43550D02*
X43700D01*
X43050D02*
X43250D01*
X42600D02*
X42750D01*
X54350Y94000D02*
X68450D01*
X45050D02*
X45750D01*
X43950D02*
X44150D01*
X43550D02*
X43700D01*
X43050D02*
X43250D01*
X42600D02*
X42750D01*
X54450Y93950D02*
X68500D01*
X45000D02*
X45700D01*
X43950D02*
X44150D01*
X43050D02*
X43700D01*
X42550D02*
X42750D01*
X54500Y93900D02*
X68550D01*
X44950D02*
X45600D01*
X43950D02*
X44150D01*
X43100D02*
X43700D01*
X42550D02*
X42750D01*
X54600Y93850D02*
X68600D01*
X44900D02*
X45550D01*
X44000D02*
X44150D01*
X43200D02*
X43700D01*
X42550D02*
X42750D01*
X54650Y93800D02*
X68650D01*
X44850D02*
X45450D01*
X43950D02*
X44150D01*
X43550D02*
X43700D01*
X43200D02*
X43450D01*
X42550D02*
X42750D01*
X54700Y93750D02*
X68700D01*
X44800D02*
X45400D01*
X43950D02*
X44150D01*
X43550D02*
X43700D01*
X43150D02*
X43350D01*
X42600D02*
X42750D01*
X54750Y93700D02*
X68750D01*
X44750D02*
X45350D01*
X43950D02*
X44150D01*
X43550D02*
X43700D01*
X43100D02*
X43350D01*
X42600D02*
X42750D01*
X54850Y93650D02*
X68800D01*
X44700D02*
X45250D01*
X43950D02*
X44100D01*
X43550D02*
X43700D01*
X43100D02*
X43300D01*
X42600D02*
X42800D01*
X54900Y93600D02*
X68850D01*
X44650D02*
X45200D01*
X43900D02*
X44100D01*
X43550D02*
X43700D01*
X43050D02*
X43250D01*
X42600D02*
X42800D01*
X54950Y93550D02*
X68900D01*
X44600D02*
X45150D01*
X43900D02*
X44050D01*
X43550D02*
X43700D01*
X43000D02*
X43250D01*
X42650D02*
X42850D01*
X55000Y93500D02*
X68950D01*
X44550D02*
X45100D01*
X43850D02*
X44050D01*
X43550D02*
X43700D01*
X43000D02*
X43200D01*
X42650D02*
X42850D01*
X55050Y93450D02*
X69000D01*
X44500D02*
X45050D01*
X43800D02*
X44000D01*
X42700D02*
X42900D01*
X55100Y93400D02*
X69050D01*
X44500D02*
X45000D01*
X43750D02*
X44000D01*
X42750D02*
X43000D01*
X55150Y93350D02*
X69050D01*
X44450D02*
X44950D01*
X43650D02*
X43950D01*
X42800D02*
X43050D01*
X55150Y93300D02*
X69100D01*
X44400D02*
X44900D01*
X43550D02*
X43900D01*
X42850D02*
X43150D01*
X55200Y93250D02*
X69150D01*
X44350D02*
X44850D01*
X42900D02*
X43800D01*
X55250Y93200D02*
X69200D01*
X44300D02*
X44850D01*
X42950D02*
X43750D01*
X55300Y93150D02*
X69200D01*
X44300D02*
X44800D01*
X43100D02*
X43600D01*
X55350Y93100D02*
X69250D01*
X44250D02*
X44750D01*
X55400Y93050D02*
X69300D01*
X44200D02*
X44700D01*
X55400Y93000D02*
X69350D01*
X44200D02*
X44650D01*
X55450Y92950D02*
X69350D01*
X44150D02*
X44650D01*
X55500Y92900D02*
X69400D01*
X44100D02*
X44600D01*
X55500Y92850D02*
X69400D01*
X44100D02*
X44550D01*
X55550Y92800D02*
X69450D01*
X44050D02*
X44550D01*
X55600Y92750D02*
X69500D01*
X44050D02*
X44500D01*
X55600Y92700D02*
X69500D01*
X44000D02*
X44450D01*
X55650Y92650D02*
X69550D01*
X43950D02*
X44450D01*
X55650Y92600D02*
X69550D01*
X43950D02*
X44400D01*
X55700Y92550D02*
X69600D01*
X43900D02*
X44400D01*
X55700Y92500D02*
X69600D01*
X43900D02*
X44350D01*
X55750Y92450D02*
X69650D01*
X43850D02*
X44300D01*
X58700Y92400D02*
X69650D01*
X55750D02*
X58450D01*
X47900D02*
X48100D01*
X43850D02*
X44300D01*
X58900Y92350D02*
X69700D01*
X55800D02*
X58300D01*
X47700D02*
X48300D01*
X43850D02*
X44250D01*
X59000Y92300D02*
X69700D01*
X55800D02*
X58200D01*
X47600D02*
X48400D01*
X43800D02*
X44250D01*
X67700Y92250D02*
X69700D01*
X67600D02*
X67650D01*
X66600D02*
X66700D01*
X64400D02*
X66550D01*
X63450D02*
X63500D01*
X63300D02*
X63400D01*
X61150D02*
X63250D01*
X60000D02*
X60050D01*
X59050D02*
X59950D01*
X55850D02*
X58100D01*
X47500D02*
X48450D01*
X43800D02*
X44250D01*
X67750Y92200D02*
X69750D01*
X64400D02*
X66400D01*
X61200D02*
X63250D01*
X59100D02*
X59950D01*
X55850D02*
X58050D01*
X49550D02*
X54100D01*
X47450D02*
X48500D01*
X43750D02*
X44200D01*
X67750Y92150D02*
X69750D01*
X64400D02*
X66400D01*
X61200D02*
X63200D01*
X59150D02*
X59950D01*
X55850D02*
X58000D01*
X49500D02*
X54100D01*
X47400D02*
X48550D01*
X43750D02*
X44200D01*
X67700Y92100D02*
X69800D01*
X64450D02*
X66400D01*
X61200D02*
X63200D01*
X59200D02*
X60000D01*
X55900D02*
X57950D01*
X49550D02*
X54100D01*
X47400D02*
X48600D01*
X43750D02*
X44150D01*
X67700Y92050D02*
X69800D01*
X64450D02*
X66400D01*
X61250D02*
X63200D01*
X59250D02*
X60000D01*
X55900D02*
X57950D01*
X49550D02*
X54100D01*
X47350D02*
X48650D01*
X43700D02*
X44150D01*
X67700Y92000D02*
X69800D01*
X64450D02*
X66350D01*
X61250D02*
X63200D01*
X59250D02*
X60000D01*
X55950D02*
X57900D01*
X49550D02*
X54100D01*
X47300D02*
X48650D01*
X43700D02*
X44150D01*
X67700Y91950D02*
X69850D01*
X64500D02*
X66350D01*
X61250D02*
X63150D01*
X59300D02*
X60000D01*
X55950D02*
X57900D01*
X49550D02*
X54100D01*
X47300D02*
X48700D01*
X43650D02*
X44100D01*
X67650Y91900D02*
X69850D01*
X64500D02*
X66350D01*
X61250D02*
X63150D01*
X59300D02*
X60050D01*
X55950D02*
X57850D01*
X49550D02*
X54100D01*
X47250D02*
X48700D01*
X43650D02*
X44100D01*
X67650Y91850D02*
X69850D01*
X64500D02*
X66350D01*
X61250D02*
X63150D01*
X59300D02*
X60050D01*
X56000D02*
X57850D01*
X49550D02*
X54100D01*
X47250D02*
X48700D01*
X43650D02*
X44050D01*
X67650Y91800D02*
X69900D01*
X64550D02*
X66300D01*
X61300D02*
X63100D01*
X59350D02*
X60050D01*
X56000D02*
X57850D01*
X49550D02*
X54100D01*
X47250D02*
X48750D01*
X43650D02*
X44050D01*
X67650Y91750D02*
X69900D01*
X64550D02*
X66300D01*
X61300D02*
X63100D01*
X59350D02*
X60050D01*
X56000D02*
X57850D01*
X49550D02*
X54100D01*
X47250D02*
X48750D01*
X43600D02*
X44050D01*
X67600Y91700D02*
X69900D01*
X64550D02*
X66300D01*
X61300D02*
X63100D01*
X59350D02*
X60100D01*
X56000D02*
X57850D01*
X49550D02*
X54100D01*
X47250D02*
X48750D01*
X43600D02*
X44050D01*
X67600Y91650D02*
X69900D01*
X64550D02*
X66300D01*
X61300D02*
X63100D01*
X59350D02*
X60100D01*
X56050D02*
X57800D01*
X49550D02*
X54100D01*
X47250D02*
X48750D01*
X43600D02*
X44000D01*
X67600Y91600D02*
X69950D01*
X64600D02*
X66300D01*
X61350D02*
X63050D01*
X59350D02*
X60100D01*
X56050D02*
X57850D01*
X49550D02*
X54100D01*
X47250D02*
X48750D01*
X43550D02*
X44000D01*
X67600Y91550D02*
X69950D01*
X64600D02*
X66250D01*
X61350D02*
X63050D01*
X59350D02*
X60100D01*
X56050D02*
X57850D01*
X49550D02*
X54100D01*
X47250D02*
X48750D01*
X43550D02*
X44000D01*
X67550Y91500D02*
X69950D01*
X64600D02*
X66250D01*
X61350D02*
X63050D01*
X59300D02*
X60150D01*
X56050D02*
X57850D01*
X49550D02*
X54100D01*
X47250D02*
X48750D01*
X43550D02*
X44000D01*
X67550Y91450D02*
X69950D01*
X64650D02*
X66250D01*
X61350D02*
X63000D01*
X59300D02*
X60150D01*
X56100D02*
X57850D01*
X49550D02*
X54100D01*
X47250D02*
X48700D01*
X43550D02*
X43950D01*
X67550Y91400D02*
X69950D01*
X64650D02*
X66250D01*
X61400D02*
X63000D01*
X59300D02*
X60150D01*
X56100D02*
X57850D01*
X49550D02*
X54100D01*
X47300D02*
X48700D01*
X43550D02*
X43950D01*
X67500Y91350D02*
X70000D01*
X64650D02*
X66200D01*
X61400D02*
X63000D01*
X59300D02*
X60150D01*
X56100D02*
X57900D01*
X49550D02*
X54100D01*
X47300D02*
X48700D01*
X43500D02*
X43950D01*
X67500Y91300D02*
X70000D01*
X64650D02*
X66200D01*
X61400D02*
X63000D01*
X59250D02*
X60200D01*
X56100D02*
X57900D01*
X49550D02*
X54100D01*
X47300D02*
X48650D01*
X43500D02*
X43950D01*
X67500Y91250D02*
X70000D01*
X64700D02*
X66200D01*
X61400D02*
X62950D01*
X59250D02*
X60200D01*
X56100D02*
X57950D01*
X49550D02*
X54100D01*
X47350D02*
X48650D01*
X43500D02*
X43950D01*
X67500Y91200D02*
X70000D01*
X64700D02*
X66200D01*
X61450D02*
X62950D01*
X59200D02*
X60200D01*
X56100D02*
X58000D01*
X49550D02*
X54100D01*
X47400D02*
X48600D01*
X43500D02*
X43900D01*
X67450Y91150D02*
X70000D01*
X64700D02*
X66200D01*
X61450D02*
X62950D01*
X59150D02*
X60250D01*
X56100D02*
X58000D01*
X49550D02*
X54100D01*
X47400D02*
X48550D01*
X43500D02*
X43900D01*
X67450Y91100D02*
X70000D01*
X64750D02*
X66150D01*
X61450D02*
X62900D01*
X59100D02*
X60250D01*
X56150D02*
X58050D01*
X49500D02*
X54100D01*
X47450D02*
X48500D01*
X43500D02*
X43900D01*
X67450Y91050D02*
X70000D01*
X64750D02*
X66150D01*
X61450D02*
X62900D01*
X59050D02*
X60250D01*
X56150D02*
X58100D01*
X49550D02*
X54100D01*
X47550D02*
X48450D01*
X43500D02*
X43900D01*
X67450Y91000D02*
X70050D01*
X64750D02*
X66150D01*
X61450D02*
X62900D01*
X58950D02*
X60250D01*
X56150D02*
X58200D01*
X52750D02*
X54100D01*
X47600D02*
X48400D01*
X43450D02*
X43900D01*
X67400Y90950D02*
X70050D01*
X64800D02*
X66150D01*
X61500D02*
X62900D01*
X58850D02*
X60300D01*
X56150D02*
X58300D01*
X52750D02*
X54100D01*
X47700D02*
X48250D01*
X43450D02*
X43900D01*
X67400Y90900D02*
X70050D01*
X64800D02*
X66100D01*
X61500D02*
X62850D01*
X58650D02*
X60300D01*
X56150D02*
X58600D01*
X52750D02*
X54100D01*
X48000D02*
X48050D01*
X43450D02*
X43900D01*
X67400Y90850D02*
X70050D01*
X64800D02*
X66100D01*
X61500D02*
X62850D01*
X56150D02*
X60300D01*
X52750D02*
X54100D01*
X43450D02*
X43900D01*
X67400Y90800D02*
X70050D01*
X64800D02*
X66100D01*
X61500D02*
X62850D01*
X56150D02*
X60300D01*
X52750D02*
X54100D01*
X43450D02*
X43900D01*
X67350Y90750D02*
X70050D01*
X64850D02*
X66100D01*
X61500D02*
X62800D01*
X56150D02*
X60350D01*
X52750D02*
X54100D01*
X43450D02*
X43900D01*
X67350Y90700D02*
X70050D01*
X64850D02*
X66100D01*
X61550D02*
X62800D01*
X56150D02*
X60350D01*
X52750D02*
X54100D01*
X43450D02*
X43900D01*
X67350Y90650D02*
X70050D01*
X64850D02*
X66050D01*
X61550D02*
X62800D01*
X56150D02*
X60350D01*
X52750D02*
X54100D01*
X43450D02*
X43900D01*
X67300Y90600D02*
X70050D01*
X64900D02*
X66050D01*
X61550D02*
X62800D01*
X56150D02*
X60350D01*
X52750D02*
X54100D01*
X43450D02*
X43900D01*
X67300Y90550D02*
X70050D01*
X64900D02*
X66050D01*
X61550D02*
X62750D01*
X56150D02*
X60400D01*
X52750D02*
X54100D01*
X43450D02*
X43900D01*
X67300Y90500D02*
X70050D01*
X64900D02*
X66050D01*
X61600D02*
X62750D01*
X56150D02*
X60400D01*
X52750D02*
X54100D01*
X43450D02*
X43900D01*
X67300Y90450D02*
X70050D01*
X64900D02*
X66000D01*
X61600D02*
X62750D01*
X56150D02*
X60400D01*
X52750D02*
X54100D01*
X43450D02*
X43900D01*
X67250Y90400D02*
X70050D01*
X64950D02*
X66000D01*
X61600D02*
X62700D01*
X56150D02*
X60400D01*
X52750D02*
X54100D01*
X43450D02*
X43900D01*
X67250Y90350D02*
X70050D01*
X64950D02*
X66000D01*
X61600D02*
X62700D01*
X56150D02*
X60450D01*
X52750D02*
X54100D01*
X43450D02*
X43900D01*
X67250Y90300D02*
X70050D01*
X64950D02*
X66000D01*
X63850D02*
X63900D01*
X61650D02*
X62700D01*
X59250D02*
X60450D01*
X56150D02*
X57950D01*
X52750D02*
X54100D01*
X47350D02*
X48650D01*
X43450D02*
X43900D01*
X67250Y90250D02*
X70050D01*
X65000D02*
X65950D01*
X63800D02*
X63900D01*
X61650D02*
X62700D01*
X59250D02*
X60450D01*
X56150D02*
X57950D01*
X52750D02*
X54100D01*
X47350D02*
X48650D01*
X43450D02*
X43900D01*
X67200Y90200D02*
X70050D01*
X65000D02*
X65950D01*
X63800D02*
X63900D01*
X61650D02*
X62650D01*
X59250D02*
X60500D01*
X56150D02*
X57950D01*
X52750D02*
X54100D01*
X47350D02*
X48650D01*
X43450D02*
X43900D01*
X67200Y90150D02*
X70050D01*
X65000D02*
X65950D01*
X63800D02*
X63900D01*
X61650D02*
X62650D01*
X59250D02*
X60500D01*
X56150D02*
X57950D01*
X52750D02*
X54100D01*
X47350D02*
X48650D01*
X43450D02*
X43900D01*
X67200Y90100D02*
X70050D01*
X65050D02*
X65950D01*
X63800D02*
X63950D01*
X61700D02*
X62650D01*
X59250D02*
X60500D01*
X56150D02*
X57950D01*
X52750D02*
X54100D01*
X47350D02*
X48650D01*
X43450D02*
X43900D01*
X67200Y90050D02*
X70050D01*
X65050D02*
X65950D01*
X63750D02*
X63950D01*
X61700D02*
X62650D01*
X59200D02*
X60500D01*
X56150D02*
X57950D01*
X52750D02*
X54100D01*
X47350D02*
X48650D01*
X43450D02*
X43900D01*
X67150Y90000D02*
X70050D01*
X65050D02*
X65900D01*
X63750D02*
X63950D01*
X61700D02*
X62600D01*
X59250D02*
X60550D01*
X56150D02*
X57950D01*
X52750D02*
X54100D01*
X47350D02*
X48650D01*
X43450D02*
X43900D01*
X67150Y89950D02*
X70050D01*
X65050D02*
X65900D01*
X63750D02*
X64000D01*
X61700D02*
X62600D01*
X59250D02*
X60550D01*
X56150D02*
X57950D01*
X52750D02*
X54100D01*
X47350D02*
X48650D01*
X43450D02*
X43900D01*
X67150Y89900D02*
X70050D01*
X65100D02*
X65900D01*
X63700D02*
X64000D01*
X61700D02*
X62600D01*
X59250D02*
X60550D01*
X56150D02*
X57950D01*
X52750D02*
X54100D01*
X47350D02*
X48650D01*
X43450D02*
X43900D01*
X67100Y89850D02*
X70050D01*
X65100D02*
X65900D01*
X63700D02*
X64000D01*
X61750D02*
X62550D01*
X59250D02*
X60550D01*
X56150D02*
X57950D01*
X52750D02*
X54100D01*
X47350D02*
X48650D01*
X43450D02*
X43900D01*
X67100Y89800D02*
X70050D01*
X65100D02*
X65850D01*
X63700D02*
X64000D01*
X61750D02*
X62550D01*
X59250D02*
X60600D01*
X56150D02*
X57950D01*
X52750D02*
X54100D01*
X47350D02*
X48650D01*
X43450D02*
X43900D01*
X67100Y89750D02*
X70050D01*
X65150D02*
X65850D01*
X63700D02*
X64050D01*
X61750D02*
X62550D01*
X59250D02*
X60600D01*
X56150D02*
X57950D01*
X49750D02*
X54100D01*
X47350D02*
X48650D01*
X43450D02*
X43900D01*
X67100Y89700D02*
X70050D01*
X65150D02*
X65850D01*
X63650D02*
X64050D01*
X61750D02*
X62550D01*
X59250D02*
X60600D01*
X56150D02*
X57950D01*
X49750D02*
X54100D01*
X47350D02*
X48650D01*
X43450D02*
X43900D01*
X67050Y89650D02*
X70050D01*
X65150D02*
X65850D01*
X63650D02*
X64050D01*
X61800D02*
X62500D01*
X59250D02*
X60600D01*
X56150D02*
X57950D01*
X49750D02*
X54100D01*
X47350D02*
X48650D01*
X43450D02*
X43900D01*
X67050Y89600D02*
X70050D01*
X65200D02*
X65850D01*
X63650D02*
X64100D01*
X61800D02*
X62500D01*
X59250D02*
X60650D01*
X56150D02*
X57950D01*
X49750D02*
X54100D01*
X47350D02*
X48650D01*
X43450D02*
X43900D01*
X67050Y89550D02*
X70050D01*
X65200D02*
X65800D01*
X63600D02*
X64100D01*
X61800D02*
X62500D01*
X59250D02*
X60650D01*
X56150D02*
X57950D01*
X49750D02*
X54100D01*
X47350D02*
X48650D01*
X43450D02*
X43900D01*
X67050Y89500D02*
X70050D01*
X65200D02*
X65800D01*
X63600D02*
X64100D01*
X61800D02*
X62450D01*
X59250D02*
X60650D01*
X56150D02*
X57950D01*
X49750D02*
X54100D01*
X47350D02*
X48650D01*
X43450D02*
X43900D01*
X67000Y89450D02*
X70050D01*
X65200D02*
X65800D01*
X63600D02*
X64100D01*
X61850D02*
X62450D01*
X59250D02*
X60700D01*
X56150D02*
X57950D01*
X49750D02*
X54100D01*
X47350D02*
X48650D01*
X43450D02*
X43900D01*
X67000Y89400D02*
X70050D01*
X65250D02*
X65800D01*
X63600D02*
X64150D01*
X61850D02*
X62450D01*
X59250D02*
X60700D01*
X56150D02*
X57950D01*
X49750D02*
X54100D01*
X47350D02*
X48650D01*
X43450D02*
X43900D01*
X67000Y89350D02*
X70050D01*
X65250D02*
X65750D01*
X63550D02*
X64150D01*
X61850D02*
X62450D01*
X59250D02*
X60700D01*
X56150D02*
X57950D01*
X49750D02*
X54100D01*
X47350D02*
X48650D01*
X43450D02*
X43900D01*
X66950Y89300D02*
X70050D01*
X65250D02*
X65750D01*
X63550D02*
X64150D01*
X61850D02*
X62400D01*
X59250D02*
X60700D01*
X56150D02*
X57950D01*
X49750D02*
X54100D01*
X47350D02*
X48650D01*
X43450D02*
X43900D01*
X66950Y89250D02*
X70050D01*
X65300D02*
X65750D01*
X63550D02*
X64200D01*
X61850D02*
X62400D01*
X59250D02*
X60750D01*
X56150D02*
X57950D01*
X49750D02*
X54100D01*
X47350D02*
X48650D01*
X43450D02*
X43900D01*
X66950Y89200D02*
X70050D01*
X65300D02*
X65750D01*
X63500D02*
X64200D01*
X61900D02*
X62400D01*
X59250D02*
X60750D01*
X56150D02*
X57950D01*
X49750D02*
X54100D01*
X47350D02*
X48650D01*
X43450D02*
X43900D01*
X66950Y89150D02*
X70050D01*
X65300D02*
X65750D01*
X63500D02*
X64200D01*
X61900D02*
X62350D01*
X59250D02*
X60750D01*
X56150D02*
X57950D01*
X49750D02*
X54100D01*
X47350D02*
X48650D01*
X43450D02*
X43900D01*
X66900Y89100D02*
X70050D01*
X65300D02*
X65700D01*
X63500D02*
X64200D01*
X61900D02*
X62350D01*
X59250D02*
X60750D01*
X56150D02*
X57950D01*
X49750D02*
X54100D01*
X47350D02*
X48650D01*
X43450D02*
X43900D01*
X66900Y89050D02*
X70050D01*
X65350D02*
X65700D01*
X63500D02*
X64250D01*
X61900D02*
X62350D01*
X59250D02*
X60800D01*
X56150D02*
X57950D01*
X49750D02*
X54100D01*
X47350D02*
X48650D01*
X43450D02*
X43900D01*
X66900Y89000D02*
X70050D01*
X65350D02*
X65700D01*
X63450D02*
X64250D01*
X61950D02*
X62300D01*
X59250D02*
X60800D01*
X56150D02*
X57950D01*
X49750D02*
X54100D01*
X47350D02*
X48650D01*
X43450D02*
X43900D01*
X66900Y88950D02*
X70050D01*
X65350D02*
X65700D01*
X63450D02*
X64250D01*
X61950D02*
X62300D01*
X59250D02*
X60800D01*
X56150D02*
X57950D01*
X49750D02*
X54100D01*
X47350D02*
X48650D01*
X43450D02*
X43900D01*
X66850Y88900D02*
X70050D01*
X65400D02*
X65650D01*
X63450D02*
X64300D01*
X61950D02*
X62300D01*
X59250D02*
X60800D01*
X56150D02*
X57950D01*
X49750D02*
X54100D01*
X47350D02*
X48650D01*
X43450D02*
X43900D01*
X66850Y88850D02*
X70050D01*
X65400D02*
X65650D01*
X63400D02*
X64300D01*
X61950D02*
X62300D01*
X59250D02*
X60850D01*
X56150D02*
X57950D01*
X49750D02*
X54100D01*
X47350D02*
X48650D01*
X43450D02*
X43900D01*
X66850Y88800D02*
X70050D01*
X65400D02*
X65650D01*
X63400D02*
X64300D01*
X62000D02*
X62250D01*
X59250D02*
X60850D01*
X56150D02*
X57950D01*
X49750D02*
X54100D01*
X47350D02*
X48650D01*
X43450D02*
X43900D01*
X66850Y88750D02*
X70050D01*
X65450D02*
X65650D01*
X63400D02*
X64300D01*
X62000D02*
X62250D01*
X59250D02*
X60850D01*
X56150D02*
X57950D01*
X49750D02*
X54100D01*
X47350D02*
X48650D01*
X43450D02*
X43900D01*
X66800Y88700D02*
X70050D01*
X65450D02*
X65650D01*
X63400D02*
X64350D01*
X62000D02*
X62250D01*
X59250D02*
X60850D01*
X56150D02*
X57950D01*
X49750D02*
X54100D01*
X47350D02*
X48650D01*
X43450D02*
X43900D01*
X66800Y88650D02*
X70050D01*
X65450D02*
X65600D01*
X63350D02*
X64350D01*
X62000D02*
X62250D01*
X59250D02*
X60900D01*
X56150D02*
X57950D01*
X49750D02*
X54100D01*
X47350D02*
X48650D01*
X43450D02*
X43900D01*
X66800Y88600D02*
X70050D01*
X65450D02*
X65600D01*
X63350D02*
X64350D01*
X62000D02*
X62200D01*
X59250D02*
X60900D01*
X56150D02*
X57950D01*
X49750D02*
X54100D01*
X47350D02*
X48650D01*
X43450D02*
X43900D01*
X66750Y88550D02*
X70050D01*
X65500D02*
X65600D01*
X63350D02*
X64400D01*
X62050D02*
X62200D01*
X59250D02*
X60900D01*
X56150D02*
X57950D01*
X49750D02*
X54100D01*
X47350D02*
X48650D01*
X43450D02*
X43900D01*
X66750Y88500D02*
X70050D01*
X65500D02*
X65600D01*
X63300D02*
X64400D01*
X62050D02*
X62200D01*
X59250D02*
X60950D01*
X56150D02*
X57950D01*
X52750D02*
X54100D01*
X47350D02*
X48650D01*
X43450D02*
X43900D01*
X66750Y88450D02*
X70050D01*
X65500D02*
X65550D01*
X63300D02*
X64400D01*
X62050D02*
X62150D01*
X59250D02*
X60950D01*
X56150D02*
X57950D01*
X52750D02*
X54100D01*
X47350D02*
X48650D01*
X43450D02*
X43900D01*
X66750Y88400D02*
X70050D01*
X63300D02*
X64400D01*
X62050D02*
X62150D01*
X59250D02*
X60950D01*
X56150D02*
X57950D01*
X52750D02*
X54100D01*
X47350D02*
X48650D01*
X43450D02*
X43900D01*
X66700Y88350D02*
X70050D01*
X63300D02*
X64450D01*
X62100D02*
X62150D01*
X59250D02*
X60950D01*
X56150D02*
X57950D01*
X52750D02*
X54100D01*
X47350D02*
X48650D01*
X43450D02*
X43900D01*
X66700Y88300D02*
X70050D01*
X63250D02*
X64450D01*
X62100D02*
X62150D01*
X59250D02*
X61000D01*
X56150D02*
X57950D01*
X52750D02*
X54100D01*
X47350D02*
X48650D01*
X43450D02*
X43900D01*
X66700Y88250D02*
X70050D01*
X63250D02*
X64450D01*
X59250D02*
X61000D01*
X56150D02*
X57950D01*
X52750D02*
X54100D01*
X47350D02*
X48650D01*
X43450D02*
X43900D01*
X66700Y88200D02*
X70050D01*
X63250D02*
X64500D01*
X59250D02*
X61000D01*
X56150D02*
X57950D01*
X52750D02*
X54100D01*
X47350D02*
X48650D01*
X43450D02*
X43900D01*
X66650Y88150D02*
X70050D01*
X63200D02*
X64500D01*
X59250D02*
X61000D01*
X56150D02*
X57950D01*
X52750D02*
X54100D01*
X47350D02*
X48650D01*
X43450D02*
X43900D01*
X66650Y88100D02*
X70050D01*
X63200D02*
X64500D01*
X59250D02*
X61050D01*
X56150D02*
X57950D01*
X52750D02*
X54100D01*
X47350D02*
X48650D01*
X43450D02*
X43900D01*
X66650Y88050D02*
X70050D01*
X63200D02*
X64550D01*
X59250D02*
X61050D01*
X56150D02*
X57950D01*
X52750D02*
X54100D01*
X47350D02*
X48650D01*
X43450D02*
X43900D01*
X66600Y88000D02*
X70050D01*
X63150D02*
X64550D01*
X59250D02*
X61050D01*
X56150D02*
X57950D01*
X52750D02*
X54100D01*
X47350D02*
X48650D01*
X43450D02*
X43900D01*
X66600Y87950D02*
X70050D01*
X63150D02*
X64550D01*
X59250D02*
X61050D01*
X56150D02*
X57950D01*
X52750D02*
X54100D01*
X47350D02*
X48650D01*
X43450D02*
X43900D01*
X66600Y87900D02*
X70050D01*
X63150D02*
X64550D01*
X59250D02*
X61100D01*
X56150D02*
X57950D01*
X52750D02*
X54100D01*
X47350D02*
X48650D01*
X43450D02*
X43900D01*
X66600Y87850D02*
X70050D01*
X63150D02*
X64600D01*
X59250D02*
X61100D01*
X56150D02*
X57950D01*
X52750D02*
X54100D01*
X47350D02*
X48650D01*
X43450D02*
X43900D01*
X66550Y87800D02*
X70050D01*
X63100D02*
X64600D01*
X59250D02*
X61100D01*
X56150D02*
X57950D01*
X52750D02*
X54100D01*
X47350D02*
X48650D01*
X43450D02*
X43900D01*
X66550Y87750D02*
X70050D01*
X63100D02*
X64600D01*
X59250D02*
X61100D01*
X56150D02*
X57950D01*
X52750D02*
X54100D01*
X47350D02*
X48650D01*
X43450D02*
X43900D01*
X66550Y87700D02*
X70050D01*
X63100D02*
X64650D01*
X59250D02*
X61150D01*
X56150D02*
X57950D01*
X52750D02*
X54100D01*
X47350D02*
X48650D01*
X43450D02*
X43900D01*
X66550Y87650D02*
X70050D01*
X63100D02*
X64650D01*
X59250D02*
X61150D01*
X56150D02*
X57950D01*
X52750D02*
X54100D01*
X47350D02*
X48650D01*
X43450D02*
X43900D01*
X66500Y87600D02*
X70050D01*
X63050D02*
X64650D01*
X59250D02*
X61150D01*
X56150D02*
X57950D01*
X52750D02*
X54100D01*
X47350D02*
X48650D01*
X43450D02*
X43900D01*
X66500Y87550D02*
X70050D01*
X63050D02*
X64650D01*
X59250D02*
X61200D01*
X56150D02*
X57950D01*
X52750D02*
X54100D01*
X47350D02*
X48650D01*
X43450D02*
X43900D01*
X66500Y87500D02*
X70050D01*
X63050D02*
X64700D01*
X59250D02*
X61200D01*
X56150D02*
X57950D01*
X52750D02*
X54100D01*
X47350D02*
X48650D01*
X43450D02*
X43900D01*
X66500Y87450D02*
X70050D01*
X63000D02*
X64700D01*
X59250D02*
X61200D01*
X56150D02*
X57950D01*
X52750D02*
X54100D01*
X47350D02*
X48650D01*
X43450D02*
X43900D01*
X66450Y87400D02*
X70050D01*
X63000D02*
X64700D01*
X59250D02*
X61200D01*
X56150D02*
X57950D01*
X52750D02*
X54100D01*
X47350D02*
X48650D01*
X43450D02*
X43900D01*
X66450Y87350D02*
X70050D01*
X63000D02*
X64750D01*
X59250D02*
X61250D01*
X56150D02*
X57950D01*
X52750D02*
X54100D01*
X47350D02*
X48650D01*
X43450D02*
X43900D01*
X66450Y87300D02*
X70000D01*
X63000D02*
X64750D01*
X59250D02*
X61250D01*
X56150D02*
X57950D01*
X52750D02*
X54100D01*
X47350D02*
X48650D01*
X43500D02*
X43900D01*
X66400Y87250D02*
X70000D01*
X62950D02*
X64750D01*
X59250D02*
X61250D01*
X56200D02*
X57950D01*
X52750D02*
X54100D01*
X47350D02*
X48650D01*
X43500D02*
X43900D01*
X66400Y87200D02*
X70000D01*
X62950D02*
X64750D01*
X59250D02*
X61250D01*
X56200D02*
X57950D01*
X52750D02*
X54100D01*
X47350D02*
X48650D01*
X43500D02*
X43900D01*
X66400Y87150D02*
X70000D01*
X62950D02*
X64800D01*
X59250D02*
X61300D01*
X56200D02*
X57950D01*
X52750D02*
X54100D01*
X47350D02*
X48650D01*
X43500D02*
X43900D01*
X66400Y87100D02*
X70000D01*
X62900D02*
X64800D01*
X59250D02*
X61300D01*
X56200D02*
X57950D01*
X52750D02*
X54100D01*
X47350D02*
X48650D01*
X43500D02*
X43950D01*
X66350Y87050D02*
X70000D01*
X62900D02*
X64800D01*
X59250D02*
X61300D01*
X56200D02*
X57950D01*
X52750D02*
X54100D01*
X47350D02*
X48650D01*
X43500D02*
X43950D01*
X66350Y87000D02*
X70000D01*
X62900D02*
X64850D01*
X59250D02*
X61300D01*
X56200D02*
X57950D01*
X52750D02*
X54100D01*
X47350D02*
X48650D01*
X43550D02*
X43950D01*
X66350Y86950D02*
X69950D01*
X62850D02*
X64850D01*
X59250D02*
X61350D01*
X56200D02*
X57950D01*
X52750D02*
X54100D01*
X47350D02*
X48650D01*
X43550D02*
X43950D01*
X66350Y86900D02*
X69950D01*
X62850D02*
X64850D01*
X59250D02*
X61350D01*
X56200D02*
X57950D01*
X52750D02*
X54100D01*
X47350D02*
X48650D01*
X43550D02*
X43950D01*
X66300Y86850D02*
X69950D01*
X62850D02*
X64850D01*
X59250D02*
X61350D01*
X56250D02*
X57950D01*
X52750D02*
X54100D01*
X47350D02*
X48650D01*
X43550D02*
X44000D01*
X66300Y86800D02*
X69950D01*
X62850D02*
X64900D01*
X59250D02*
X61350D01*
X56250D02*
X57950D01*
X52750D02*
X54100D01*
X47350D02*
X48650D01*
X43550D02*
X44000D01*
X66300Y86750D02*
X69950D01*
X62800D02*
X64900D01*
X59250D02*
X61400D01*
X56250D02*
X57950D01*
X52750D02*
X54100D01*
X47350D02*
X48650D01*
X43600D02*
X44000D01*
X66300Y86700D02*
X69900D01*
X62800D02*
X64900D01*
X59250D02*
X61400D01*
X56250D02*
X57950D01*
X52750D02*
X54100D01*
X47350D02*
X48650D01*
X43600D02*
X44000D01*
X66250Y86650D02*
X69900D01*
X62800D02*
X64950D01*
X59250D02*
X61400D01*
X56250D02*
X57950D01*
X52750D02*
X54100D01*
X47350D02*
X48650D01*
X43600D02*
X44050D01*
X66250Y86600D02*
X69900D01*
X62750D02*
X64950D01*
X59250D02*
X61450D01*
X56300D02*
X57950D01*
X52750D02*
X54100D01*
X47350D02*
X48650D01*
X43600D02*
X44050D01*
X66250Y86550D02*
X69850D01*
X62750D02*
X64950D01*
X59250D02*
X61450D01*
X56300D02*
X57950D01*
X52750D02*
X54100D01*
X47350D02*
X48650D01*
X43650D02*
X44050D01*
X66200Y86500D02*
X69850D01*
X62750D02*
X64950D01*
X59250D02*
X61450D01*
X56300D02*
X57950D01*
X52750D02*
X54100D01*
X47350D02*
X48650D01*
X43650D02*
X44100D01*
X66200Y86450D02*
X69850D01*
X62750D02*
X65000D01*
X59250D02*
X61450D01*
X56300D02*
X57950D01*
X52750D02*
X54100D01*
X47350D02*
X48650D01*
X43650D02*
X44100D01*
X66200Y86400D02*
X69850D01*
X62700D02*
X65000D01*
X59200D02*
X61500D01*
X56350D02*
X57950D01*
X52750D02*
X54100D01*
X47350D02*
X48650D01*
X43700D02*
X44100D01*
X66200Y86350D02*
X69800D01*
X62700D02*
X65000D01*
X59200D02*
X61500D01*
X56350D02*
X57950D01*
X52750D02*
X54100D01*
X47350D02*
X48650D01*
X43700D02*
X44150D01*
X66150Y86300D02*
X69800D01*
X62700D02*
X65050D01*
X59250D02*
X61500D01*
X56350D02*
X57950D01*
X52750D02*
X54100D01*
X47350D02*
X48650D01*
X43700D02*
X44150D01*
X66150Y86250D02*
X69750D01*
X62650D02*
X65050D01*
X59250D02*
X61500D01*
X56350D02*
X57950D01*
X52750D02*
X54100D01*
X47350D02*
X48650D01*
X43750D02*
X44150D01*
X66150Y86200D02*
X69750D01*
X62650D02*
X65050D01*
X59250D02*
X61550D01*
X56400D02*
X57950D01*
X52750D02*
X54100D01*
X47350D02*
X48650D01*
X43750D02*
X44200D01*
X66100Y86150D02*
X69750D01*
X65950D02*
X66000D01*
X62650D02*
X65150D01*
X62500D02*
X62550D01*
X62350D02*
X62450D01*
X59200D02*
X61550D01*
X56400D02*
X57950D01*
X52750D02*
X54000D01*
X48450D02*
X48550D01*
X47550D02*
X48350D01*
X47350D02*
X47400D01*
X43750D02*
X44200D01*
X56400Y86100D02*
X69700D01*
X43800D02*
X44250D01*
X56450Y86050D02*
X69700D01*
X43800D02*
X44250D01*
X56450Y86000D02*
X69650D01*
X43850D02*
X44300D01*
X56450Y85950D02*
X69650D01*
X43850D02*
X44300D01*
X56500Y85900D02*
X69650D01*
X43900D02*
X44350D01*
X56500Y85850D02*
X69600D01*
X43900D02*
X44350D01*
X56550Y85800D02*
X69600D01*
X43950D02*
X44400D01*
X56550Y85750D02*
X69550D01*
X43950D02*
X44400D01*
X56550Y85700D02*
X69550D01*
X44000D02*
X44450D01*
X56600Y85650D02*
X69500D01*
X44000D02*
X44450D01*
X56600Y85600D02*
X69450D01*
X44050D02*
X44500D01*
X56650Y85550D02*
X69450D01*
X44050D02*
X44550D01*
X56650Y85500D02*
X69400D01*
X44100D02*
X44550D01*
X56700Y85450D02*
X69400D01*
X44100D02*
X44600D01*
X56700Y85400D02*
X69350D01*
X44150D02*
X44650D01*
X56750Y85350D02*
X69300D01*
X44200D02*
X44700D01*
X56750Y85300D02*
X69300D01*
X44200D02*
X44700D01*
X56800Y85250D02*
X69250D01*
X44250D02*
X44750D01*
X56800Y85200D02*
X69200D01*
X44300D02*
X44800D01*
X56850Y85150D02*
X69150D01*
X44350D02*
X44850D01*
X56900Y85100D02*
X69150D01*
X44350D02*
X44900D01*
X56900Y85050D02*
X69100D01*
X44400D02*
X44950D01*
X56950Y85000D02*
X69050D01*
X44450D02*
X44950D01*
X57000Y84950D02*
X69000D01*
X44500D02*
X45000D01*
X57000Y84900D02*
X69000D01*
X44550D02*
X45050D01*
X57050Y84850D02*
X68950D01*
X44550D02*
X45100D01*
X57100Y84800D02*
X68900D01*
X44600D02*
X45200D01*
X57100Y84750D02*
X68850D01*
X44650D02*
X45250D01*
X57150Y84700D02*
X68800D01*
X44700D02*
X45300D01*
X57200Y84650D02*
X68750D01*
X44750D02*
X45350D01*
X57250Y84600D02*
X68700D01*
X44800D02*
X45400D01*
X57300Y84550D02*
X68650D01*
X44850D02*
X45500D01*
X57300Y84500D02*
X68600D01*
X44900D02*
X45550D01*
X57350Y84450D02*
X68550D01*
X44950D02*
X45600D01*
X57400Y84400D02*
X68450D01*
X45050D02*
X45700D01*
X57450Y84350D02*
X68400D01*
X45100D02*
X45750D01*
X57500Y84300D02*
X68350D01*
X45150D02*
X45850D01*
X57550Y84250D02*
X68300D01*
X45200D02*
X45950D01*
X57600Y84200D02*
X68250D01*
X45300D02*
X46050D01*
X57650Y84150D02*
X68150D01*
X45350D02*
X46150D01*
X57700Y84100D02*
X68100D01*
X45400D02*
X46250D01*
X57750Y84050D02*
X68000D01*
X45500D02*
X46350D01*
X57800Y84000D02*
X67950D01*
X45550D02*
X46500D01*
X57850Y83950D02*
X67850D01*
X45650D02*
X46650D01*
X57900Y83900D02*
X67750D01*
X45750D02*
X46800D01*
X58000Y83850D02*
X67650D01*
X45850D02*
X47050D01*
X58050Y83800D02*
X67550D01*
X45950D02*
X47400D01*
X46050Y83750D02*
X67450D01*
X46150Y83700D02*
X67350D01*
X46250Y83650D02*
X67250D01*
X46400Y83600D02*
X67100D01*
X46550Y83550D02*
X66950D01*
X46700Y83500D02*
X66800D01*
X46900Y83450D02*
X66600D01*
X47100Y83400D02*
X66350D01*
X47500Y83350D02*
X66000D01*
M02*
