M48
;Layer_Color=9474304
;FILE_FORMAT=2:5
INCH,TZ
;TYPE=PLATED
T1F00S00C0.01400
T2F00S00C0.03000
T3F00S00C0.03150
T5F00S00C0.03543
%
T01
X46500Y32500
X65000Y41500
X66000Y19000
X118929Y18059
X118429Y31059
X118929Y3059
X118500Y46500
X118429Y59559
Y72559
X84500Y81500
X66500
X50000
X32000
Y96000
X19500Y93000
X18500Y74000
X8500
X56500Y57500
X73547Y52500
Y68000
X66000Y106000
X50000
X84500Y106500
T02
X27300Y14000
Y21900
Y29700
X27400Y37600
X38400Y5900
X46400
X54200
X62200
X70000
X77800
X88800Y14100
Y22000
Y29800
Y37600
Y45600
Y53400
Y61300
Y69100
X27400
Y61300
Y53300
Y45500
T03
X5000Y101500
X15000
X97000Y93500
Y83500
T05
X131929Y10059
Y20059
Y30059
Y40059
X7000Y42500
Y32500
Y22500
Y52500
Y62500
X131929Y63559
Y53559
M30
