M48
;Layer_Color=9474304
;FILE_FORMAT=2:5
INCH,TZ
;TYPE=PLATED
T1F00S00C0.01400
T2F00S00C0.03000
T3F00S00C0.03150
T5F00S00C0.03346
T6F00S00C0.03543
T7F00S00C0.03937
%
T01
X139500Y65000
X124500Y62500
X111000Y59500
X119000Y81500
X118000Y91500
X122000Y93500
X80500Y84500
X76000Y70000
X50000Y86500
X7000Y89000
X17000Y35000
X106000Y16000
X65000Y115500
X51000Y137000
X39500Y105000
X46000Y196000
X8500
X99500Y199000
X136000Y130000
T02
X28400Y64900
Y72700
Y80700
Y88500
Y96400
X89800
Y88400
Y80600
Y72700
Y64900
Y104200
Y112000
Y119900
X78800Y128100
X71000
X63200
X55200
X47400
X39400
X28300Y120000
Y112100
Y104300
X122291Y195500
T03
X98500Y133000
X108500
X103500Y167000
X113500
X123500
X133500
T05
X17000Y59000
Y89000
Y96500
X8000
X103000Y92000
X102500Y81000
Y51000
X103000Y122000
X81500Y143000
X73500Y142500
Y152500
X81500Y173000
X43500Y152500
X34500
Y143000
X43500Y142500
X4500Y143000
Y152500
X8000Y126500
X17000
T06
X131000Y76500
Y86500
Y96500
X116500Y24500
Y6500
X93000
Y24500
X56500Y23500
Y5500
X33000
Y23500
X29000Y212500
X19000
X56500
X66500
X76500
X86500
X131000Y116500
Y106500
T07
X8500Y163524
Y172500
Y181476
X28500
Y172500
Y163524
X51000
Y172500
Y181476
X71000
Y172500
Y163524
X91000
Y172500
Y181476
X108500Y142500
X118500
X128500
M30
