%FSLAX25Y25*%
%MOIN*%
G70*
G01*
G75*
G04 Layer_Color=8388736*
%ADD10C,0.07874*%
%ADD11C,0.02000*%
%ADD12C,0.01200*%
%ADD13C,0.05000*%
%ADD14C,0.02500*%
%ADD15C,0.02953*%
%ADD16C,0.06299*%
%ADD17R,0.06299X0.06299*%
%ADD18R,0.05906X0.05906*%
%ADD19C,0.05906*%
%ADD20O,0.05512X0.14173*%
%ADD21O,0.14173X0.05512*%
%ADD22C,0.05315*%
%ADD23R,0.05315X0.05315*%
%ADD24R,0.06299X0.06299*%
%ADD25C,0.05512*%
%ADD26R,0.05906X0.05906*%
%ADD27R,0.10000X0.04500*%
%ADD28R,0.05500X0.10000*%
%ADD29C,0.06000*%
%ADD30C,0.02500*%
%ADD31C,0.00984*%
%ADD32C,0.00394*%
%ADD33C,0.01000*%
%ADD34C,0.00787*%
%ADD35C,0.00050*%
%ADD36C,0.00900*%
%ADD37C,0.00800*%
%ADD38C,0.00591*%
%ADD39C,0.08674*%
%ADD40C,0.07099*%
%ADD41R,0.07099X0.07099*%
%ADD42R,0.06706X0.06706*%
%ADD43C,0.06706*%
%ADD44O,0.06312X0.14973*%
%ADD45O,0.14973X0.06312*%
%ADD46C,0.06115*%
%ADD47R,0.06115X0.06115*%
%ADD48R,0.07099X0.07099*%
%ADD49C,0.06312*%
%ADD50R,0.06706X0.06706*%
%ADD51R,0.10800X0.05300*%
%ADD52R,0.06300X0.10800*%
%ADD53C,0.06800*%
%ADD54C,0.03300*%
D39*
X119000Y43500D02*
D03*
D40*
X128500Y142500D02*
D03*
X118500D02*
D03*
X28500Y181476D02*
D03*
Y172500D02*
D03*
X8500Y181476D02*
D03*
Y172500D02*
D03*
X91000Y181476D02*
D03*
Y172500D02*
D03*
X71000Y181476D02*
D03*
Y172500D02*
D03*
X51000Y181476D02*
D03*
Y172500D02*
D03*
D41*
X108500Y142500D02*
D03*
D42*
X33000Y23500D02*
D03*
X116500Y6500D02*
D03*
X19000Y212500D02*
D03*
X86500D02*
D03*
D43*
X56500Y23500D02*
D03*
X33000Y5500D02*
D03*
X56500D02*
D03*
X93000Y6500D02*
D03*
X116500Y24500D02*
D03*
X93000D02*
D03*
X29000Y212500D02*
D03*
X76500D02*
D03*
X66500D02*
D03*
X56500D02*
D03*
X131000Y86500D02*
D03*
Y96500D02*
D03*
Y106500D02*
D03*
Y116500D02*
D03*
D44*
X132291Y195500D02*
D03*
X109457D02*
D03*
D45*
X121268Y214398D02*
D03*
D46*
X108500Y133000D02*
D03*
X103500Y167000D02*
D03*
X123500D02*
D03*
D47*
X98500Y133000D02*
D03*
X113500Y167000D02*
D03*
X133500D02*
D03*
D48*
X28500Y163524D02*
D03*
X8500D02*
D03*
X91000D02*
D03*
X71000D02*
D03*
X51000D02*
D03*
D49*
X43500Y142500D02*
D03*
X73500D02*
D03*
X43500Y152500D02*
D03*
X73500D02*
D03*
X4500Y143000D02*
D03*
X34500D02*
D03*
X4500Y152500D02*
D03*
X34500D02*
D03*
X81500Y143000D02*
D03*
Y173000D02*
D03*
X102500Y81000D02*
D03*
Y51000D02*
D03*
X17000Y96500D02*
D03*
Y126500D02*
D03*
Y89000D02*
D03*
Y59000D02*
D03*
X8000Y96500D02*
D03*
Y126500D02*
D03*
X103000Y122000D02*
D03*
Y92000D02*
D03*
D50*
X131000Y76500D02*
D03*
D51*
X89800Y112000D02*
D03*
X28300Y120000D02*
D03*
X89800Y64900D02*
D03*
Y72700D02*
D03*
Y80600D02*
D03*
Y88400D02*
D03*
Y96400D02*
D03*
Y104200D02*
D03*
Y119900D02*
D03*
X28300Y112100D02*
D03*
Y104300D02*
D03*
X28400Y96400D02*
D03*
Y88500D02*
D03*
Y80700D02*
D03*
Y72700D02*
D03*
Y64900D02*
D03*
D52*
X78800Y128100D02*
D03*
X71000D02*
D03*
X63200D02*
D03*
X55200D02*
D03*
X47400D02*
D03*
X39400D02*
D03*
D53*
X122291Y195500D02*
D03*
D54*
X80500Y84500D02*
D03*
X118000Y91500D02*
D03*
X119000Y81500D02*
D03*
X106000Y16000D02*
D03*
X7000Y89000D02*
D03*
X51000Y137000D02*
D03*
X50000Y86500D02*
D03*
X17000Y35000D02*
D03*
X99500Y199000D02*
D03*
X46000Y196000D02*
D03*
X136000Y130000D02*
D03*
X8500Y196000D02*
D03*
X65000Y115500D02*
D03*
X76000Y70000D02*
D03*
X122000Y93500D02*
D03*
X124500Y62500D02*
D03*
X139500Y65000D02*
D03*
X111000Y59500D02*
D03*
X39500Y105000D02*
D03*
M02*
